<?xml version="1.0" encoding="UTF-8" standalone="no"?>
<!-- Generator: Adobe Illustrator 18.0.0, SVG Export Plug-In . SVG Version: 6.00 Build 0)  -->

<svg
   xmlns:dc="http://purl.org/dc/elements/1.1/"
   xmlns:cc="http://creativecommons.org/ns#"
   xmlns:rdf="http://www.w3.org/1999/02/22-rdf-syntax-ns#"
   xmlns:svg="http://www.w3.org/2000/svg"
   xmlns="http://www.w3.org/2000/svg"
   xmlns:xlink="http://www.w3.org/1999/xlink"
   xmlns:sodipodi="http://sodipodi.sourceforge.net/DTD/sodipodi-0.dtd"
   xmlns:inkscape="http://www.inkscape.org/namespaces/inkscape"
   version="1.1"
   id="Capa_1"
   x="0px"
   y="0px"
   viewBox="0 0 188.148 188.148"
   style="enable-background:new 0 0 188.148 188.148;"
   xml:space="preserve"
   sodipodi:docname="avatar_3.svg"
   inkscape:version="0.92.3 (2405546, 2018-03-11)"><metadata
   id="metadata113"><rdf:RDF><cc:Work
       rdf:about=""><dc:format>image/svg+xml</dc:format><dc:type
         rdf:resource="http://purl.org/dc/dcmitype/StillImage" /></cc:Work></rdf:RDF></metadata><defs
   id="defs111">
	

		<defs
   id="defs3">
			<circle
   id="SVGID_1_"
   cx="94.073997"
   cy="94.073997"
   r="94.073997" />
		</defs>
		
		<clipPath
   id="SVGID_2_">
			<use
   xlink:href="#SVGID_1_"
   style="overflow:visible"
   id="use7"
   x="0"
   y="0"
   width="100%"
   height="100%" />
		</clipPath>
		
	
			
			
			
			
			
			
			
			
			
		
				
				
			
				
				
			
				
				
			
					
					
					
					
					
					
					
					
				
					
					
					
					
					
					
					
					
				</defs><sodipodi:namedview
   pagecolor="#ffffff"
   bordercolor="#666666"
   borderopacity="1"
   objecttolerance="10"
   gridtolerance="10"
   guidetolerance="10"
   inkscape:pageopacity="0"
   inkscape:pageshadow="2"
   inkscape:window-width="1366"
   inkscape:window-height="706"
   id="namedview109"
   showgrid="false"
   inkscape:zoom="2"
   inkscape:cx="75.439123"
   inkscape:cy="102.66449"
   inkscape:window-x="-8"
   inkscape:window-y="-8"
   inkscape:window-maximized="1"
   inkscape:current-layer="Capa_1" />
<use
   xlink:href="#SVGID_1_"
   style="overflow:visible;fill:#b7dc78"
   id="use5"
   x="0"
   y="0"
   width="100%"
   height="100%" /><path
   inkscape:connector-curvature="0"
   id="path10"
   d="m 58.416,149.355 c 0,3.979 -1.573,7.402 -3.825,8.842 -0.73,0.474 -1.532,0.73 -2.375,0.73 -0.843,0 -1.645,-0.257 -2.375,-0.73 -2.252,-1.439 -3.825,-4.862 -3.825,-8.842 0,-2.066 0.421,-3.989 1.162,-5.552 1.11,-2.437 2.951,-4.02 5.038,-4.02 2.087,0 3.927,1.583 5.038,4.02 0.741,1.562 1.162,3.485 1.162,5.552 z"
   style="fill:#141720" /><path
   inkscape:connector-curvature="0"
   id="path12"
   d="m 58.416,138.24 c 0,2.077 -0.421,4 -1.162,5.563 -1.121,2.427 -2.961,4 -5.038,4 -2.077,0 -3.917,-1.573 -5.038,-4 -0.74,-1.563 -1.162,-3.485 -1.162,-5.563 0,-2.076 0.421,-3.999 1.162,-5.562 1.121,-2.427 2.961,-4.01 5.038,-4.01 2.077,0 3.917,1.583 5.038,4.01 0.741,1.563 1.162,3.486 1.162,5.562 z"
   style="fill:#141720" /><path
   inkscape:connector-curvature="0"
   id="path14"
   d="m 58.416,127.116 c 0,2.077 -0.421,3.999 -1.162,5.562 -1.121,2.426 -2.961,4.01 -5.038,4.01 -2.077,0 -3.917,-1.584 -5.038,-4.01 -0.74,-1.563 -1.162,-3.485 -1.162,-5.562 0,-2.066 0.421,-3.989 1.162,-5.552 1.11,-2.437 2.951,-4.021 5.038,-4.021 2.087,0 3.927,1.584 5.038,4.021 0.741,1.563 1.162,3.486 1.162,5.552 z"
   style="fill:#141720" /><path
   inkscape:connector-curvature="0"
   id="path16"
   d="m 58.416,116.002 c 0,2.077 -0.421,3.999 -1.162,5.563 -1.121,2.426 -2.961,4.01 -5.038,4.01 -2.077,0 -3.917,-1.584 -5.038,-4.01 -0.74,-1.563 -1.162,-3.485 -1.162,-5.563 0,-2.066 0.421,-3.989 1.162,-5.552 1.11,-2.437 2.951,-4.021 5.038,-4.021 2.087,0 3.927,1.584 5.038,4.021 0.741,1.563 1.162,3.486 1.162,5.552 z"
   style="fill:#141720" /><path
   inkscape:connector-curvature="0"
   id="path18"
   d="m 58.416,104.878 c 0,1.09 -0.113,2.138 -0.339,3.115 -0.195,0.884 -0.473,1.717 -0.823,2.457 -1.121,2.426 -2.961,3.999 -5.038,3.999 -2.077,0 -3.917,-1.573 -5.038,-3.999 -0.74,-1.563 -1.162,-3.485 -1.162,-5.572 0,-2.066 0.421,-3.989 1.162,-5.553 1.11,-2.426 2.951,-4.01 5.038,-4.01 0.462,0 0.904,0.083 1.336,0.227 1.532,0.514 2.837,1.892 3.701,3.783 0.742,1.564 1.163,3.487 1.163,5.553 z"
   style="fill:#141720" /><path
   inkscape:connector-curvature="0"
   id="path20"
   d="m 58.416,93.764 c 0,2.076 -0.421,3.999 -1.162,5.562 -0.473,1.039 -1.09,1.923 -1.799,2.592 -0.946,0.904 -2.056,1.418 -3.238,1.418 -2.077,0 -3.917,-1.583 -5.038,-4.01 -0.74,-1.563 -1.162,-3.485 -1.162,-5.562 0,-2.066 0.421,-3.989 1.162,-5.552 1.11,-2.438 2.951,-4.021 5.038,-4.021 2.087,0 3.927,1.583 5.038,4.021 0.74,1.562 1.161,3.485 1.161,5.552 z"
   style="fill:#141720" /><path
   inkscape:connector-curvature="0"
   id="path22"
   d="m 58.416,82.649 c 0,0.113 0,0.227 -0.01,0.329 -0.041,1.953 -0.452,3.753 -1.151,5.233 -0.997,2.158 -2.56,3.649 -4.37,3.947 -0.216,0.041 -0.442,0.063 -0.668,0.063 -2.077,0 -3.917,-1.584 -5.038,-4.01 -0.74,-1.563 -1.162,-3.485 -1.162,-5.563 0,-2.077 0.421,-4 1.162,-5.563 0.421,-0.915 0.946,-1.717 1.553,-2.354 0.997,-1.049 2.2,-1.655 3.485,-1.655 2.077,0 3.917,1.584 5.038,4.01 0.74,1.563 1.161,3.486 1.161,5.563 z"
   style="fill:#141720" /><path
   inkscape:connector-curvature="0"
   id="path24"
   d="m 58.416,71.524 c 0,2.077 -0.421,4 -1.162,5.563 -0.997,2.17 -2.581,3.671 -4.4,3.958 -0.01,-0.01 -0.01,0 -0.01,0 -0.205,0.031 -0.411,0.052 -0.627,0.052 -2.077,0 -3.917,-1.583 -5.038,-4.01 -0.74,-1.563 -1.162,-3.485 -1.162,-5.563 0,-1.202 0.144,-2.364 0.411,-3.423 0.894,-3.589 3.146,-6.139 5.789,-6.139 3.423,10e-4 6.199,4.278 6.199,9.562 z"
   style="fill:#141720" /><polygon
   style="fill:#141720"
   points="49.842,158.196 52.217,150.352 54.591,158.196 55.743,161.98 58.283,170.37 46.15,170.37 "
   id="polygon28" /><ellipse
   id="ellipse32"
   ry="9.5699997"
   rx="6.198"
   cy="149.354"
   cx="135.939"
   style="fill:#141720" /><ellipse
   id="ellipse34"
   ry="9.5699997"
   rx="6.198"
   cy="138.235"
   cx="135.939"
   style="fill:#141720" /><ellipse
   id="ellipse36"
   ry="9.5690002"
   rx="6.198"
   cy="127.118"
   cx="135.939"
   style="fill:#141720" /><ellipse
   id="ellipse38"
   ry="9.5699997"
   rx="6.198"
   cy="116"
   cx="135.939"
   style="fill:#141720" /><ellipse
   id="ellipse40"
   ry="9.5699997"
   rx="6.198"
   cy="104.882"
   cx="135.939"
   style="fill:#141720" /><ellipse
   id="ellipse42"
   ry="9.5690002"
   rx="6.198"
   cy="93.764999"
   cx="135.939"
   style="fill:#141720" /><ellipse
   id="ellipse44"
   ry="9.5699997"
   rx="6.198"
   cy="82.646004"
   cx="135.939"
   style="fill:#141720" /><ellipse
   id="ellipse46"
   ry="9.5699997"
   rx="6.198"
   cy="71.528"
   cx="135.939"
   style="fill:#141720" /><polygon
   style="fill:#141720"
   points="136.077,170.371 142.005,170.371 135.939,150.347 129.874,170.371 135.802,170.371 "
   id="polygon50" /><path
   inkscape:connector-curvature="0"
   id="path54"
   d="m 142.12496,174.94687 c -37.51157,-1.49291 -57.807269,0.67436 -96.044222,0.0389 2.603933,-3.13632 2.399392,-3.5014 2.702262,-4.61578 0.843,-1.255 1.748,-2.488 2.694,-3.671 0.658,-0.813 1.326,-1.604 2.015,-2.364 0.339,-0.391 0.699,-0.771 1.059,-1.152 0.36,-0.37 0.72,-0.74 1.09,-1.109 0.031,-0.031 0.072,-0.072 0.103,-0.093 1.81,-1.81 3.752,-3.465 5.788,-4.986 1.039,-0.771 2.087,-1.491 3.177,-2.191 0.134,-0.093 0.277,-0.175 0.421,-0.257 0.946,-0.606 1.913,-1.172 2.899,-1.707 0.01,-0.01 0.021,-0.01 0.031,-0.01 h 0.01 l 0.01,-0.011 c 0.36,-0.185 0.71,-0.391 1.059,-0.617 0.082,-0.041 0.154,-0.082 0.237,-0.133 0.288,-0.175 0.576,-0.36 0.863,-0.545 0.093,-0.063 0.185,-0.124 0.277,-0.175 0.247,-0.165 0.494,-0.329 0.741,-0.515 0.308,-0.205 0.617,-0.432 0.915,-0.657 0,-0.011 0,-0.011 0.01,0 0.298,-0.217 0.596,-0.442 0.884,-0.679 l 0.01,-0.011 c 1.717,-1.367 3.311,-2.899 4.74,-4.575 1.286,-1.501 2.447,-3.115 3.455,-4.832 1.121,-1.871 2.067,-3.855 2.807,-5.933 0.37,-1.049 0.699,-2.118 0.966,-3.218 0.206,-0.771 0.37,-1.553 0.514,-2.345 0.35,-1.974 0.535,-4.009 0.535,-6.086 l 7.947,0.041 h 0.041 l 1.387,0.011 6.745,0.03 c 0,2.036 0.175,4.03 0.514,5.974 0.134,0.802 0.309,1.594 0.515,2.375 0.257,1.079 0.575,2.139 0.936,3.166 0.74,2.098 1.676,4.103 2.796,5.984 0.915,1.563 1.954,3.033 3.105,4.421 1.501,1.841 3.197,3.506 5.059,4.997 0.268,0.225 0.534,0.441 0.812,0.637 0.083,0.072 0.176,0.134 0.268,0.195 0.007,0.005 0.015,0.013 0.022,0.018 0.15,0.112 0.301,0.232 0.451,0.331 0.246,0.165 0.482,0.34 0.729,0.504 0.082,0.061 0.154,0.113 0.236,0.165 0.186,0.123 0.37,0.246 0.556,0.37 0.195,0.123 0.38,0.236 0.575,0.35 0.216,0.123 0.422,0.257 0.638,0.38 0.205,0.134 0.422,0.257 0.638,0.37 0.071,0.021 0.123,0.062 0.184,0.093 l 0.34,0.185 c 0.071,0.042 0.144,0.083 0.205,0.124 0.277,0.154 0.545,0.309 0.813,0.463 0.442,0.257 0.894,0.524 1.326,0.802 0.422,0.257 0.843,0.524 1.254,0.822 0.854,0.545 1.687,1.142 2.499,1.758 0,0.011 0.01,0.011 0.01,0.011 h 0.011 c 1.038,0.77 2.046,1.594 3.033,2.436 0.925,0.792 1.81,1.614 2.673,2.478 0.062,0.052 0.113,0.104 0.175,0.165 2.519,2.508 4.791,5.253 6.775,8.215 0.72348,1.69532 -0.41802,1.00966 2.76396,4.57787 z"
   style="fill:#dfb28b"
   sodipodi:nodetypes="cccccccccccccscccccccccccccccccccccccccccccccccccccccccccccccccc" /><path
   inkscape:connector-curvature="0"
   id="path56"
   d="m 142.12496,174.94708 c -27.4553,16.28391 -65.786955,19.10694 -96.044222,0.0387 1.218247,-2.64778 2.011974,-3.36579 2.702262,-4.6158 0.843,-1.255 1.748,-2.488 2.694,-3.671 0.658,-0.813 1.326,-1.604 2.015,-2.364 0.339,-0.391 0.699,-0.771 1.059,-1.152 0.36,-0.37 0.72,-0.74 1.09,-1.109 0.031,-0.031 0.072,-0.072 0.103,-0.093 1.81,-1.81 3.752,-3.465 5.788,-4.986 1.039,-0.771 2.087,-1.491 3.177,-2.191 0.134,-0.093 0.277,-0.175 0.421,-0.257 0.946,-0.606 1.913,-1.172 2.899,-1.707 0,-0.01 0.01,-0.01 0.01,-0.01 0.01,-0.011 0.01,-0.011 0.021,0 h 0.01 v -0.011 h 0.01 c 0.36,-0.205 0.71,-0.411 1.059,-0.617 0.082,-0.041 0.154,-0.082 0.237,-0.133 0.288,-0.175 0.576,-0.36 0.863,-0.545 0.277,-0.186 0.555,-0.381 0.833,-0.565 0.113,-0.083 0.227,-0.165 0.34,-0.247 0.257,-0.175 0.514,-0.36 0.761,-0.545 0.021,-0.021 0.051,-0.041 0.072,-0.052 0.267,-0.205 0.535,-0.421 0.802,-0.638 l 0.011,-0.01 0.02,0.02 c 0.587,0.597 1.183,1.172 1.82,1.717 0.309,0.268 0.627,0.524 0.946,0.781 0.01,0.02 0.01,0.02 0.021,0.011 0.298,0.236 0.586,0.463 0.884,0.688 0.072,0.052 0.133,0.104 0.206,0.145 0.308,0.216 0.617,0.432 0.925,0.637 0.699,0.463 1.419,0.895 2.148,1.296 0.371,0.206 0.741,0.401 1.121,0.586 0.38,0.195 0.771,0.37 1.172,0.535 0.051,0.041 0.103,0.061 0.154,0.071 0.884,0.381 1.789,0.72 2.714,1.019 0.35,0.112 0.699,0.216 1.059,0.308 0.318,0.083 0.637,0.165 0.956,0.247 0.072,0.031 0.144,0.041 0.226,0.052 1.038,0.236 2.107,0.421 3.198,0.555 0.37,0.041 0.74,0.083 1.121,0.113 0.761,0.062 1.521,0.093 2.293,0.093 h 0.082 c 0.226,0 0.452,0 0.678,-0.011 0.113,0.011 0.227,0.011 0.34,-0.01 0.112,0 0.216,-0.011 0.328,-0.02 0.483,-0.021 0.957,-0.052 1.43,-0.093 0.411,-0.041 0.822,-0.093 1.224,-0.145 0.113,0 0.216,-0.01 0.318,-0.041 0.318,-0.041 0.627,-0.102 0.936,-0.153 0.124,-0.011 0.247,-0.031 0.37,-0.072 0.227,-0.041 0.452,-0.093 0.668,-0.134 0.227,-0.041 0.442,-0.093 0.658,-0.154 0.453,-0.113 0.905,-0.227 1.347,-0.36 0.442,-0.133 0.885,-0.267 1.316,-0.421 0.463,-0.144 0.904,-0.318 1.347,-0.504 0.216,-0.082 0.432,-0.164 0.638,-0.257 1.059,-0.452 2.077,-0.967 3.064,-1.553 0.35,-0.195 0.689,-0.401 1.028,-0.606 0.226,-0.145 0.442,-0.288 0.658,-0.442 0.185,-0.123 0.37,-0.246 0.545,-0.37 0.37,-0.257 0.73,-0.524 1.09,-0.802 0.359,-0.277 0.709,-0.565 1.049,-0.854 0.688,-0.575 1.347,-1.192 1.974,-1.83 l 0.021,-0.021 c 0.35,0.288 0.71,0.565 1.069,0.843 0.007,0.005 0.015,0.013 0.022,0.018 0.044,0.033 0.088,0.064 0.132,0.097 0.02,0.013 0.04,0.022 0.062,0.039 0.319,0.236 0.647,0.474 0.987,0.699 0.082,0.061 0.154,0.113 0.236,0.165 0.37,0.246 0.751,0.483 1.131,0.72 0.422,0.257 0.854,0.504 1.285,0.74 0.072,0.02 0.124,0.061 0.186,0.092 0.112,0.063 0.226,0.134 0.329,0.195 0.071,0.042 0.144,0.083 0.205,0.124 0.277,0.154 0.545,0.309 0.813,0.463 0.442,0.257 0.894,0.524 1.326,0.802 0.422,0.257 0.843,0.524 1.254,0.822 0.854,0.545 1.687,1.142 2.499,1.758 l 0.021,-0.008 c 1.038,0.781 2.057,1.594 3.033,2.447 0.925,0.792 1.81,1.614 2.673,2.478 0.062,0.052 0.113,0.104 0.175,0.165 2.519,2.508 4.791,5.253 6.775,8.215 1.3231,2.14039 1.59312,2.33885 2.76096,4.5851 z"
   style="fill:#9d78dc"
   sodipodi:nodetypes="cccccccccccccccccccccccccccccccccccccccccccssccccccccccscccccccccccccccccccccccccccccccc" /><path
   style="fill:#e7ecf2"
   d="m 94.165,158.351 -0.031,0.052 -0.01,0.02 c -0.021,0.021 -0.031,0.052 -0.051,0.072 -2.899,4.451 -7.681,6.775 -12.492,6.775 -3.938,0 -7.896,-1.553 -10.867,-4.74 l -5.583,-5.983 c 0.946,-0.606 1.913,-1.172 2.899,-1.707 0.01,-0.01 0.021,-0.01 0.031,-0.01 0.01,0 0.01,0 0.01,0 v -0.011 h 0.01 c 0.36,-0.205 0.71,-0.411 1.059,-0.617 0.082,-0.041 0.154,-0.082 0.237,-0.133 0.288,-0.175 0.576,-0.36 0.863,-0.545 0.093,-0.063 0.185,-0.124 0.277,-0.175 0.186,-0.134 0.371,-0.258 0.555,-0.391 0.062,-0.042 0.124,-0.083 0.186,-0.124 0.308,-0.216 0.617,-0.432 0.915,-0.657 0,-0.011 0,-0.011 0.01,0 0.021,-0.031 0.041,-0.042 0.062,-0.063 0.267,-0.205 0.535,-0.421 0.802,-0.638 0.011,0.011 0.011,0.011 0.021,0.021 0.586,0.596 1.192,1.172 1.83,1.706 0.309,0.277 0.627,0.545 0.946,0.781 0.01,0.02 0.01,0.02 0.021,0.011 0.287,0.247 0.586,0.473 0.884,0.688 0.072,0.052 0.133,0.104 0.206,0.145 0.298,0.226 0.606,0.441 0.925,0.637 0.689,0.474 1.408,0.905 2.148,1.296 0.371,0.206 0.741,0.401 1.121,0.586 0.391,0.195 0.781,0.37 1.172,0.535 0.051,0.041 0.103,0.061 0.154,0.071 0.884,0.391 1.789,0.72 2.714,1.019 0.35,0.112 0.699,0.216 1.059,0.308 0.318,0.093 0.637,0.175 0.956,0.247 0.072,0.031 0.144,0.041 0.226,0.052 1.038,0.257 2.107,0.441 3.198,0.555 0.37,0.052 0.74,0.093 1.121,0.113 0.75,0.072 1.511,0.103 2.282,0.103 h 0.134 z"
   id="path58"
   inkscape:connector-curvature="0" /><path
   style="fill:#e7ecf2"
   d="m 123.129,154.626 -5.501,5.901 c -2.972,3.188 -6.93,4.74 -10.878,4.74 -4.832,0 -9.644,-2.345 -12.533,-6.848 l -0.01,-0.021 -0.041,-0.052 c 8.204,-0.01 15.628,-3.402 20.964,-8.842 l 0.01,-0.01 c 0.73,0.607 1.491,1.172 2.272,1.696 0.082,0.062 0.154,0.113 0.236,0.164 0.37,0.247 0.751,0.483 1.131,0.72 0.422,0.257 0.854,0.504 1.285,0.74 0.072,0.02 0.124,0.062 0.186,0.093 0.904,0.504 1.799,1.028 2.673,1.583 0.072,0.043 0.134,0.084 0.206,0.136 z"
   id="path60"
   inkscape:connector-curvature="0" /><path
   inkscape:connector-curvature="0"
   id="path64"
   d="m 123.209,34.008 c 0,6.981 -1.398,13.623 -3.938,19.679 -4.863,11.577 -13.89,20.984 -25.199,26.341 -6.601,3.126 -13.973,4.874 -21.756,4.874 -4.822,0 -9.49,-0.669 -13.911,-1.923 -1.902,-0.545 -3.752,-1.192 -5.552,-1.934 -0.01,-0.01 -0.01,0 -0.01,0 -0.216,-0.092 -0.421,-0.185 -0.627,-0.277 -0.175,-0.071 -0.339,-0.144 -0.504,-0.216 -1.11,-1.86 -2.107,-3.804 -2.981,-5.819 -0.915,-2.128 -1.687,-4.349 -2.303,-6.631 -1.1,-4.082 -1.686,-8.4 -1.686,-12.831 0,-27.235 22.084,-49.32 49.33,-49.32 8.842,0 17.139,2.324 24.315,6.405 0.308,0.648 0.596,1.306 0.884,1.975 0.946,2.241 1.717,4.555 2.334,6.939 1.049,4.071 1.604,8.337 1.604,12.738 z"
   style="fill:#141720" /><path
   inkscape:connector-curvature="0"
   id="path66"
   d="m 143.392,55.271 c 0,7.68 -1.758,14.948 -4.884,21.426 -8.513,-5.531 -15.268,-13.54 -19.236,-23.01 -2.55,-6.056 -3.948,-12.697 -3.948,-19.679 0,-6.98 1.398,-13.622 3.948,-19.678 0.164,-0.391 0.329,-0.771 0.504,-1.162 14.157,8.667 23.616,24.284 23.616,42.103 z"
   style="fill:#141720" /><path
   inkscape:connector-curvature="0"
   id="path68"
   d="m 135.938,52.792 v 31.399 c 0,0.411 -0.01,0.813 -0.02,1.224 -0.01,0.37 -0.021,0.729 -0.041,1.1 -0.011,0.329 -0.031,0.658 -0.062,0.987 -0.011,0.236 -0.031,0.473 -0.052,0.71 -0.01,0.144 -0.02,0.277 -0.041,0.421 -0.02,0.257 -0.041,0.525 -0.082,0.781 -0.041,0.494 -0.104,0.978 -0.175,1.471 -0.011,0.123 -0.031,0.247 -0.052,0.37 -0.03,0.247 -0.072,0.493 -0.113,0.74 v 0.031 c -0.01,0.051 -0.021,0.092 -0.021,0.144 -0.061,0.309 -0.113,0.617 -0.164,0.925 -0.093,0.494 -0.186,0.987 -0.288,1.471 -0.011,0.021 -0.011,0.041 -0.02,0.062 -0.011,0.072 -0.021,0.145 -0.041,0.216 -0.011,0.021 -0.011,0.041 -0.021,0.062 -0.041,0.216 -0.093,0.433 -0.145,0.638 -0.01,0.052 -0.02,0.093 -0.03,0.145 -0.02,0.112 -0.041,0.226 -0.082,0.339 -0.031,0.185 -0.083,0.37 -0.124,0.556 -0.03,0.103 -0.051,0.215 -0.093,0.318 -0.02,0.093 -0.051,0.185 -0.071,0.268 -0.216,0.843 -0.463,1.665 -0.72,2.487 -0.123,0.391 -0.247,0.771 -0.381,1.162 -0.01,0.041 -0.03,0.082 -0.041,0.123 -0.113,0.329 -0.236,0.669 -0.35,0.998 -0.01,0.021 -0.01,0.03 -0.02,0.051 -0.041,0.104 -0.082,0.206 -0.123,0.319 -0.124,0.328 -0.247,0.658 -0.381,0.986 -0.154,0.401 -0.318,0.792 -0.483,1.183 -0.144,0.35 -0.298,0.699 -0.452,1.049 -0.021,0.062 -0.051,0.113 -0.071,0.175 -0.175,0.37 -0.34,0.74 -0.515,1.1 -0.175,0.381 -0.359,0.762 -0.555,1.142 -0.011,0.021 -0.02,0.031 -0.031,0.052 -0.359,0.729 -0.75,1.47 -1.142,2.18 l -0.555,0.986 c -1.583,2.725 -3.342,5.285 -5.254,7.649 -0.257,0.34 -0.524,0.669 -0.802,0.987 -0.381,0.463 -0.772,0.915 -1.162,1.357 -0.329,0.37 -0.668,0.75 -1.018,1.11 -0.011,0.021 -0.021,0.03 -0.041,0.051 -0.987,1.06 -1.995,2.066 -3.023,3.013 -0.205,0.206 -0.421,0.391 -0.637,0.586 -0.35,0.318 -0.699,0.627 -1.06,0.926 -0.277,0.246 -0.565,0.482 -0.852,0.72 -0.74,0.606 -1.481,1.192 -2.231,1.737 -0.309,0.236 -0.627,0.463 -0.946,0.679 -0.514,0.37 -1.038,0.72 -1.563,1.059 -0.288,0.195 -0.586,0.381 -0.884,0.556 -0.052,0.03 -0.093,0.062 -0.145,0.082 -0.997,0.617 -2.015,1.182 -3.012,1.676 -0.258,0.134 -0.515,0.257 -0.771,0.381 -0.257,0.123 -0.525,0.246 -0.802,0.369 -0.34,0.154 -0.679,0.299 -1.019,0.433 -0.133,0.062 -0.267,0.112 -0.4,0.154 -0.401,0.164 -0.812,0.318 -1.213,0.452 -0.504,0.184 -1.019,0.339 -1.522,0.483 -0.349,0.102 -0.709,0.195 -1.059,0.277 -0.021,0.01 -0.041,0.021 -0.072,0.021 -0.35,0.082 -0.699,0.164 -1.048,0.227 -0.093,0.02 -0.186,0.041 -0.278,0.051 -0.288,0.052 -0.575,0.104 -0.863,0.134 -0.411,0.061 -0.822,0.113 -1.234,0.134 -0.143,0.021 -0.277,0.031 -0.421,0.031 -0.329,0.021 -0.648,0.03 -0.966,0.03 h -0.041 c -0.318,0 -0.637,-0.01 -0.956,-0.03 -0.124,0 -0.247,-0.011 -0.37,-0.031 -0.288,-0.011 -0.586,-0.041 -0.895,-0.082 -0.062,0 -0.134,-0.011 -0.195,-0.02 -0.38,-0.052 -0.761,-0.113 -1.151,-0.186 -0.329,-0.052 -0.658,-0.123 -0.997,-0.205 -1.758,-0.401 -3.567,-1.008 -5.397,-1.82 -1.563,-0.688 -3.146,-1.521 -4.719,-2.488 -0.093,-0.051 -0.175,-0.112 -0.268,-0.164 -0.699,-0.432 -1.408,-0.895 -2.097,-1.378 -0.391,-0.277 -0.781,-0.555 -1.172,-0.843 -1.224,-0.895 -2.437,-1.871 -3.629,-2.92 -0.329,-0.298 -0.658,-0.597 -0.987,-0.905 -0.329,-0.298 -0.658,-0.606 -0.976,-0.904 -0.761,-0.73 -1.501,-1.48 -2.211,-2.272 -0.052,-0.041 -0.092,-0.093 -0.134,-0.134 -0.298,-0.318 -0.596,-0.647 -0.895,-0.986 -0.822,-0.926 -1.624,-1.882 -2.385,-2.879 -0.298,-0.36 -0.576,-0.73 -0.853,-1.101 -1.039,-1.378 -2.026,-2.817 -2.951,-4.308 -0.247,-0.4 -0.494,-0.813 -0.73,-1.213 -0.288,-0.483 -0.565,-0.976 -0.843,-1.471 -0.401,-0.72 -0.781,-1.449 -1.151,-2.189 -0.597,-1.162 -1.142,-2.354 -1.645,-3.568 -0.124,-0.287 -0.247,-0.575 -0.35,-0.863 -0.164,-0.37 -0.309,-0.75 -0.442,-1.12 -0.062,-0.176 -0.133,-0.35 -0.185,-0.524 -0.144,-0.371 -0.277,-0.74 -0.401,-1.111 -0.185,-0.544 -0.36,-1.1 -0.535,-1.654 -0.165,-0.535 -0.319,-1.07 -0.463,-1.614 -0.164,-0.576 -0.318,-1.162 -0.452,-1.759 -0.01,-0.062 -0.031,-0.123 -0.041,-0.184 0,-0.021 -0.01,-0.031 -0.01,-0.052 -0.195,-0.802 -0.36,-1.624 -0.514,-2.447 -0.062,-0.308 -0.113,-0.616 -0.154,-0.936 -0.144,-0.802 -0.246,-1.624 -0.339,-2.446 -0.051,-0.36 -0.082,-0.72 -0.113,-1.08 -0.041,-0.38 -0.072,-0.75 -0.093,-1.131 C 52.291,86.822 52.26,86.122 52.239,85.423 52.228,85.012 52.218,84.61 52.218,84.199 V 52.792 c 0,-22.341 17.509,-40.601 39.563,-41.793 0.041,-0.011 0.072,-0.011 0.113,-0.011 0.288,-0.01 0.576,-0.021 0.864,-0.031 0.432,-0.01 0.854,-0.021 1.285,-0.021 h 0.041 c 0.442,0 0.884,0.011 1.326,0.021 h 0.093 c 0.309,0.011 0.617,0.021 0.926,0.042 h 0.03 c 0.145,0.01 0.288,0.021 0.432,0.03 0.309,0.021 0.617,0.041 0.915,0.072 0.154,0.01 0.299,0.021 0.453,0.041 0.103,0.01 0.195,0.021 0.298,0.03 1.635,0.176 3.238,0.442 4.802,0.792 2.725,0.617 5.346,1.501 7.834,2.622 2.323,1.038 4.534,2.282 6.601,3.711 0.967,0.658 1.892,1.357 2.786,2.098 0.35,0.288 0.688,0.576 1.028,0.864 v 0.01 c 1.984,1.728 3.804,3.63 5.418,5.706 5.511,7.023 8.832,15.844 8.904,25.446 0.008,0.125 0.008,0.248 0.008,0.371 z"
   style="fill:#dfb28b" /><path
   inkscape:connector-curvature="0"
   id="path70"
   d="m 143.392,55.271 c 0,4.421 -0.586,8.708 -1.686,12.789 -0.596,2.293 -1.377,4.514 -2.303,6.652 -0.277,0.668 -0.576,1.337 -0.895,1.984 -0.874,-0.565 -1.737,-1.162 -2.57,-1.799 -0.617,-0.442 -1.224,-0.915 -1.819,-1.398 -1.491,-1.213 -2.91,-2.509 -4.257,-3.876 -4.473,-4.565 -8.081,-9.963 -10.59,-15.937 -4.863,11.577 -13.89,20.984 -25.199,26.341 -6.601,3.126 -13.973,4.874 -21.756,4.874 -4.822,0 -9.49,-0.669 -13.911,-1.923 -1.902,-0.545 -3.752,-1.192 -5.552,-1.934 -0.01,-0.01 -0.01,0 -0.01,0 -0.216,-0.092 -0.421,-0.185 -0.627,-0.277 -0.175,-0.071 -0.339,-0.144 -0.504,-0.216 -1.11,-1.86 -2.107,-3.804 -2.981,-5.819 -0.915,-2.128 -1.687,-4.349 -2.303,-6.631 -1.1,-4.082 -1.686,-8.4 -1.686,-12.831 0,-27.235 22.084,-49.32 49.33,-49.32 8.842,0 17.139,2.324 24.315,6.405 0.462,0.257 0.925,0.535 1.388,0.813 14.157,8.667 23.616,24.284 23.616,42.103 z"
   style="fill:#141720" />
<g
   id="g78">
</g>
<g
   id="g80">
</g>
<g
   id="g82">
</g>
<g
   id="g84">
</g>
<g
   id="g86">
</g>
<g
   id="g88">
</g>
<g
   id="g90">
</g>
<g
   id="g92">
</g>
<g
   id="g94">
</g>
<g
   id="g96">
</g>
<g
   id="g98">
</g>
<g
   id="g100">
</g>
<g
   id="g102">
</g>
<g
   id="g104">
</g>
<g
   id="g106">
</g>
</svg>