<?xml version="1.0" encoding="UTF-8" standalone="no"?>
<!-- Generator: Adobe Illustrator 18.0.0, SVG Export Plug-In . SVG Version: 6.00 Build 0)  -->

<svg
   xmlns:dc="http://purl.org/dc/elements/1.1/"
   xmlns:cc="http://creativecommons.org/ns#"
   xmlns:rdf="http://www.w3.org/1999/02/22-rdf-syntax-ns#"
   xmlns:svg="http://www.w3.org/2000/svg"
   xmlns="http://www.w3.org/2000/svg"
   xmlns:xlink="http://www.w3.org/1999/xlink"
   xmlns:sodipodi="http://sodipodi.sourceforge.net/DTD/sodipodi-0.dtd"
   xmlns:inkscape="http://www.inkscape.org/namespaces/inkscape"
   version="1.1"
   id="Capa_1"
   x="0px"
   y="0px"
   viewBox="0 0 188.149 188.149"
   style="enable-background:new 0 0 188.149 188.149;"
   xml:space="preserve"
   sodipodi:docname="avatar_7.svg"
   inkscape:version="0.92.3 (2405546, 2018-03-11)"><metadata
   id="metadata71"><rdf:RDF><cc:Work
       rdf:about=""><dc:format>image/svg+xml</dc:format><dc:type
         rdf:resource="http://purl.org/dc/dcmitype/StillImage" /><dc:title></dc:title></cc:Work></rdf:RDF></metadata><defs
   id="defs69">
	

		<defs
   id="defs3">
			<circle
   id="SVGID_1_"
   cx="94.073997"
   cy="94.073997"
   r="94.073997" />
		</defs>
		
		<clipPath
   id="SVGID_2_">
			<use
   xlink:href="#SVGID_1_"
   style="overflow:visible"
   id="use7"
   x="0"
   y="0"
   width="100%"
   height="100%" />
		</clipPath>
		
		
		
		
		
		
		
		
	
			
		
			
			
		</defs><sodipodi:namedview
   pagecolor="#ffffff"
   bordercolor="#666666"
   borderopacity="1"
   objecttolerance="10"
   gridtolerance="10"
   guidetolerance="10"
   inkscape:pageopacity="0"
   inkscape:pageshadow="2"
   inkscape:window-width="1366"
   inkscape:window-height="706"
   id="namedview67"
   showgrid="false"
   inkscape:pagecheckerboard="true"
   inkscape:zoom="14.191068"
   inkscape:cx="72.677565"
   inkscape:cy="9.730629"
   inkscape:window-x="-8"
   inkscape:window-y="-8"
   inkscape:window-maximized="1"
   inkscape:current-layer="Capa_1" />
<use
   xlink:href="#SVGID_1_"
   style="overflow:visible;fill:#f3e4b2"
   id="use5"
   x="0"
   y="0"
   width="100%"
   height="100%" /><path
   style="fill:#ecc19c"
   d="M 135.973,52.784 V 84.05 c 0,0.452 -0.01,0.904 -0.021,1.356 -0.01,0.37 -0.02,0.73 -0.041,1.101 -0.01,0.329 -0.031,0.658 -0.062,0.987 -0.01,0.236 -0.031,0.473 -0.051,0.709 -0.011,0.145 -0.021,0.277 -0.042,0.422 -0.02,0.257 -0.041,0.524 -0.082,0.781 -0.041,0.493 -0.103,0.977 -0.175,1.47 -0.01,0.124 -0.031,0.247 -0.051,0.37 -0.031,0.247 -0.072,0.494 -0.113,0.74 v 0.031 c -0.061,0.359 -0.123,0.709 -0.185,1.069 -0.093,0.493 -0.185,0.987 -0.288,1.47 -0.01,0.021 -0.01,0.042 -0.02,0.063 -0.01,0.071 -0.021,0.144 -0.041,0.216 -0.01,0.021 -0.01,0.041 -0.021,0.062 -0.051,0.268 -0.113,0.524 -0.175,0.781 -0.02,0.113 -0.041,0.227 -0.082,0.34 -0.031,0.185 -0.083,0.369 -0.123,0.555 -0.031,0.103 -0.051,0.216 -0.093,0.318 -0.021,0.093 -0.051,0.186 -0.072,0.268 -0.216,0.843 -0.463,1.666 -0.72,2.488 -0.124,0.391 -0.247,0.771 -0.38,1.162 -0.01,0.041 -0.031,0.082 -0.041,0.123 -0.123,0.35 -0.247,0.699 -0.37,1.049 -0.041,0.103 -0.082,0.205 -0.123,0.318 -0.124,0.329 -0.247,0.658 -0.38,0.987 -0.154,0.4 -0.319,0.791 -0.483,1.183 -0.144,0.35 -0.298,0.698 -0.452,1.048 -0.02,0.063 -0.051,0.113 -0.072,0.175 -0.175,0.37 -0.339,0.74 -0.514,1.101 -0.175,0.38 -0.36,0.761 -0.555,1.142 -0.37,0.75 -0.771,1.501 -1.172,2.23 l -0.555,0.987 c -1.584,2.725 -3.341,5.284 -5.254,7.649 -0.257,0.339 -0.524,0.668 -0.802,0.986 -0.38,0.463 -0.771,0.915 -1.162,1.357 -0.35,0.391 -0.699,0.781 -1.059,1.162 -0.987,1.059 -1.995,2.066 -3.023,3.013 -0.206,0.205 -0.421,0.391 -0.637,0.586 -0.35,0.318 -0.699,0.627 -1.059,0.925 -0.277,0.247 -0.565,0.483 -0.854,0.72 -0.74,0.606 -1.48,1.192 -2.231,1.737 -0.308,0.237 -0.627,0.463 -0.946,0.679 -0.514,0.37 -1.039,0.72 -1.563,1.06 -0.288,0.195 -0.586,0.38 -0.884,0.555 -1.049,0.647 -2.108,1.244 -3.157,1.758 -0.257,0.134 -0.514,0.258 -0.771,0.381 -0.257,0.123 -0.524,0.247 -0.802,0.37 -0.339,0.154 -0.679,0.298 -1.018,0.432 -0.134,0.061 -0.267,0.113 -0.401,0.154 -0.401,0.165 -0.812,0.318 -1.213,0.452 -0.503,0.186 -1.018,0.34 -1.521,0.483 -0.35,0.103 -0.709,0.195 -1.059,0.277 -0.021,0.011 -0.041,0.021 -0.072,0.021 -0.35,0.083 -0.699,0.165 -1.049,0.227 -0.092,0.021 -0.185,0.041 -0.277,0.052 -0.288,0.051 -0.576,0.103 -0.864,0.134 -0.411,0.062 -0.823,0.113 -1.234,0.133 -0.144,0.021 -0.277,0.031 -0.421,0.031 -0.329,0.02 -0.658,0.031 -0.977,0.031 h -0.031 c -0.318,0 -0.637,-0.011 -0.956,-0.031 -0.123,0 -0.247,-0.01 -0.37,-0.031 -0.288,-0.01 -0.586,-0.041 -0.895,-0.082 -0.061,0 -0.133,-0.01 -0.195,-0.021 -0.38,-0.051 -0.761,-0.113 -1.151,-0.185 -0.329,-0.052 -0.658,-0.124 -0.998,-0.206 -1.758,-0.401 -3.567,-1.008 -5.397,-1.819 -1.563,-0.689 -3.146,-1.522 -4.719,-2.488 -0.791,-0.483 -1.583,-0.997 -2.365,-1.542 -0.391,-0.278 -0.781,-0.556 -1.172,-0.844 -1.224,-0.895 -2.437,-1.871 -3.629,-2.92 -0.329,-0.298 -0.658,-0.596 -0.987,-0.904 -0.329,-0.298 -0.658,-0.607 -0.977,-0.905 -0.802,-0.771 -1.583,-1.572 -2.344,-2.405 -0.298,-0.319 -0.596,-0.647 -0.895,-0.987 -0.822,-0.925 -1.624,-1.881 -2.385,-2.879 -0.298,-0.359 -0.576,-0.729 -0.853,-1.1 -1.039,-1.378 -2.025,-2.817 -2.951,-4.309 -0.247,-0.4 -0.494,-0.811 -0.73,-1.213 -0.288,-0.483 -0.565,-0.977 -0.843,-1.47 -1.028,-1.851 -1.974,-3.773 -2.796,-5.758 -0.124,-0.288 -0.247,-0.576 -0.35,-0.863 -0.164,-0.37 -0.308,-0.751 -0.442,-1.121 -0.206,-0.545 -0.401,-1.09 -0.586,-1.635 -0.185,-0.545 -0.36,-1.101 -0.535,-1.655 C 54.392,98.609 54.238,98.075 54.094,97.53 53.929,96.954 53.775,96.368 53.641,95.772 53.631,95.71 53.61,95.648 53.6,95.586 53.405,94.764 53.23,93.931 53.076,93.088 52.87,91.978 52.706,90.847 52.583,89.705 52.531,89.346 52.5,88.985 52.47,88.626 52.429,88.245 52.398,87.875 52.377,87.495 52.326,86.806 52.295,86.106 52.274,85.407 52.264,84.955 52.253,84.503 52.253,84.051 V 52.784 c 0,-23.103 18.722,-41.835 41.824,-41.855 h 0.042 c 3.187,0 6.292,0.359 9.273,1.028 2.725,0.616 5.347,1.501 7.834,2.621 3.393,1.521 6.549,3.476 9.387,5.81 2.386,1.953 4.555,4.153 6.447,6.58 5.511,7.022 8.831,15.844 8.903,25.446 0.01,0.123 0.01,0.246 0.01,0.37 z"
   clip-path="url(#SVGID_2_)"
   id="path10"
   inkscape:connector-curvature="0" /><path
   style="fill:#ecc19c"
   d="m 142.06876,174.92826 c -36.25825,-2.20749 -62.392853,0.56947 -95.919517,0.0996 4.785215,-5.39902 2.70266,-4.53 5.362757,-8.33691 0.658,-0.813 1.326,-1.605 2.015,-2.365 0.339,-0.391 0.699,-0.77 1.059,-1.151 0.359,-0.37 0.72,-0.74 1.089,-1.11 1.841,-1.841 3.814,-3.526 5.892,-5.079 1.038,-0.771 2.087,-1.491 3.177,-2.189 1.09,-0.689 2.2,-1.348 3.331,-1.964 0.021,-0.02 0.041,-0.02 0.041,-0.02 0.442,-0.237 0.874,-0.494 1.306,-0.761 1.285,-0.771 2.519,-1.625 3.691,-2.57 4.966,-3.948 8.811,-9.254 11.001,-15.34 1.306,-3.64 2.015,-7.557 2.015,-11.649 l 7.947,0.041 8.174,0.042 c 0,4.04 0.689,7.916 1.964,11.515 2.159,6.107 5.994,11.433 10.96,15.401 0.74,0.607 1.491,1.162 2.282,1.687 0.083,0.061 0.154,0.112 0.237,0.164 0.37,0.247 0.74,0.493 1.131,0.72 0.421,0.257 0.853,0.514 1.285,0.751 0.072,0.02 0.134,0.051 0.185,0.092 0.905,0.504 1.799,1.028 2.673,1.573 0.422,0.257 0.843,0.524 1.254,0.822 0.854,0.545 1.686,1.142 2.499,1.759 0,0.01 0.01,0.01 0.01,0.01 h 0.01 c 1.039,0.771 2.046,1.594 3.033,2.437 0.987,0.844 1.933,1.727 2.848,2.643 2.08807,2.59217 5.06293,5.06074 9.44776,12.77826 z"
   clip-path="url(#SVGID_2_)"
   id="path12"
   inkscape:connector-curvature="0"
   sodipodi:nodetypes="ccccccccccccccccccccccccccccccc" /><path
   style="fill:#eb6d4a"
   d="m 142.06876,174.92831 c -29.0385,17.30371 -65.870994,17.74703 -95.919517,0.0996 1.406411,-3.29553 3.098676,-5.28085 5.359757,-8.34196 0.658,-0.812 1.327,-1.604 2.015,-2.364 0.339,-0.391 0.699,-0.771 1.059,-1.151 0.36,-0.37 0.72,-0.74 1.09,-1.11 1.84,-1.841 3.814,-3.526 5.891,-5.079 1.039,-0.771 2.087,-1.491 3.177,-2.19 0.565,-0.359 1.131,-0.709 1.706,-1.048 0.535,-0.319 1.08,-0.628 1.625,-0.926 0.021,-0.021 0.041,-0.01 0.041,-0.01 v -0.011 c 0.442,-0.247 0.874,-0.493 1.306,-0.751 1.285,-0.781 2.519,-1.645 3.67,-2.591 0.01,0.011 0.01,0.011 0.021,0.021 5.326,5.449 12.739,8.832 20.964,8.853 h 0.083 c 8.225,0 15.668,-3.393 21.015,-8.842 l 0.01,-0.011 c 0.73,0.607 1.491,1.173 2.272,1.697 0.082,0.061 0.154,0.112 0.236,0.164 0.37,0.247 0.751,0.483 1.131,0.72 0.421,0.257 0.854,0.504 1.285,0.74 0.072,0.021 0.124,0.062 0.185,0.093 0.483,0.268 0.977,0.545 1.45,0.832 0.412,0.247 0.823,0.494 1.224,0.751 0.421,0.257 0.843,0.524 1.254,0.822 0.854,0.545 1.686,1.142 2.498,1.759 h 0.021 c 1.038,0.781 2.056,1.594 3.033,2.446 0.987,0.844 1.933,1.728 2.848,2.643 3.25088,3.73838 5.53885,4.94939 9.44976,12.78531 z"
   clip-path="url(#SVGID_2_)"
   id="path14"
   inkscape:connector-curvature="0"
   sodipodi:nodetypes="ccccccccccccccccscccccccccccccccc" /><path
   style="fill:#543e36"
   d="m 135.973,84.05 c 0,0.452 -0.01,0.904 -0.021,1.356 -0.01,0.37 -0.02,0.73 -0.041,1.101 -0.01,0.329 -0.031,0.658 -0.062,0.987 -0.01,0.236 -0.031,0.473 -0.051,0.709 -0.011,0.145 -0.021,0.277 -0.042,0.422 -0.02,0.257 -0.041,0.524 -0.082,0.781 -0.052,0.493 -0.103,0.986 -0.175,1.47 -0.01,0.124 -0.031,0.247 -0.051,0.37 -0.031,0.247 -0.072,0.494 -0.113,0.74 -0.051,0.37 -0.123,0.74 -0.185,1.101 -0.082,0.432 -0.165,0.853 -0.257,1.274 -0.011,0.093 -0.031,0.175 -0.052,0.258 -0.01,0.071 -0.031,0.144 -0.041,0.216 -0.01,0.021 -0.01,0.041 -0.021,0.062 0,0.051 -0.01,0.093 -0.02,0.134 -0.051,0.216 -0.093,0.432 -0.154,0.647 -0.02,0.113 -0.041,0.227 -0.082,0.34 -0.042,0.205 -0.093,0.4 -0.154,0.596 -0.01,0.093 -0.031,0.186 -0.062,0.277 -0.021,0.093 -0.051,0.186 -0.072,0.268 -0.216,0.843 -0.463,1.666 -0.72,2.488 -0.124,0.391 -0.247,0.771 -0.38,1.162 -0.01,0.041 -0.031,0.082 -0.041,0.123 -0.123,0.35 -0.247,0.699 -0.37,1.049 -0.041,0.103 -0.082,0.205 -0.123,0.318 -0.124,0.329 -0.247,0.658 -0.38,0.987 -0.154,0.4 -0.319,0.791 -0.483,1.183 -0.144,0.35 -0.298,0.698 -0.452,1.048 -0.02,0.063 -0.051,0.113 -0.072,0.175 -0.175,0.37 -0.339,0.74 -0.514,1.101 -0.175,0.38 -0.36,0.761 -0.555,1.142 -0.37,0.75 -0.771,1.501 -1.172,2.23 l -0.555,0.987 c -1.584,2.725 -3.341,5.284 -5.254,7.649 -0.257,0.339 -0.524,0.668 -0.802,0.986 -0.38,0.463 -0.771,0.915 -1.162,1.357 -0.35,0.391 -0.699,0.781 -1.059,1.162 -0.987,1.059 -1.995,2.066 -3.023,3.013 -0.206,0.205 -0.421,0.391 -0.637,0.586 -0.35,0.318 -0.699,0.627 -1.059,0.925 -0.277,0.247 -0.565,0.483 -0.854,0.72 -0.74,0.606 -1.48,1.192 -2.231,1.737 -0.308,0.237 -0.627,0.463 -0.946,0.679 -0.514,0.37 -1.039,0.72 -1.563,1.06 -0.288,0.195 -0.586,0.38 -0.884,0.555 -1.049,0.647 -2.108,1.244 -3.157,1.758 -0.257,0.134 -0.514,0.258 -0.771,0.381 -0.257,0.123 -0.524,0.247 -0.802,0.37 -0.339,0.154 -0.679,0.298 -1.018,0.432 -0.134,0.061 -0.267,0.113 -0.401,0.154 -0.401,0.165 -0.812,0.318 -1.213,0.452 -0.503,0.186 -1.018,0.34 -1.521,0.483 -0.35,0.103 -0.709,0.195 -1.059,0.277 -0.021,0.011 -0.041,0.021 -0.072,0.021 -0.35,0.083 -0.699,0.165 -1.049,0.227 -0.092,0.021 -0.185,0.041 -0.277,0.052 -0.288,0.051 -0.576,0.103 -0.864,0.134 -0.411,0.062 -0.823,0.113 -1.234,0.133 -0.144,0.021 -0.277,0.031 -0.421,0.031 -0.329,0.02 -0.658,0.031 -0.977,0.031 h -0.031 c -0.318,0 -0.637,-0.011 -0.956,-0.031 -0.123,0 -0.247,-0.01 -0.37,-0.031 -0.288,-0.01 -0.586,-0.041 -0.895,-0.082 -0.061,0 -0.133,-0.01 -0.195,-0.021 -0.38,-0.051 -0.761,-0.113 -1.151,-0.185 -0.329,-0.052 -0.658,-0.124 -0.998,-0.206 -1.758,-0.401 -3.567,-1.008 -5.397,-1.819 -1.563,-0.689 -3.146,-1.522 -4.719,-2.488 -0.791,-0.473 -1.573,-0.987 -2.365,-1.542 -0.391,-0.278 -0.781,-0.556 -1.172,-0.844 -1.224,-0.895 -2.437,-1.871 -3.629,-2.92 -0.329,-0.298 -0.658,-0.596 -0.987,-0.904 -0.329,-0.298 -0.658,-0.607 -0.977,-0.905 -0.802,-0.771 -1.583,-1.572 -2.344,-2.405 -0.298,-0.319 -0.596,-0.647 -0.895,-0.987 -0.822,-0.925 -1.624,-1.881 -2.385,-2.879 -0.298,-0.359 -0.576,-0.729 -0.853,-1.1 -1.039,-1.378 -2.025,-2.817 -2.951,-4.309 -0.247,-0.4 -0.494,-0.811 -0.73,-1.213 -0.288,-0.483 -0.565,-0.977 -0.843,-1.47 -1.028,-1.851 -1.974,-3.773 -2.796,-5.758 -0.124,-0.288 -0.247,-0.576 -0.35,-0.863 -0.164,-0.37 -0.308,-0.751 -0.442,-1.121 -0.206,-0.545 -0.401,-1.09 -0.586,-1.635 -0.185,-0.545 -0.36,-1.101 -0.535,-1.655 C 54.392,98.609 54.238,98.075 54.094,97.53 53.929,96.954 53.775,96.368 53.641,95.772 53.631,95.71 53.61,95.648 53.6,95.586 53.405,94.764 53.23,93.931 53.076,93.088 52.87,91.978 52.706,90.847 52.583,89.705 52.531,89.346 52.5,88.985 52.47,88.626 52.429,88.245 52.398,87.875 52.377,87.495 52.326,86.806 52.295,86.106 52.274,85.407 52.264,84.955 52.253,84.503 52.253,84.051 l 6.683,13.14 11.484,5.007 13.58,1.222 h 0.01 l 10.065,0.915 h 0.062 l 9.417,0.853 c 0,0 0,-0.01 0.01,0 l 21.005,1.893 z"
   clip-path="url(#SVGID_2_)"
   id="path16"
   inkscape:connector-curvature="0" /><path
   inkscape:connector-curvature="0"
   id="path18"
   d="m 94.159,90.651 -0.01,10.127 v 0.01 l -0.01,3.548 v 2.786 l -0.01,9.253 v 0.011 l -0.01,-0.011 h -0.01 L 94.078,116.354 53.64,95.771 c -0.01,-0.062 -0.031,-0.124 -0.041,-0.186 -0.195,-0.822 -0.37,-1.655 -0.524,-2.498 -0.206,-1.11 -0.37,-2.241 -0.493,-3.383 -0.052,-0.359 -0.083,-0.72 -0.113,-1.079 -0.041,-0.381 -0.072,-0.751 -0.093,-1.131 -0.051,-0.689 -0.082,-1.389 -0.103,-2.088 -0.01,-0.452 -0.021,-0.904 -0.021,-1.356 V 71.764 c 0,0.175 0.01,0.35 0.01,0.524 0.082,2.971 0.555,6.24 1.47,9.582 0.71,2.57 1.593,4.945 2.622,7.063 v 0.01 c 2.694,5.604 6.303,9.407 9.623,10.024 0.206,0.031 0.421,0.052 0.627,0.072 1.285,0.144 2.632,0.226 4.02,0.226 5.244,0 9.901,-4.215 12.831,-5.922 0.021,-0.01 0.041,-0.021 0.062,-0.03 0.154,-0.093 0.308,-0.186 0.442,-0.278 0.041,-0.03 0.082,-0.051 0.124,-0.071 2.467,-1.409 6.025,-2.304 9.993,-2.313 z"
   style="fill:#543e36" /><path
   inkscape:connector-curvature="0"
   id="path20"
   d="m 135.981,71.759 -0.01,12.286 c 0,3.084 -0.288,6.107 -0.822,9.037 -0.216,1.172 -0.463,2.334 -0.751,3.485 l -9.49,13.705 -30.783,6.097 h -0.01 l -0.01,0.011 v -0.011 L 94.074,90.641 h 0.083 c 3.968,0.011 7.536,0.905 10.003,2.313 0.042,0.021 0.072,0.041 0.113,0.072 0.144,0.092 0.298,0.185 0.453,0.277 0.01,0.01 0.031,0.021 0.051,0.031 2.94,1.706 7.587,5.925 12.831,5.925 1.388,0 2.735,-0.082 4.02,-0.226 0.216,-0.021 0.421,-0.041 0.637,-0.072 3.311,-0.617 6.93,-4.421 9.613,-10.024 v -0.01 c 1.028,-2.118 1.912,-4.493 2.622,-7.063 0.925,-3.394 1.409,-6.704 1.47,-9.716 0.011,-0.132 0.011,-0.256 0.011,-0.389 z"
   style="fill:#543e36" /><ellipse
   style="fill:#ecc19c"
   cx="94.108002"
   cy="103.95"
   rx="10.255"
   ry="3.171"
   clip-path="url(#SVGID_2_)"
   id="ellipse24" /><path
   style="fill:#543e36"
   d="m 94.116,10.929 h -0.04 C 70.974,10.95 52.252,29.682 52.252,52.784 V 71.24 c 0,0 1.737,-11.012 6.416,-16.358 5.079,-5.809 3.794,-14.641 15.186,-14.641 7.351,0 7.762,2.714 20.213,2.714 h 0.01 0.04 0.01 c 12.451,0 12.862,-2.714 20.213,-2.714 11.392,0 10.106,8.831 15.186,14.641 4.678,5.346 6.415,16.358 6.415,16.358 V 52.784 C 135.94,29.682 117.218,10.949 94.116,10.929 Z"
   clip-path="url(#SVGID_2_)"
   id="path26"
   inkscape:connector-curvature="0" /><path
   inkscape:connector-curvature="0"
   id="path28"
   d="m 121.74,153.721 -1.131,1.152 c -7.053,7.186 -16.471,11.145 -26.516,11.145 -10.147,-0.021 -19.545,-3.989 -26.567,-11.165 l -1.08,-1.11 c 0.535,-0.319 1.08,-0.628 1.625,-0.926 0.021,-0.021 0.041,-0.01 0.041,-0.01 v -0.011 c 0.442,-0.247 0.874,-0.493 1.306,-0.751 1.285,-0.781 2.519,-1.645 3.67,-2.591 0.01,0.011 0.01,0.011 0.021,0.021 5.326,5.449 12.739,8.832 20.964,8.853 h 0.083 c 8.225,0 15.668,-3.393 21.015,-8.842 l 0.01,-0.011 c 0.73,0.607 1.491,1.173 2.272,1.697 0.082,0.061 0.154,0.112 0.236,0.164 0.37,0.247 0.751,0.483 1.131,0.72 0.421,0.257 0.854,0.504 1.285,0.74 0.072,0.021 0.124,0.062 0.185,0.093 0.484,0.268 0.977,0.545 1.45,0.832 z"
   style="fill:#c34628" />
<g
   id="g36">
</g>
<g
   id="g38">
</g>
<g
   id="g40">
</g>
<g
   id="g42">
</g>
<g
   id="g44">
</g>
<g
   id="g46">
</g>
<g
   id="g48">
</g>
<g
   id="g50">
</g>
<g
   id="g52">
</g>
<g
   id="g54">
</g>
<g
   id="g56">
</g>
<g
   id="g58">
</g>
<g
   id="g60">
</g>
<g
   id="g62">
</g>
<g
   id="g64">
</g>
</svg>