<?xml version="1.0" encoding="UTF-8" standalone="no"?>
<!-- Generator: Adobe Illustrator 18.0.0, SVG Export Plug-In . SVG Version: 6.00 Build 0)  -->

<svg
   xmlns:dc="http://purl.org/dc/elements/1.1/"
   xmlns:cc="http://creativecommons.org/ns#"
   xmlns:rdf="http://www.w3.org/1999/02/22-rdf-syntax-ns#"
   xmlns:svg="http://www.w3.org/2000/svg"
   xmlns="http://www.w3.org/2000/svg"
   xmlns:xlink="http://www.w3.org/1999/xlink"
   xmlns:sodipodi="http://sodipodi.sourceforge.net/DTD/sodipodi-0.dtd"
   xmlns:inkscape="http://www.inkscape.org/namespaces/inkscape"
   version="1.1"
   id="Capa_1"
   x="0px"
   y="0px"
   viewBox="0 0 188.149 188.149"
   style="enable-background:new 0 0 188.149 188.149;"
   xml:space="preserve"
   sodipodi:docname="avatar_5.svg"
   inkscape:version="0.92.3 (2405546, 2018-03-11)"><metadata
   id="metadata65"><rdf:RDF><cc:Work
       rdf:about=""><dc:format>image/svg+xml</dc:format><dc:type
         rdf:resource="http://purl.org/dc/dcmitype/StillImage" /></cc:Work></rdf:RDF></metadata><defs
   id="defs63">
	<defs
   id="defs3">
		<circle
   r="94.074"
   cy="94.074"
   cx="94.074"
   id="SVGID_1_" />
	</defs>
	
	<clipPath
   id="SVGID_2_">
		<use
   id="use7"
   style="overflow:visible;"
   xlink:href="#SVGID_1_" />
	</clipPath>
	

		
	
			
			
			
			
			
			
			
		</defs><sodipodi:namedview
   pagecolor="#ffffff"
   bordercolor="#666666"
   borderopacity="1"
   objecttolerance="10"
   gridtolerance="10"
   guidetolerance="10"
   inkscape:pageopacity="0"
   inkscape:pageshadow="2"
   inkscape:window-width="1366"
   inkscape:window-height="706"
   id="namedview61"
   showgrid="false"
   inkscape:zoom="1.7738834"
   inkscape:cx="71.114192"
   inkscape:cy="103.81549"
   inkscape:window-x="-8"
   inkscape:window-y="-8"
   inkscape:window-maximized="1"
   inkscape:current-layer="Capa_1" />
<use
   height="100%"
   width="100%"
   y="0"
   x="0"
   id="use5"
   style="overflow:visible;fill:#e1854f"
   xlink:href="#SVGID_1_" /><path
   inkscape:connector-curvature="0"
   id="path10"
   d="m 142.1135,174.96222 c -35.72723,-1.67131 -59.934896,0.26969 -96.103202,-0.0187 C 51.478,166.696 48.74705,171.41885 51.478,166.696 c 0.658,-0.813 1.326,-1.604 2.015,-2.364 0.339,-0.392 0.699,-0.771 1.059,-1.152 0.36,-0.37 0.72,-0.74 1.09,-1.11 1.84,-1.84 3.814,-3.526 5.891,-5.079 1.039,-0.771 2.087,-1.49 3.177,-2.189 0.462,-0.298 0.935,-0.586 1.408,-0.863 0.277,-0.165 0.545,-0.329 0.822,-0.494 0.124,-0.062 0.237,-0.123 0.36,-0.195 0.247,-0.144 0.493,-0.277 0.74,-0.411 0.021,-0.02 0.041,-0.02 0.041,-0.02 0.442,-0.236 0.873,-0.493 1.306,-0.761 1.285,-0.771 2.519,-1.624 3.691,-2.57 1.717,-1.367 3.311,-2.899 4.74,-4.575 1.285,-1.501 2.447,-3.115 3.455,-4.832 1.121,-1.871 2.066,-3.855 2.807,-5.933 0.37,-1.049 0.699,-2.118 0.967,-3.218 0.206,-0.771 0.37,-1.553 0.514,-2.345 0.349,-1.974 0.534,-4.01 0.534,-6.086 l 7.948,0.041 h 0.041 l 1.388,0.01 6.744,0.031 c 0,2.035 0.175,4.03 0.514,5.974 0.134,0.802 0.309,1.594 0.514,2.375 0.257,1.079 0.576,2.139 0.936,3.166 0.74,2.098 1.676,4.103 2.796,5.984 0.915,1.563 1.954,3.033 3.105,4.421 1.501,1.84 3.198,3.506 5.059,4.996 0.391,0.319 0.781,0.628 1.183,0.915 0.359,0.268 0.729,0.524 1.1,0.771 0.082,0.062 0.154,0.113 0.236,0.164 0.37,0.247 0.74,0.494 1.131,0.72 0.421,0.258 0.854,0.515 1.285,0.751 0.072,0.02 0.134,0.052 0.185,0.093 0.905,0.504 1.799,1.028 2.673,1.573 0.422,0.257 0.843,0.524 1.255,0.822 0.853,0.545 1.686,1.141 2.498,1.758 0,0.011 0.011,0.011 0.011,0.011 h 0.01 c 1.039,0.771 2.046,1.593 3.033,2.437 0.987,0.843 1.933,1.728 2.848,2.643 3.99178,4.23065 4.87469,5.18471 9.5255,12.80722 z"
   style="fill:#ecc19c"
   sodipodi:nodetypes="cccccsccccccccccccccccccccccccccccccccccccccc" /><path
   inkscape:connector-curvature="0"
   id="path12"
   d="m 142.1135,174.96222 c -30.55798,18.14806 -67.048111,17.01023 -96.103202,-0.0187 2.040736,-4.6348 3.981576,-6.34899 5.467702,-8.24752 0.658,-0.813 1.326,-1.604 2.015,-2.364 0.339,-0.392 0.699,-0.771 1.059,-1.152 0.36,-0.37 0.72,-0.74 1.09,-1.11 1.84,-1.84 3.814,-3.526 5.891,-5.079 1.039,-0.771 2.087,-1.49 3.177,-2.189 0.462,-0.298 0.935,-0.586 1.408,-0.863 0.277,-0.165 0.545,-0.329 0.822,-0.494 0.124,-0.062 0.237,-0.123 0.36,-0.195 0.247,-0.144 0.493,-0.288 0.74,-0.421 0.021,-0.021 0.041,-0.011 0.041,-0.011 v -0.01 c 0.442,-0.247 0.873,-0.494 1.306,-0.751 1.285,-0.781 2.519,-1.646 3.67,-2.591 l 0.021,0.021 c 5.326,5.449 12.739,8.832 20.964,8.853 h 0.082 c 0.453,0 0.905,-0.011 1.347,-0.041 7.69,-0.34 14.62,-3.65 19.668,-8.802 l 0.01,-0.01 c 0.73,0.606 1.491,1.172 2.272,1.696 0.082,0.062 0.154,0.113 0.236,0.164 0.37,0.247 0.75,0.483 1.131,0.72 0.421,0.258 0.854,0.504 1.285,0.741 0.072,0.021 0.124,0.062 0.185,0.092 0.905,0.504 1.799,1.028 2.673,1.584 0.422,0.257 0.843,0.524 1.255,0.822 0.853,0.545 1.686,1.141 2.498,1.758 h 0.021 c 1.039,0.781 2.056,1.594 3.033,2.447 0.987,0.843 1.933,1.728 2.848,2.643 4.133,4.28831 6.18905,6.48588 9.5275,12.80822 z"
   style="fill:#5ab7b2"
   sodipodi:nodetypes="cccccsccccccccccccsccccccccccccccc" /><path
   inkscape:connector-curvature="0"
   id="path14"
   d="m 110.925,135.585 v 6.262 c 0,0.986 -0.309,1.901 -0.843,2.652 -0.833,1.213 -2.231,2.005 -3.814,2.005 H 81.314 c -1.398,0 -2.652,-0.617 -3.496,-1.594 -0.72,-0.822 -1.162,-1.892 -1.162,-3.063 v -6.262 c 0,-1.769 0.987,-3.311 2.437,-4.092 0.658,-0.36 1.419,-0.566 2.221,-0.566 h 24.953 c 0.926,0 1.779,0.267 2.498,0.74 1.296,0.814 2.16,2.273 2.16,3.918 z"
   style="fill:#5ab7b2" /><path
   inkscape:connector-curvature="0"
   id="path16"
   d="m 116.323,150.41 v 13.654 H 66.119 v -10.127 c 0.277,-0.165 0.545,-0.329 0.822,-0.494 0.124,-0.062 0.237,-0.123 0.36,-0.195 0.247,-0.144 0.493,-0.277 0.74,-0.411 0.021,-0.02 0.041,-0.02 0.041,-0.02 0.442,-0.236 0.873,-0.493 1.306,-0.761 1.285,-0.771 2.519,-1.624 3.691,-2.57 1.717,-1.367 3.311,-2.899 4.74,-4.575 1.285,-1.501 2.447,-3.115 3.455,-4.832 h 25.703 c 0.915,1.563 1.954,3.033 3.105,4.421 1.501,1.84 3.198,3.506 5.059,4.996 0.39,0.319 0.78,0.627 1.182,0.914 z"
   style="fill:#5ab7b2" /><path
   inkscape:connector-curvature="0"
   id="path18"
   d="m 149.244,70.114 c 0,22.557 -11.772,42.174 -29.097,52.147 -5.336,3.084 -11.206,5.243 -17.417,6.292 -2.375,0.411 -4.801,0.647 -7.258,0.709 -0.463,0.011 -0.925,0.02 -1.388,0.02 h -0.01 c -2.899,0 -5.737,-0.236 -8.513,-0.699 -6.262,-1.038 -12.163,-3.207 -17.54,-6.313 -17.324,-9.962 -29.107,-29.59 -29.107,-52.157 0,-31.862 23.462,-57.843 52.867,-59.118 0.041,-0.01 0.072,-0.01 0.113,-0.01 0.288,-0.01 0.576,-0.021 0.864,-0.031 0.432,-0.01 0.853,-0.02 1.285,-0.02 h 0.041 c 0.442,0 0.884,0.01 1.326,0.02 h 0.093 c 0.308,0.01 0.617,0.021 0.925,0.041 h 0.031 c 0.144,0.01 0.288,0.021 0.432,0.031 0.175,0.01 0.35,0.021 0.524,0.031 28.911,1.861 51.829,27.575 51.829,59.057 z"
   style="fill:#141720" /><path
   inkscape:connector-curvature="0"
   id="path20"
   d="m 135.939,52.789 v 31.266 c 0,0.453 -0.01,0.905 -0.02,1.357 -0.01,0.37 -0.021,0.73 -0.042,1.1 -0.01,0.329 -0.031,0.658 -0.062,0.987 -0.01,0.236 -0.031,0.473 -0.051,0.71 -0.01,0.144 -0.02,0.278 -0.041,0.421 -0.021,0.257 -0.042,0.524 -0.083,0.781 -0.041,0.494 -0.103,0.977 -0.175,1.471 -0.01,0.123 -0.031,0.247 -0.051,0.37 -0.031,0.247 -0.072,0.493 -0.113,0.74 v 0.031 c -0.062,0.36 -0.123,0.709 -0.185,1.069 -0.092,0.493 -0.185,0.987 -0.288,1.47 -0.01,0.021 -0.01,0.041 -0.021,0.062 -0.01,0.072 -0.02,0.144 -0.041,0.216 -0.01,0.021 -0.01,0.041 -0.02,0.062 -0.051,0.267 -0.113,0.524 -0.175,0.781 -0.021,0.113 -0.041,0.226 -0.082,0.339 -0.031,0.185 -0.082,0.37 -0.124,0.555 -0.031,0.103 -0.051,0.216 -0.092,0.318 -0.021,0.093 -0.052,0.186 -0.072,0.268 -0.216,0.843 -0.462,1.665 -0.72,2.488 -0.123,0.391 -0.247,0.771 -0.38,1.162 -0.01,0.041 -0.031,0.082 -0.041,0.124 -0.124,0.349 -0.247,0.699 -0.37,1.048 -0.041,0.103 -0.082,0.205 -0.124,0.319 -0.123,0.329 -0.247,0.658 -0.38,0.987 -0.154,0.401 -0.319,0.792 -0.483,1.183 -0.144,0.35 -0.298,0.699 -0.452,1.049 -0.021,0.062 -0.051,0.113 -0.072,0.175 -0.175,0.37 -0.339,0.74 -0.514,1.1 -0.175,0.38 -0.36,0.761 -0.555,1.141 -0.37,0.751 -0.771,1.501 -1.172,2.231 l -0.556,0.987 c -1.583,2.725 -3.341,5.285 -5.253,7.649 -0.257,0.34 -0.524,0.668 -0.802,0.987 -0.381,0.463 -0.771,0.915 -1.162,1.356 -0.329,0.371 -0.668,0.751 -1.018,1.111 -0.01,0.021 -0.021,0.03 -0.041,0.051 -0.987,1.06 -1.995,2.066 -3.022,3.013 -0.206,0.205 -0.421,0.391 -0.638,0.586 -0.35,0.318 -0.699,0.627 -1.059,0.926 -0.278,0.246 -0.566,0.483 -0.853,0.719 -0.74,0.607 -1.481,1.193 -2.231,1.738 -0.309,0.236 -0.627,0.463 -0.946,0.679 -0.514,0.37 -1.038,0.72 -1.563,1.059 -0.288,0.195 -0.586,0.381 -0.884,0.556 -0.051,0.03 -0.093,0.062 -0.144,0.082 -0.997,0.616 -2.015,1.182 -3.012,1.676 -0.257,0.134 -0.514,0.257 -0.771,0.38 -0.257,0.124 -0.524,0.247 -0.802,0.37 -0.339,0.154 -0.678,0.299 -1.018,0.432 -0.133,0.063 -0.267,0.113 -0.401,0.154 -0.401,0.165 -0.812,0.319 -1.213,0.453 -0.504,0.185 -1.018,0.339 -1.521,0.483 -0.35,0.103 -0.71,0.195 -1.059,0.277 -0.021,0.01 -0.041,0.021 -0.072,0.021 -0.35,0.082 -0.699,0.164 -1.048,0.226 -0.093,0.021 -0.186,0.042 -0.278,0.052 -0.288,0.052 -0.576,0.102 -0.864,0.134 -0.411,0.062 -0.822,0.113 -1.233,0.134 -0.144,0.021 -0.278,0.03 -0.422,0.03 -0.329,0.02 -0.647,0.031 -0.966,0.031 h -0.041 c -0.319,0 -0.638,-0.011 -0.956,-0.031 -0.124,0 -0.247,-0.01 -0.371,-0.03 -0.288,-0.011 -0.586,-0.041 -0.895,-0.082 -0.062,0 -0.133,-0.011 -0.195,-0.021 -0.381,-0.052 -0.761,-0.113 -1.152,-0.186 -0.329,-0.052 -0.658,-0.123 -0.997,-0.205 -1.758,-0.401 -3.568,-1.008 -5.398,-1.82 -1.563,-0.689 -3.146,-1.521 -4.719,-2.488 -0.093,-0.051 -0.175,-0.113 -0.268,-0.164 -0.699,-0.432 -1.409,-0.895 -2.098,-1.378 -0.391,-0.277 -0.781,-0.556 -1.172,-0.843 -1.224,-0.895 -2.436,-1.871 -3.629,-2.92 -0.329,-0.299 -0.658,-0.597 -0.987,-0.905 -0.329,-0.298 -0.658,-0.606 -0.977,-0.904 -0.761,-0.73 -1.501,-1.48 -2.21,-2.272 -0.051,-0.041 -0.092,-0.093 -0.133,-0.134 -0.298,-0.318 -0.596,-0.647 -0.895,-0.987 -0.823,-0.925 -1.625,-1.881 -2.385,-2.878 -0.298,-0.36 -0.576,-0.73 -0.854,-1.101 -1.039,-1.378 -2.025,-2.817 -2.951,-4.308 -0.247,-0.401 -0.494,-0.813 -0.73,-1.213 -0.288,-0.483 -0.565,-0.977 -0.843,-1.47 -1.028,-1.851 -1.974,-3.773 -2.796,-5.757 -0.123,-0.288 -0.247,-0.576 -0.35,-0.864 -0.165,-0.37 -0.309,-0.75 -0.442,-1.121 -0.206,-0.545 -0.401,-1.09 -0.587,-1.635 -0.185,-0.545 -0.359,-1.1 -0.534,-1.655 -0.165,-0.535 -0.319,-1.069 -0.463,-1.614 -0.165,-0.576 -0.319,-1.162 -0.452,-1.758 -0.01,-0.062 -0.031,-0.123 -0.042,-0.185 -0.195,-0.822 -0.37,-1.655 -0.524,-2.498 -0.205,-1.111 -0.37,-2.242 -0.493,-3.383 -0.052,-0.36 -0.083,-0.72 -0.113,-1.08 -0.041,-0.38 -0.072,-0.751 -0.092,-1.131 -0.052,-0.689 -0.083,-1.388 -0.103,-2.087 -0.01,-0.453 -0.021,-0.905 -0.021,-1.357 V 52.789 c 0,-22.341 17.509,-40.601 39.563,-41.794 0.041,-0.01 0.072,-0.01 0.113,-0.01 0.288,-0.01 0.576,-0.021 0.864,-0.031 0.432,-0.01 0.853,-0.02 1.285,-0.02 h 0.041 c 0.442,0 0.884,0.01 1.326,0.02 h 0.093 c 0.308,0.01 0.617,0.021 0.925,0.041 h 0.031 c 0.144,0.01 0.288,0.021 0.432,0.031 0.309,0.021 0.617,0.041 0.915,0.072 0.154,0.01 0.298,0.021 0.453,0.041 0.103,0.01 0.195,0.021 0.298,0.031 1.635,0.175 3.239,0.442 4.802,0.792 2.725,0.617 5.346,1.501 7.834,2.622 3.393,1.522 6.549,3.475 9.387,5.809 2.385,1.954 4.555,4.154 6.446,6.58 5.511,7.022 8.831,15.844 8.904,25.446 0.009,0.124 0.009,0.247 0.009,0.37 z"
   style="fill:#ecc19c" /><path
   inkscape:connector-curvature="0"
   id="path22"
   d="M 145.275,68.283 H 42.893 c 0,-30.813 21.684,-55.941 48.888,-57.288 0.041,-0.01 0.072,-0.01 0.113,-0.01 0.288,-0.01 0.576,-0.021 0.864,-0.031 0.432,-0.01 0.853,-0.02 1.285,-0.02 h 0.041 c 0.442,0 0.884,0.01 1.326,0.02 h 0.093 c 0.308,0.01 0.617,0.021 0.925,0.041 h 0.031 c 0.144,0.01 0.288,0.021 0.432,0.031 0.175,0.01 0.35,0.021 0.524,0.031 0.124,0.01 0.257,0.021 0.391,0.042 0.154,0.01 0.298,0.021 0.453,0.041 0.103,0.01 0.195,0.021 0.298,0.031 26.175,2.529 46.718,27.132 46.718,57.112 z"
   style="fill:#141720" />
<g
   id="g30">
</g>
<g
   id="g32">
</g>
<g
   id="g34">
</g>
<g
   id="g36">
</g>
<g
   id="g38">
</g>
<g
   id="g40">
</g>
<g
   id="g42">
</g>
<g
   id="g44">
</g>
<g
   id="g46">
</g>
<g
   id="g48">
</g>
<g
   id="g50">
</g>
<g
   id="g52">
</g>
<g
   id="g54">
</g>
<g
   id="g56">
</g>
<g
   id="g58">
</g>
</svg>