<?xml version="1.0" encoding="UTF-8" standalone="no"?>
<!-- Generator: Adobe Illustrator 18.0.0, SVG Export Plug-In . SVG Version: 6.00 Build 0)  -->

<svg
   xmlns:dc="http://purl.org/dc/elements/1.1/"
   xmlns:cc="http://creativecommons.org/ns#"
   xmlns:rdf="http://www.w3.org/1999/02/22-rdf-syntax-ns#"
   xmlns:svg="http://www.w3.org/2000/svg"
   xmlns="http://www.w3.org/2000/svg"
   xmlns:xlink="http://www.w3.org/1999/xlink"
   xmlns:sodipodi="http://sodipodi.sourceforge.net/DTD/sodipodi-0.dtd"
   xmlns:inkscape="http://www.inkscape.org/namespaces/inkscape"
   version="1.1"
   id="Capa_1"
   x="0px"
   y="0px"
   viewBox="0 0 188.148 188.148"
   style="enable-background:new 0 0 188.148 188.148;"
   xml:space="preserve"
   sodipodi:docname="avatar_9.svg"
   inkscape:version="0.92.3 (2405546, 2018-03-11)"><metadata
   id="metadata95"><rdf:RDF><cc:Work
       rdf:about=""><dc:format>image/svg+xml</dc:format><dc:type
         rdf:resource="http://purl.org/dc/dcmitype/StillImage" /></cc:Work></rdf:RDF></metadata><defs
   id="defs93">
	

		<defs
   id="defs3">
			<circle
   id="SVGID_1_"
   cx="94.073997"
   cy="94.073997"
   r="94.073997" />
		</defs>
		
		<clipPath
   id="SVGID_2_">
			<use
   xlink:href="#SVGID_1_"
   style="overflow:visible"
   id="use7"
   x="0"
   y="0"
   width="100%"
   height="100%" />
		</clipPath>
		
		
		
		
		
		
		
		
		
		
		
		
		
	
			
			
		
			
			
		
			
			
		
				
				
			
				
				
			</defs><sodipodi:namedview
   pagecolor="#ffffff"
   bordercolor="#666666"
   borderopacity="1"
   objecttolerance="10"
   gridtolerance="10"
   guidetolerance="10"
   inkscape:pageopacity="0"
   inkscape:pageshadow="2"
   inkscape:window-width="1366"
   inkscape:window-height="706"
   id="namedview91"
   showgrid="false"
   inkscape:zoom="45.254834"
   inkscape:cx="92.01987"
   inkscape:cy="2.0828855"
   inkscape:window-x="-8"
   inkscape:window-y="-8"
   inkscape:window-maximized="1"
   inkscape:current-layer="Capa_1" />
<use
   xlink:href="#SVGID_1_"
   style="overflow:visible;fill:#eb6d4a"
   id="use5"
   x="0"
   y="0"
   width="100%"
   height="100%" /><path
   style="fill:#ecc19c"
   d="M 135.938,52.784 V 84.05 c 0,0.453 -0.011,0.905 -0.021,1.357 -0.02,0.936 -0.072,1.871 -0.154,2.796 -0.02,0.319 -0.052,0.637 -0.093,0.956 -0.134,1.326 -0.318,2.632 -0.555,3.928 -0.083,0.432 -0.165,0.853 -0.258,1.275 -0.01,0.092 -0.03,0.175 -0.051,0.257 -0.083,0.432 -0.186,0.854 -0.288,1.275 -0.041,0.226 -0.103,0.452 -0.154,0.679 -0.052,0.195 -0.103,0.391 -0.164,0.586 -0.217,0.843 -0.463,1.666 -0.721,2.488 -0.123,0.391 -0.246,0.771 -0.38,1.162 -0.011,0.041 -0.031,0.082 -0.041,0.123 -0.124,0.349 -0.247,0.699 -0.37,1.048 -0.041,0.103 -0.082,0.205 -0.124,0.319 -0.123,0.329 -0.246,0.658 -0.38,0.987 -0.154,0.401 -0.318,0.792 -0.483,1.183 -0.144,0.35 -0.298,0.699 -0.452,1.049 -0.02,0.062 -0.052,0.113 -0.072,0.174 -0.175,0.37 -0.339,0.741 -0.514,1.1 -0.175,0.38 -0.36,0.761 -0.556,1.142 -0.37,0.75 -0.771,1.501 -1.172,2.231 -0.185,0.329 -0.37,0.658 -0.556,0.987 -1.583,2.725 -3.341,5.285 -5.253,7.649 -0.258,0.339 -0.524,0.668 -0.802,0.987 -0.381,0.462 -0.772,0.915 -1.162,1.357 -0.35,0.391 -0.699,0.781 -1.059,1.162 -0.987,1.059 -1.995,2.067 -3.023,3.013 -0.205,0.206 -0.422,0.391 -0.638,0.586 -0.349,0.319 -0.698,0.627 -1.059,0.925 -0.277,0.247 -0.565,0.483 -0.854,0.72 -0.74,0.606 -1.48,1.192 -2.23,1.737 -0.309,0.237 -0.628,0.463 -0.946,0.679 -0.514,0.37 -1.038,0.72 -1.563,1.059 -0.288,0.195 -0.586,0.38 -0.885,0.555 -1.049,0.648 -2.107,1.244 -3.156,1.758 -0.257,0.133 -0.514,0.257 -0.771,0.38 -0.258,0.123 -0.524,0.247 -0.802,0.37 -0.34,0.154 -0.679,0.298 -1.018,0.432 -0.134,0.062 -0.268,0.113 -0.401,0.154 -0.4,0.165 -0.812,0.319 -1.213,0.452 -0.504,0.185 -1.018,0.339 -1.521,0.483 -0.35,0.103 -0.709,0.195 -1.059,0.277 -0.021,0.011 -0.041,0.021 -0.072,0.021 -0.35,0.082 -0.699,0.165 -1.049,0.226 -0.093,0.021 -0.184,0.041 -0.277,0.051 -0.288,0.051 -0.576,0.103 -0.864,0.134 -0.411,0.062 -0.822,0.113 -1.233,0.134 -0.143,0.02 -0.277,0.031 -0.422,0.031 -0.328,0.021 -0.657,0.031 -0.977,0.031 h -0.03 c -0.319,0 -0.638,-0.01 -0.956,-0.031 -0.124,0 -0.247,-0.01 -0.371,-0.031 -0.287,-0.01 -0.586,-0.042 -0.894,-0.083 -0.062,0 -0.134,-0.01 -0.195,-0.02 -0.381,-0.051 -0.761,-0.113 -1.152,-0.185 -0.328,-0.051 -0.657,-0.124 -0.997,-0.206 -1.758,-0.401 -3.567,-1.007 -5.397,-1.82 -1.563,-0.689 -3.146,-1.521 -4.719,-2.488 -0.792,-0.483 -1.584,-0.997 -2.365,-1.542 -0.391,-0.278 -0.781,-0.555 -1.172,-0.843 -1.224,-0.895 -2.437,-1.871 -3.63,-2.92 -0.328,-0.298 -0.657,-0.596 -0.986,-0.905 -0.329,-0.298 -0.658,-0.606 -0.977,-0.904 -0.803,-0.771 -1.584,-1.573 -2.345,-2.406 -0.298,-0.318 -0.596,-0.647 -0.895,-0.987 -0.822,-0.925 -1.624,-1.881 -2.385,-2.879 -0.299,-0.36 -0.576,-0.73 -0.854,-1.1 -1.038,-1.377 -2.025,-2.817 -2.951,-4.308 -0.246,-0.401 -0.493,-0.813 -0.729,-1.213 -0.288,-0.483 -0.565,-0.976 -0.843,-1.47 -1.028,-1.851 -1.975,-3.773 -2.797,-5.758 -0.123,-0.288 -0.247,-0.576 -0.35,-0.863 -0.165,-0.37 -0.309,-0.751 -0.442,-1.121 -0.205,-0.545 -0.4,-1.09 -0.586,-1.635 -0.185,-0.545 -0.359,-1.1 -0.534,-1.655 -0.165,-0.535 -0.319,-1.069 -0.463,-1.614 -0.165,-0.576 -0.318,-1.162 -0.452,-1.758 -0.011,-0.062 -0.031,-0.123 -0.041,-0.185 -0.195,-0.822 -0.37,-1.655 -0.524,-2.498 -0.206,-1.111 -0.37,-2.242 -0.494,-3.383 -0.051,-0.36 -0.082,-0.72 -0.113,-1.08 -0.041,-0.38 -0.071,-0.751 -0.092,-1.131 -0.052,-0.689 -0.083,-1.388 -0.104,-2.087 -0.01,-0.453 -0.021,-0.905 -0.021,-1.357 V 52.784 c 0,-23.102 18.723,-41.834 41.825,-41.855 h 0.041 c 3.188,0 6.292,0.359 9.273,1.028 2.725,0.617 5.347,1.501 7.835,2.622 3.393,1.522 6.549,3.475 9.387,5.809 2.385,1.954 4.555,4.154 6.446,6.58 5.586,7.115 8.917,16.07 8.917,25.816 z"
   clip-path="url(#SVGID_2_)"
   id="path10"
   inkscape:connector-curvature="0" /><path
   style="fill:#ecc19c"
   d="m 142.03143,174.91099 c -36.36676,-0.65437 -64.309901,0.163 -96.009513,0.18221 5.347975,-5.39814 3.709506,-4.24436 5.452083,-8.4042 0.658,-0.812 1.326,-1.604 2.016,-2.365 0.339,-0.391 0.699,-0.771 1.059,-1.151 0.36,-0.37 0.72,-0.74 1.09,-1.11 1.841,-1.84 3.814,-3.526 5.892,-5.079 1.038,-0.771 2.087,-1.491 3.177,-2.19 1.09,-0.689 2.2,-1.347 3.331,-1.964 0.021,-0.02 0.041,-0.02 0.041,-0.02 0.442,-0.236 0.874,-0.493 1.306,-0.761 0.854,-0.514 1.696,-1.069 2.499,-1.665 0.411,-0.288 0.802,-0.586 1.192,-0.905 0.925,-0.74 1.819,-1.532 2.673,-2.365 0.277,-0.277 0.556,-0.555 0.833,-0.843 0.575,-0.597 1.12,-1.224 1.645,-1.861 0.258,-0.308 0.515,-0.627 0.751,-0.946 0.247,-0.318 0.483,-0.647 0.72,-0.977 1.83,-2.55 3.3,-5.356 4.38,-8.349 1.306,-3.64 2.015,-7.557 2.015,-11.649 l 7.948,0.041 8.173,0.041 c 0,4.04 0.689,7.916 1.964,11.515 1.06,3.002 2.529,5.809 4.329,8.359 1.871,2.652 4.102,5.017 6.631,7.042 0.381,0.309 0.761,0.607 1.142,0.884 0.37,0.278 0.75,0.545 1.141,0.802 0.083,0.062 0.154,0.113 0.237,0.165 0.37,0.247 0.74,0.494 1.131,0.72 0.421,0.257 0.854,0.514 1.285,0.751 0.071,0.02 0.134,0.051 0.185,0.093 0.905,0.504 1.8,1.028 2.674,1.573 0.421,0.257 0.843,0.524 1.254,0.823 0.854,0.555 1.687,1.141 2.498,1.758 0,0.011 0.011,0.011 0.011,0.011 h 0.01 c 2.077,1.552 4.041,3.248 5.881,5.079 2.53356,2.3949 3.66346,3.95023 9.44343,12.76499 z"
   clip-path="url(#SVGID_2_)"
   id="path12"
   inkscape:connector-curvature="0"
   sodipodi:nodetypes="cccccccccccccccccccccccccccccccccccccc" /><path
   style="fill:#c7d4e2"
   d="m 142.03143,174.91099 c -29.21437,17.63232 -66.097563,17.52857 -96.009513,0.18221 2.492274,-4.60089 3.901557,-6.35809 5.453083,-8.4022 0.658,-0.813 1.327,-1.604 2.016,-2.365 0.339,-0.391 0.699,-0.771 1.059,-1.151 0.36,-0.37 0.72,-0.74 1.09,-1.11 1.841,-1.84 3.814,-3.527 5.892,-5.079 1.038,-0.771 2.087,-1.491 3.177,-2.19 1.09,-0.699 2.2,-1.357 3.331,-1.974 0.021,-0.02 0.041,-0.01 0.041,-0.01 v -0.01 c 0.442,-0.247 0.874,-0.494 1.306,-0.751 1.285,-0.781 2.52,-1.645 3.671,-2.591 0.01,0.01 0.01,0.01 0.021,0.02 5.325,5.449 12.738,8.831 20.964,8.852 h 0.082 c 8.225,0 15.669,-3.393 21.015,-8.842 l 0.011,-0.01 c 0.729,0.606 1.49,1.172 2.272,1.696 0.082,0.061 0.154,0.113 0.236,0.164 0.37,0.247 0.75,0.483 1.131,0.72 0.422,0.257 0.854,0.504 1.285,0.74 0.072,0.02 0.123,0.061 0.185,0.092 0.905,0.504 1.8,1.028 2.674,1.583 0.421,0.257 0.843,0.524 1.254,0.823 0.854,0.545 1.687,1.141 2.498,1.758 h 0.021 c 2.088,1.563 4.051,3.259 5.881,5.089 4.02938,4.09203 5.30776,5.09726 9.44343,12.76599 z"
   clip-path="url(#SVGID_2_)"
   id="path14"
   inkscape:connector-curvature="0"
   sodipodi:nodetypes="cccccccscccccccsccccccccccccc" /><path
   style="fill:#543e36"
   d="m 135.938,84.05 c 0,0.453 -0.011,0.905 -0.021,1.357 -0.02,0.936 -0.072,1.871 -0.154,2.796 -0.02,0.319 -0.052,0.637 -0.093,0.956 -0.134,1.326 -0.318,2.632 -0.555,3.928 -0.083,0.432 -0.165,0.853 -0.258,1.275 -0.01,0.092 -0.03,0.175 -0.051,0.257 -0.083,0.432 -0.186,0.854 -0.288,1.275 -0.052,0.247 -0.113,0.483 -0.186,0.72 -0.03,0.185 -0.082,0.37 -0.133,0.545 -0.217,0.843 -0.463,1.666 -0.721,2.488 -0.123,0.391 -0.246,0.771 -0.38,1.162 -0.011,0.041 -0.031,0.082 -0.041,0.123 -0.124,0.349 -0.247,0.699 -0.37,1.048 -0.041,0.103 -0.082,0.205 -0.124,0.319 -0.123,0.329 -0.246,0.658 -0.38,0.987 -0.154,0.401 -0.318,0.792 -0.483,1.183 -0.144,0.35 -0.298,0.699 -0.452,1.049 -0.02,0.062 -0.052,0.113 -0.072,0.174 -0.175,0.37 -0.339,0.741 -0.514,1.1 -0.175,0.38 -0.36,0.761 -0.556,1.142 -0.37,0.75 -0.771,1.501 -1.172,2.231 -0.185,0.329 -0.37,0.658 -0.556,0.987 -1.583,2.725 -3.341,5.285 -5.253,7.649 -0.258,0.339 -0.524,0.668 -0.802,0.987 -0.381,0.462 -0.772,0.915 -1.162,1.357 -0.35,0.391 -0.699,0.781 -1.059,1.162 -0.987,1.059 -1.995,2.067 -3.023,3.013 -0.205,0.206 -0.422,0.391 -0.638,0.586 -0.349,0.319 -0.698,0.627 -1.059,0.925 -0.277,0.247 -0.565,0.483 -0.854,0.72 -0.74,0.606 -1.48,1.192 -2.23,1.737 -0.309,0.237 -0.628,0.463 -0.946,0.679 -0.514,0.37 -1.038,0.72 -1.563,1.059 -0.288,0.195 -0.586,0.38 -0.885,0.555 -1.049,0.648 -2.107,1.244 -3.156,1.758 -0.257,0.133 -0.514,0.257 -0.771,0.38 -0.258,0.123 -0.524,0.247 -0.802,0.37 -0.34,0.154 -0.679,0.298 -1.018,0.432 -0.134,0.062 -0.268,0.113 -0.401,0.154 -0.4,0.165 -0.812,0.319 -1.213,0.452 -0.504,0.185 -1.018,0.339 -1.521,0.483 -0.35,0.103 -0.709,0.195 -1.059,0.277 -0.021,0.011 -0.041,0.021 -0.072,0.021 -0.35,0.082 -0.699,0.165 -1.049,0.226 -0.093,0.021 -0.184,0.041 -0.277,0.051 -0.288,0.051 -0.576,0.103 -0.864,0.134 -0.411,0.062 -0.822,0.113 -1.233,0.134 -0.143,0.02 -0.277,0.031 -0.422,0.031 -0.328,0.021 -0.657,0.031 -0.977,0.031 h -0.03 c -0.319,0 -0.638,-0.01 -0.956,-0.031 -0.124,0 -0.247,-0.01 -0.371,-0.031 -0.287,-0.01 -0.586,-0.042 -0.894,-0.083 -0.062,0 -0.134,-0.01 -0.195,-0.02 -0.381,-0.051 -0.761,-0.113 -1.152,-0.185 -0.328,-0.051 -0.657,-0.124 -0.997,-0.206 -1.758,-0.401 -3.567,-1.007 -5.397,-1.82 -1.563,-0.689 -3.146,-1.521 -4.719,-2.488 -0.792,-0.473 -1.573,-0.987 -2.365,-1.542 -0.391,-0.278 -0.781,-0.555 -1.172,-0.843 -1.224,-0.895 -2.437,-1.871 -3.63,-2.92 -0.328,-0.298 -0.657,-0.596 -0.986,-0.905 -0.329,-0.298 -0.658,-0.606 -0.977,-0.904 -0.803,-0.771 -1.584,-1.573 -2.345,-2.406 -0.298,-0.318 -0.596,-0.647 -0.895,-0.987 -0.822,-0.925 -1.624,-1.881 -2.385,-2.879 -0.299,-0.36 -0.576,-0.73 -0.854,-1.1 -1.038,-1.377 -2.025,-2.817 -2.951,-4.308 -0.246,-0.401 -0.493,-0.813 -0.729,-1.213 -0.288,-0.483 -0.565,-0.976 -0.843,-1.47 -1.028,-1.851 -1.975,-3.773 -2.797,-5.758 -0.123,-0.288 -0.247,-0.576 -0.35,-0.863 -0.165,-0.37 -0.309,-0.751 -0.442,-1.121 -0.205,-0.545 -0.4,-1.09 -0.586,-1.635 -0.185,-0.545 -0.359,-1.1 -0.534,-1.655 -0.165,-0.535 -0.319,-1.069 -0.463,-1.614 -0.165,-0.576 -0.318,-1.162 -0.452,-1.758 -0.011,-0.062 -0.031,-0.123 -0.041,-0.185 -0.195,-0.822 -0.37,-1.655 -0.524,-2.498 -0.206,-1.111 -0.37,-2.242 -0.494,-3.383 -0.051,-0.36 -0.082,-0.72 -0.113,-1.08 -0.041,-0.38 -0.071,-0.751 -0.092,-1.131 -0.052,-0.689 -0.083,-1.388 -0.104,-2.087 -0.01,-0.453 -0.021,-0.905 -0.021,-1.357 l 6.684,13.14 11.484,5.007 13.581,1.224 10.076,0.915 H 94.1 l 9.428,0.854 21.005,1.892 z"
   clip-path="url(#SVGID_2_)"
   id="path16"
   inkscape:connector-curvature="0" /><path
   style="fill:#543e36"
   d="m 127.023,26.968 c -2.046,4.637 -4.709,8.945 -7.855,12.852 -0.185,0.227 -0.37,0.453 -0.565,0.679 -6.446,7.762 -14.897,13.798 -24.562,17.324 -2.54,0.936 -5.161,1.696 -7.855,2.262 -1.799,0.38 -3.629,0.679 -5.49,0.895 -2.139,0.236 -4.318,0.36 -6.528,0.36 -2.529,0 -5.007,-0.165 -7.443,-0.483 -2.386,-0.298 -4.72,-0.74 -7.002,-1.336 -1.306,-0.329 -2.581,-0.709 -3.846,-1.131 -1.244,-0.411 -2.457,-0.864 -3.66,-1.357 v -4.246 c 0,-23.102 18.723,-41.834 41.825,-41.855 h 0.041 c 3.188,0 6.292,0.359 9.273,1.028 2.725,0.617 5.347,1.501 7.835,2.622 3.393,1.522 6.549,3.475 9.387,5.809 2.384,1.95 4.554,4.151 6.445,6.577 z"
   clip-path="url(#SVGID_2_)"
   id="path18"
   inkscape:connector-curvature="0" /><path
   style="fill:#543e36"
   d="m 135.938,52.784 v 8.235 c -7.136,-5.521 -13.047,-12.502 -17.314,-20.48 -0.01,-0.01 -0.01,-0.031 -0.021,-0.041 -4.194,-7.834 -6.796,-16.625 -7.412,-25.92 3.393,1.522 6.549,3.475 9.387,5.809 2.385,1.954 4.555,4.154 6.446,6.58 5.583,7.116 8.914,16.071 8.914,25.817 z"
   clip-path="url(#SVGID_2_)"
   id="path20"
   inkscape:connector-curvature="0" /><path
   style="fill:#543e36"
   d="m 57.12,56.013 c -0.441,0.771 -0.843,1.563 -1.244,2.375 -0.153,0.318 -0.308,0.658 -0.462,0.987 -2.025,4.503 -3.044,8.924 -3.188,12.914 0,0.113 -0.011,0.236 -0.011,0.35 V 56.517 c 0,-0.576 0.021,-1.142 0.021,-1.697 1.625,0.422 3.249,0.833 4.884,1.193 z"
   clip-path="url(#SVGID_2_)"
   id="path22"
   inkscape:connector-curvature="0" /><path
   style="fill:#543e36"
   d="m 131.054,56.013 c 0.622,1.093 1.177,2.213 1.71,3.361 2.088,4.643 3.11,9.178 3.198,13.268 v -16.13 c 0,-0.567 -0.021,-1.134 -0.021,-1.688 -1.623,0.419 -3.244,0.824 -4.887,1.189 z"
   clip-path="url(#SVGID_2_)"
   id="path24"
   inkscape:connector-curvature="0" /><path
   style="fill:#1a1a1a"
   d="m 130.972,60.167 c 0,-0.175 -0.134,-0.329 -0.309,-0.35 -1.48,-0.226 -8.143,-1.142 -15.309,-1.142 -8.133,0 -18.63,2.55 -20.46,2.55 H 93.27 c -0.854,0 -3.588,-0.555 -7.084,-1.141 -4.02,-0.679 -9.037,-1.409 -13.376,-1.409 -5.243,0 -10.22,0.494 -13.088,0.843 -1.049,0.124 -1.82,0.236 -2.221,0.298 -0.175,0.021 -0.309,0.175 -0.309,0.35 l -0.082,4.369 c 0,0.154 0.093,0.288 0.236,0.35 l 0.493,0.175 c 0.73,0.278 0.669,13.448 4.596,16.738 2.334,1.943 4.411,3.053 13.16,3.053 5.069,0 8.256,-1.367 11.279,-5.449 2.18,-2.93 4.112,-9.86 4.112,-9.86 0.586,-2.858 2.714,-3.084 3.054,-3.105 0.021,0 0.041,0 0.041,0 0.071,0 2.468,0.041 3.095,3.105 0,0 1.933,6.93 4.112,9.86 3.022,4.082 6.21,5.449 11.278,5.449 8.75,0 10.826,-1.11 13.16,-3.053 3.928,-3.29 3.866,-16.46 4.596,-16.738 l 0.494,-0.175 c 0.143,-0.062 0.236,-0.195 0.236,-0.35 z M 86.875,75.753 c -1.285,3.043 -4.606,6.971 -9.284,7.207 -14.034,0.709 -14.682,-3.208 -15.587,-6.313 -0.915,-3.105 -1.151,-5.83 -0.792,-8.935 0.37,-3.105 1.152,-4.925 2.561,-5.84 0.606,-0.401 1.265,-0.761 2.951,-1.018 1.511,-0.226 3.845,-0.36 7.731,-0.36 2.251,0 4.359,0.175 6.24,0.483 4.997,0.802 8.369,2.499 8.369,4.174 0,1.143 -0.288,6.098 -2.189,10.602 z m 39.284,0.894 c -0.904,3.105 -1.552,7.022 -15.586,6.313 -4.678,-0.236 -7.999,-4.164 -9.284,-7.207 -1.902,-4.503 -2.189,-9.459 -2.189,-10.6 0,-2.303 6.395,-4.658 14.609,-4.658 8.215,0 9.53,0.617 10.683,1.378 1.408,0.915 2.189,2.735 2.56,5.84 0.36,3.105 0.123,5.83 -0.793,8.934 z"
   clip-path="url(#SVGID_2_)"
   id="path26"
   inkscape:connector-curvature="0" /><path
   inkscape:connector-curvature="0"
   id="path28"
   d="m 94.123,90.65 -0.011,10.138 -0.01,3.547 v 2.786 l -0.011,9.253 v 0.01 l -0.01,-0.01 H 94.07 L 94.04,116.353 53.604,95.771 c -0.011,-0.062 -0.031,-0.123 -0.041,-0.185 -0.195,-0.822 -0.37,-1.655 -0.524,-2.498 -0.206,-1.111 -0.37,-2.242 -0.494,-3.383 -0.051,-0.36 -0.082,-0.72 -0.113,-1.08 -0.041,-0.38 -0.071,-0.751 -0.092,-1.131 -0.052,-0.689 -0.083,-1.388 -0.104,-2.087 -0.01,-0.453 -0.021,-0.905 -0.021,-1.357 V 71.764 c 0,0.175 0.011,0.35 0.011,0.524 0.082,2.971 0.555,6.241 1.47,9.582 0.71,2.57 1.594,4.945 2.622,7.063 v 0.01 c 2.694,5.604 6.303,9.407 9.623,10.024 0.206,0.031 0.422,0.051 0.628,0.072 1.285,0.144 2.632,0.226 4.02,0.226 5.243,0 9.901,-4.215 12.831,-5.922 0.021,-0.01 0.041,-0.021 0.062,-0.031 0.154,-0.093 0.309,-0.185 0.442,-0.278 0.041,-0.031 0.082,-0.051 0.123,-0.072 2.468,-1.409 6.025,-2.303 9.994,-2.313 h 0.082 z"
   style="fill:#543e36" /><path
   inkscape:connector-curvature="0"
   id="path30"
   d="m 135.947,71.764 -0.01,12.286 c 0,3.085 -0.288,6.107 -0.822,9.038 -0.217,1.172 -0.463,2.333 -0.751,3.485 l -9.49,13.705 -30.782,6.097 h -0.01 l -0.011,0.01 v -0.01 l -0.03,-25.727 h 0.082 c 3.969,0.01 7.536,0.905 10.004,2.313 0.041,0.021 0.071,0.041 0.113,0.072 0.144,0.093 0.298,0.185 0.452,0.278 0.01,0.01 0.03,0.021 0.051,0.031 2.941,1.707 7.588,5.925 12.832,5.925 1.388,0 2.734,-0.082 4.019,-0.226 0.216,-0.021 0.422,-0.041 0.638,-0.072 3.311,-0.617 6.93,-4.421 9.613,-10.024 v -0.01 c 1.027,-2.118 1.912,-4.493 2.621,-7.063 0.926,-3.393 1.409,-6.703 1.471,-9.716 0.01,-0.135 0.01,-0.259 0.01,-0.392 z"
   style="fill:#543e36" /><ellipse
   style="fill:#ecc19c"
   cx="94.073997"
   cy="103.955"
   rx="10.255"
   ry="3.1700001"
   clip-path="url(#SVGID_2_)"
   id="ellipse34" /><path
   inkscape:connector-curvature="0"
   id="path36"
   d="m 64.131,155.174 v 28.07399 c -1.447331,-0.51032 -2.893075,-1.01748 -4.369,-1.585 V 158.362 c 0.586,-0.473 1.172,-0.936 1.769,-1.378 0.853,-0.637 1.716,-1.234 2.6,-1.81 z"
   style="fill:#435363"
   sodipodi:nodetypes="cccccc" /><polygon
   style="fill:#141720"
   points="106.036,151.713 82.113,151.713 94.074,166.049 "
   id="polygon42" /><path
   style="fill:#141720"
   d="m 87.001,187.86799 5.11,-28.23099 c 0.215,0.837 3.712,0.837 3.927,0 l 5.11,28.23099 c -4.859267,0.34465 -9.582323,0.36238 -14.147,0 z"
   id="path44"
   inkscape:connector-curvature="0"
   sodipodi:nodetypes="ccccc" /><path
   style="fill:#e7ecf2"
   d="m 94.07,151.638 -0.03,0.051 -0.011,0.021 -4.966,8.338 -4.637,7.772 -12.554,-17.447 c 0.401,-0.288 0.802,-0.596 1.183,-0.915 0.01,0.01 0.01,0.01 0.021,0.021 2.518,-2.005 4.76,-4.359 6.621,-6.991 l 14.343,9.13 z"
   id="path48"
   inkscape:connector-curvature="0" /><path
   style="fill:#e7ecf2"
   d="m 116.278,150.373 -12.554,17.447 -4.637,-7.772 -4.977,-8.338 -0.041,-0.072 14.436,-9.191 c 1.871,2.652 4.102,5.017 6.631,7.042 0.382,0.308 0.761,0.607 1.142,0.884 z"
   id="path50"
   inkscape:connector-curvature="0" />
<g
   id="g60">
</g>
<g
   id="g62">
</g>
<g
   id="g64">
</g>
<g
   id="g66">
</g>
<g
   id="g68">
</g>
<g
   id="g70">
</g>
<g
   id="g72">
</g>
<g
   id="g74">
</g>
<g
   id="g76">
</g>
<g
   id="g78">
</g>
<g
   id="g80">
</g>
<g
   id="g82">
</g>
<g
   id="g84">
</g>
<g
   id="g86">
</g>
<g
   id="g88">
</g>
<path
   sodipodi:nodetypes="cccccc"
   style="fill:#435363"
   d="m 123.962,155.174 v 28.07399 c 1.44733,-0.51032 2.89307,-1.01748 4.369,-1.585 V 158.362 c -0.586,-0.473 -1.172,-0.936 -1.769,-1.378 -0.853,-0.637 -1.716,-1.234 -2.6,-1.81 z"
   id="path982"
   inkscape:connector-curvature="0" /></svg>