<?xml version="1.0" encoding="UTF-8" standalone="no"?>
<!-- Generator: Adobe Illustrator 18.0.0, SVG Export Plug-In . SVG Version: 6.00 Build 0)  -->

<svg
   xmlns:dc="http://purl.org/dc/elements/1.1/"
   xmlns:cc="http://creativecommons.org/ns#"
   xmlns:rdf="http://www.w3.org/1999/02/22-rdf-syntax-ns#"
   xmlns:svg="http://www.w3.org/2000/svg"
   xmlns="http://www.w3.org/2000/svg"
   xmlns:xlink="http://www.w3.org/1999/xlink"
   xmlns:sodipodi="http://sodipodi.sourceforge.net/DTD/sodipodi-0.dtd"
   xmlns:inkscape="http://www.inkscape.org/namespaces/inkscape"
   version="1.1"
   id="Capa_1"
   x="0px"
   y="0px"
   viewBox="0 0 188.149 188.149"
   style="enable-background:new 0 0 188.149 188.149;"
   xml:space="preserve"
   sodipodi:docname="avatar_8.svg"
   inkscape:version="0.92.3 (2405546, 2018-03-11)"><metadata
   id="metadata65"><rdf:RDF><cc:Work
       rdf:about=""><dc:format>image/svg+xml</dc:format><dc:type
         rdf:resource="http://purl.org/dc/dcmitype/StillImage" /></cc:Work></rdf:RDF></metadata><defs
   id="defs63">
	

		<defs
   id="defs3">
			<circle
   id="SVGID_1_"
   cx="94.074997"
   cy="94.074997"
   r="94.073997" />
		</defs>
		
		<clipPath
   id="SVGID_2_">
			<use
   xlink:href="#SVGID_1_"
   style="overflow:visible"
   id="use7"
   x="0"
   y="0"
   width="100%"
   height="100%" />
		</clipPath>
		
		
	
			
			
			
			
			
			
		</defs><sodipodi:namedview
   pagecolor="#ffffff"
   bordercolor="#666666"
   borderopacity="1"
   objecttolerance="10"
   gridtolerance="10"
   guidetolerance="10"
   inkscape:pageopacity="0"
   inkscape:pageshadow="2"
   inkscape:window-width="1366"
   inkscape:window-height="706"
   id="namedview61"
   showgrid="false"
   inkscape:zoom="1.7738834"
   inkscape:cx="126.72657"
   inkscape:cy="121.20623"
   inkscape:window-x="-8"
   inkscape:window-y="-8"
   inkscape:window-maximized="1"
   inkscape:current-layer="Capa_1" />
<use
   xlink:href="#SVGID_1_"
   style="overflow:visible;fill:#4ac8eb"
   id="use5"
   x="0"
   y="0"
   width="100%"
   height="100%" /><path
   inkscape:connector-curvature="0"
   id="path10"
   d="m 143.30273,174.22249 c -36.33297,0.0198 -61.523124,0.32174 -97.873758,0.32174 6.877131,-8.51349 2.10024,-6.19796 10.168028,-15.59423 0.463,-0.463 0.926,-0.905 1.408,-1.347 1.43,-1.326 2.931,-2.57 4.493,-3.732 1.028,-0.771 2.098,-1.491 3.177,-2.189 1.08,-0.699 2.19,-1.357 3.331,-1.975 0.021,-0.021 0.042,-0.021 0.042,-0.021 0.441,-0.247 0.873,-0.493 1.306,-0.761 1.295,-0.761 2.519,-1.624 3.69,-2.56 4.966,-3.948 8.812,-9.254 11.001,-15.34 v -0.011 c 1.306,-3.629 2.016,-7.546 2.016,-11.639 l 16.121,0.072 c 0,4.04 0.688,7.927 1.964,11.525 2.169,6.117 5.994,11.433 10.96,15.401 0.339,0.277 0.688,0.545 1.038,0.802 0.483,0.36 0.977,0.71 1.47,1.039 0.37,0.246 0.751,0.493 1.132,0.72 0.421,0.257 0.853,0.514 1.285,0.75 0.041,0.011 0.071,0.021 0.103,0.041 0.03,0.02 0.062,0.041 0.093,0.061 1.265,0.699 2.498,1.439 3.69,2.221 0.401,0.258 0.802,0.524 1.192,0.803 0.515,0.37 1.039,0.74 1.543,1.131 h 0.021 c 11.88366,9.5112 10.28771,10.41471 16.62973,20.28149 z"
   style="fill:#a57561"
   sodipodi:nodetypes="ccccccccccccccccccccccccccc" /><path
   inkscape:connector-curvature="0"
   id="path12"
   d="m 143.30273,174.22249 c -38.85324,23.30037 -76.671025,13.10763 -97.873758,0.32174 2.818675,-5.47004 4.66444,-9.45897 10.168028,-15.59423 0.463,-0.463 0.926,-0.905 1.408,-1.347 1.43,-1.326 2.931,-2.581 4.493,-3.742 1.028,-0.762 2.098,-1.491 3.177,-2.18 1.08,-0.699 2.19,-1.357 3.331,-1.975 0.021,-0.021 0.042,-0.021 0.042,-0.021 0.441,-0.247 0.873,-0.493 1.306,-0.761 1.295,-0.761 2.519,-1.624 3.69,-2.56 5.347,5.469 12.79,8.852 21.046,8.852 8.226,0 15.669,-3.393 21.016,-8.842 0.339,0.277 0.688,0.545 1.038,0.802 0.483,0.36 0.977,0.71 1.47,1.039 0.37,0.246 0.751,0.493 1.132,0.72 0.421,0.267 0.853,0.514 1.285,0.75 0.041,0.011 0.071,0.021 0.103,0.041 0.03,0.011 0.062,0.031 0.093,0.052 1.265,0.699 2.498,1.439 3.69,2.23 0.401,0.258 0.802,0.524 1.192,0.803 0.515,0.37 1.039,0.74 1.543,1.131 h 0.021 c 10.75179,8.488 12.68584,12.43565 16.62973,20.28049 z"
   style="fill:#eb6d4a"
   sodipodi:nodetypes="ccccccccccscccccccccccc" /><path
   inkscape:connector-curvature="0"
   id="path14"
   d="m 52.183,46.81 v 34.117 c 0,28.977 25.437,52.466 41.857,52.466 16.421,0 41.858,-23.489 41.858,-52.466 V 46.81 Z"
   style="fill:#a57561" /><path
   inkscape:connector-curvature="0"
   id="path16"
   d="m 52.183,76.823 v 0 c 2.063,0 3.734,-1.671 3.734,-3.733 V 49.356 h -3.734 z"
   style="fill:#141720" /><path
   inkscape:connector-curvature="0"
   id="path18"
   d="m 135.899,76.823 v 0 -27.467 h -3.733 V 73.09 c -0.001,2.062 1.67,3.733 3.733,3.733 z"
   style="fill:#141720" /><path
   inkscape:connector-curvature="0"
   id="path20"
   d="m 135.893,48.33 c 0,4.884 -0.328,6.061 -3.734,5.801 -0.137,-2.367 -17.141,-4.296 -38.111,-4.296 -20.985,0 -37.989,1.929 -38.126,4.296 -3.406,0.26 -3.734,-0.917 -3.734,-5.801 0,-0.479 0.014,-0.984 0.027,-1.519 0.52,-12.052 7.318,-34.582 41.833,-34.582 34.5,0 41.299,22.53 41.818,34.582 0.013,0.535 0.027,1.041 0.027,1.519 z"
   style="fill:#141720" /><path
   style="fill:#ffffff"
   d="m 115.106,146.119 c -3.517,10.826 -10.601,21.539 -21.036,30.299 -10.436,-8.76 -17.509,-19.473 -21.025,-30.299 0.052,0.02 0.113,0.041 0.165,0.061 5.531,4.955 12.852,7.979 20.86,7.979 8.009,0 15.319,-3.013 20.851,-7.968 0.061,-0.021 0.123,-0.051 0.185,-0.072 z"
   clip-path="url(#SVGID_2_)"
   id="path24"
   inkscape:connector-curvature="0" />
<g
   id="g30">
</g>
<g
   id="g32">
</g>
<g
   id="g34">
</g>
<g
   id="g36">
</g>
<g
   id="g38">
</g>
<g
   id="g40">
</g>
<g
   id="g42">
</g>
<g
   id="g44">
</g>
<g
   id="g46">
</g>
<g
   id="g48">
</g>
<g
   id="g50">
</g>
<g
   id="g52">
</g>
<g
   id="g54">
</g>
<g
   id="g56">
</g>
<g
   id="g58">
</g>
</svg>