<?xml version="1.0" encoding="UTF-8" standalone="no"?>
<!-- Generator: Adobe Illustrator 18.0.0, SVG Export Plug-In . SVG Version: 6.00 Build 0)  -->

<svg
   xmlns:dc="http://purl.org/dc/elements/1.1/"
   xmlns:cc="http://creativecommons.org/ns#"
   xmlns:rdf="http://www.w3.org/1999/02/22-rdf-syntax-ns#"
   xmlns:svg="http://www.w3.org/2000/svg"
   xmlns="http://www.w3.org/2000/svg"
   xmlns:xlink="http://www.w3.org/1999/xlink"
   xmlns:sodipodi="http://sodipodi.sourceforge.net/DTD/sodipodi-0.dtd"
   xmlns:inkscape="http://www.inkscape.org/namespaces/inkscape"
   version="1.1"
   id="Capa_1"
   x="0px"
   y="0px"
   viewBox="0 0 188.149 188.149"
   style="enable-background:new 0 0 188.149 188.149;"
   xml:space="preserve"
   sodipodi:docname="avatar_4.svg"
   inkscape:version="0.92.3 (2405546, 2018-03-11)"><metadata
   id="metadata151"><rdf:RDF><cc:Work
       rdf:about=""><dc:format>image/svg+xml</dc:format><dc:type
         rdf:resource="http://purl.org/dc/dcmitype/StillImage" /></cc:Work></rdf:RDF></metadata><defs
   id="defs149">
	<defs
   id="defs3">
		<circle
   r="94.074"
   cy="94.075"
   cx="94.075"
   id="SVGID_1_" />
	</defs>
	
	<clipPath
   id="SVGID_2_">
		<use
   id="use7"
   style="overflow:visible;"
   xlink:href="#SVGID_1_" />
	</clipPath>
	
	
	
	

		
		
		
		
		
		
		
		
		
		
		
		
		
		
		
		
		
		
		
		
		
		
		
		
		
		
		
		
		
		
		
		
		
		
		
		
		
		
		
		
		
		
		
		
		
		
		
	
			
		</defs><sodipodi:namedview
   pagecolor="#ffffff"
   bordercolor="#666666"
   borderopacity="1"
   objecttolerance="10"
   gridtolerance="10"
   guidetolerance="10"
   inkscape:pageopacity="0"
   inkscape:pageshadow="2"
   inkscape:window-width="1366"
   inkscape:window-height="706"
   id="namedview147"
   showgrid="false"
   inkscape:zoom="1.7738834"
   inkscape:cx="-45.232217"
   inkscape:cy="116.11352"
   inkscape:window-x="-8"
   inkscape:window-y="-8"
   inkscape:window-maximized="1"
   inkscape:current-layer="Capa_1" />
<use
   height="100%"
   width="100%"
   y="0"
   x="0"
   id="use5"
   style="overflow:visible;fill:#7ddbd4"
   xlink:href="#SVGID_1_" /><path
   style="fill:#141720"
   d="m 151.952,66.682 c 0,1.625 -0.072,3.229 -0.195,4.822 -0.227,2.704 -0.638,5.346 -1.213,7.927 -0.802,3.588 -1.943,7.043 -3.383,10.333 -1.357,3.136 -2.992,6.127 -4.863,8.934 -1.49,2.242 -3.136,4.37 -4.914,6.374 -0.442,0.494 -0.885,0.977 -1.337,1.45 -1.48,1.573 -3.054,3.043 -4.698,4.421 -0.422,0.36 -0.843,0.71 -1.275,1.049 -2.046,1.634 -4.215,3.136 -6.477,4.472 -0.699,0.422 -1.419,0.823 -2.139,1.214 -5.799,3.125 -12.194,5.284 -18.959,6.261 -2.745,0.411 -5.563,0.617 -8.42,0.617 -2.817,0 -5.583,-0.206 -8.287,-0.597 -6.827,-0.977 -13.273,-3.146 -19.113,-6.281 -0.956,-0.524 -1.902,-1.06 -2.817,-1.625 -2.787,-1.707 -5.408,-3.64 -7.855,-5.788 -0.268,-0.227 -0.545,-0.463 -0.802,-0.709 -1.83,-1.655 -3.557,-3.434 -5.161,-5.315 -0.298,-0.35 -0.596,-0.699 -0.884,-1.059 -2.416,-2.971 -4.545,-6.179 -6.343,-9.592 -0.175,-0.329 -0.339,-0.658 -0.504,-0.987 -1.398,-2.786 -2.581,-5.706 -3.527,-8.729 -0.185,-0.606 -0.36,-1.213 -0.524,-1.82 -0.864,-3.126 -1.471,-6.354 -1.789,-9.674 -0.051,-0.555 -0.103,-1.11 -0.144,-1.676 -0.082,-1.327 -0.134,-2.673 -0.134,-4.021 0,-0.812 0.021,-1.614 0.052,-2.416 0.01,-0.401 0.031,-0.791 0.062,-1.192 0.154,-2.622 0.493,-5.203 0.997,-7.721 0.113,-0.566 0.236,-1.131 0.36,-1.687 0.463,-2.005 1.028,-3.979 1.697,-5.891 0.236,-0.699 0.493,-1.398 0.761,-2.077 0.812,-2.108 1.758,-4.154 2.807,-6.128 0.833,-1.573 1.738,-3.105 2.714,-4.585 0.627,-0.966 1.285,-1.902 1.974,-2.827 0.75,-1.018 1.542,-2.005 2.365,-2.961 1.439,-1.697 2.971,-3.3 4.585,-4.792 0.555,-0.524 1.11,-1.028 1.686,-1.521 2.169,-1.881 4.472,-3.599 6.909,-5.13 0.822,-0.524 1.655,-1.028 2.508,-1.501 1.234,-0.699 2.498,-1.358 3.794,-1.964 0.802,-0.38 1.614,-0.74 2.437,-1.08 2.426,-1.007 4.924,-1.851 7.505,-2.529 1.295,-0.339 2.611,-0.627 3.948,-0.873 2.015,-0.38 4.061,-0.658 6.148,-0.823 1.048,-0.082 2.107,-0.134 3.177,-0.154 0.463,-0.01 0.925,-0.02 1.398,-0.02 1.11,0 2.21,0.031 3.3,0.093 0.699,0.041 1.398,0.092 2.087,0.154 2.91,0.268 5.747,0.751 8.503,1.44 0.638,0.154 1.265,0.319 1.892,0.494 3.115,0.884 6.117,2.015 8.996,3.382 0.822,0.391 1.625,0.792 2.427,1.224 1.501,0.791 2.95,1.655 4.369,2.581 0.247,0.165 0.504,0.329 0.751,0.494 1.974,1.336 3.876,2.796 5.665,4.37 1.192,1.018 2.323,2.097 3.413,3.229 1.707,1.737 3.301,3.578 4.761,5.521 0.298,0.38 0.586,0.761 0.852,1.151 1.44,1.995 2.745,4.071 3.918,6.241 0.216,0.391 0.421,0.792 0.616,1.182 1.923,3.753 3.444,7.732 4.514,11.896 0.545,2.118 0.967,4.277 1.265,6.477 0.36,2.596 0.544,5.249 0.544,7.942 z"
   id="path10"
   inkscape:connector-curvature="0" /><path
   style="fill:#141720"
   d="m 58.639,105.803 c 0,0.051 0,0.103 -0.01,0.154 -0.051,1.861 -1.09,3.465 -2.622,4.308 -0.196,0.113 -0.391,0.216 -0.607,0.288 -0.576,0.237 -1.213,0.36 -1.871,0.36 -2.817,0 -5.1,-2.292 -5.1,-5.11 0,-0.483 0.072,-0.956 0.195,-1.408 0.124,-0.432 0.309,-0.843 0.535,-1.213 0.884,-1.48 2.509,-2.478 4.37,-2.478 0.462,0 0.905,0.062 1.326,0.175 0.658,0.164 1.254,0.462 1.769,0.863 0.442,0.339 0.822,0.74 1.141,1.203 0.555,0.812 0.874,1.799 0.874,2.858 z"
   id="path12"
   inkscape:connector-curvature="0" /><path
   style="fill:#141720"
   d="m 44.646,50.767 c 0,0.987 -0.288,1.913 -0.782,2.694 -0.895,1.45 -2.498,2.406 -4.328,2.406 -0.802,0 -1.553,-0.185 -2.231,-0.514 -0.37,-0.175 -0.709,-0.401 -1.018,-0.648 -1.131,-0.936 -1.851,-2.354 -1.851,-3.938 0,-2.282 1.491,-4.205 3.537,-4.863 0.494,-0.165 1.018,-0.247 1.563,-0.247 0.195,0 0.391,0.011 0.586,0.042 2.282,0.247 4.102,2.005 4.452,4.256 0.051,0.267 0.072,0.534 0.072,0.812 z"
   id="path14"
   inkscape:connector-curvature="0" /><path
   style="fill:#141720"
   d="m 73.249,16.664 c 0,1.11 -0.36,2.149 -0.957,2.981 -0.699,0.977 -1.748,1.696 -2.95,1.984 -0.381,0.093 -0.782,0.144 -1.193,0.144 -2.447,0 -4.493,-1.717 -4.986,-4.02 -0.082,-0.35 -0.124,-0.72 -0.124,-1.09 0,-0.452 0.062,-0.884 0.175,-1.295 0.566,-2.19 2.57,-3.804 4.935,-3.804 0.545,0 1.059,0.082 1.552,0.237 0.853,0.277 1.604,0.761 2.201,1.408 0.833,0.905 1.347,2.118 1.347,3.455 z"
   id="path16"
   inkscape:connector-curvature="0" /><circle
   style="fill:#141720"
   cx="121.308"
   cy="18.853001"
   r="5.1040001"
   id="circle18" /><path
   style="fill:#141720"
   d="m 43.597,67.68 c 0,0.648 -0.124,1.275 -0.35,1.84 -0.74,1.912 -2.591,3.27 -4.76,3.27 -0.72,0 -1.399,-0.144 -2.015,-0.411 C 36.05,72.194 35.66,71.947 35.3,71.67 c -1.162,-0.936 -1.912,-2.375 -1.912,-3.989 0,-1.738 0.864,-3.27 2.19,-4.195 0.226,-0.154 0.473,-0.298 0.73,-0.411 0.658,-0.319 1.398,-0.494 2.18,-0.494 2.159,0 4.01,1.336 4.75,3.229 0.236,0.574 0.359,1.211 0.359,1.87 z"
   id="path20"
   inkscape:connector-curvature="0" /><circle
   style="fill:#141720"
   cx="133.15199"
   cy="107.931"
   r="5.1040001"
   id="circle22" /><circle
   style="fill:#141720"
   cx="138.40199"
   cy="101.993"
   r="5.1040001"
   id="circle24" /><circle
   style="fill:#141720"
   cx="126.407"
   cy="112.201"
   r="5.1040001"
   id="circle26" /><path
   style="fill:#141720"
   d="m 99.579,10.135 c 0,1.902 -1.038,3.558 -2.581,4.432 -0.75,0.432 -1.614,0.678 -2.529,0.678 -0.134,0 -0.257,0 -0.391,-0.021 -0.998,-0.072 -1.913,-0.432 -2.663,-1.007 -1.244,-0.925 -2.046,-2.416 -2.046,-4.082 0,-0.401 0.041,-0.781 0.134,-1.151 0.267,-1.193 0.966,-2.221 1.912,-2.92 0.75,-0.576 1.665,-0.936 2.663,-1.007 0.134,-0.021 0.257,-0.021 0.391,-0.021 1.748,0 3.29,0.874 4.205,2.21 0.37,0.535 0.648,1.152 0.792,1.81 0.072,0.349 0.113,0.709 0.113,1.079 z"
   id="path28"
   inkscape:connector-curvature="0" /><circle
   style="fill:#141720"
   cx="143.506"
   cy="35.720001"
   r="5.1040001"
   id="circle30" /><path
   style="fill:#141720"
   d="m 56.007,96.889 c 0,0.833 -0.134,1.624 -0.391,2.375 -0.185,0.576 -0.442,1.11 -0.761,1.614 -1.059,1.696 -2.786,2.94 -4.812,3.362 -0.452,0.102 -0.936,0.154 -1.419,0.154 -0.041,0.01 -0.092,0.01 -0.133,0.01 -4.154,0 -7.526,-3.362 -7.526,-7.516 0,-1.224 0.298,-2.386 0.813,-3.403 0.154,-0.309 0.329,-0.606 0.535,-0.884 1.357,-1.954 3.619,-3.238 6.179,-3.238 0.216,0 0.432,0.01 0.647,0.031 1.552,0.133 2.972,0.74 4.112,1.676 1.687,1.377 2.756,3.475 2.756,5.819 z"
   id="path32"
   inkscape:connector-curvature="0" /><path
   style="fill:#141720"
   d="m 70.185,108.641 c 0,3.31 -2.138,6.118 -5.11,7.115 -0.391,0.134 -0.791,0.236 -1.213,0.298 -0.391,0.072 -0.792,0.103 -1.203,0.103 -3.496,0 -6.426,-2.375 -7.259,-5.603 -0.092,-0.318 -0.165,-0.658 -0.195,-0.997 -0.041,-0.298 -0.062,-0.607 -0.062,-0.915 0,-2.077 0.843,-3.948 2.19,-5.305 0.144,-0.144 0.288,-0.278 0.432,-0.391 1.316,-1.152 3.023,-1.83 4.894,-1.83 4.154,-0.001 7.526,3.371 7.526,7.525 z"
   id="path34"
   inkscape:connector-curvature="0" /><path
   style="fill:#141720"
   d="m 52.162,42.429 c 0,4.154 -3.362,7.526 -7.516,7.526 h -0.072 c -2.025,-0.021 -3.866,-0.843 -5.212,-2.18 -0.556,-0.535 -1.028,-1.172 -1.388,-1.871 -0.545,-1.039 -0.854,-2.221 -0.854,-3.475 0,-3.115 1.902,-5.788 4.606,-6.919 0.894,-0.391 1.882,-0.596 2.92,-0.596 0.339,0 0.668,0.021 0.997,0.072 3.331,0.432 5.963,3.043 6.426,6.364 0.062,0.349 0.093,0.709 0.093,1.079 z"
   id="path36"
   inkscape:connector-curvature="0" /><circle
   style="fill:#141720"
   cx="113.786"
   cy="15.242"
   r="7.5209999"
   id="circle38" /><path
   style="fill:#141720"
   d="m 84.476,13.744 c 0,0.966 -0.185,1.892 -0.524,2.745 -1.09,2.796 -3.814,4.781 -7.002,4.781 -1.758,0 -3.383,-0.607 -4.658,-1.625 -1.614,-1.265 -2.683,-3.177 -2.827,-5.356 -0.021,-0.175 -0.031,-0.36 -0.031,-0.545 0,-0.668 0.092,-1.326 0.267,-1.943 0.843,-3.208 3.763,-5.573 7.248,-5.573 1.162,0 2.262,0.268 3.239,0.74 1.316,0.617 2.416,1.604 3.167,2.838 0.71,1.141 1.121,2.488 1.121,3.938 z"
   id="path40"
   inkscape:connector-curvature="0" /><path
   style="fill:#141720"
   d="m 48.43,76.666 c 0,1.789 -0.627,3.434 -1.676,4.719 -1.378,1.706 -3.485,2.796 -5.85,2.796 -0.73,0 -1.45,-0.103 -2.118,-0.309 -0.524,-0.144 -1.038,-0.359 -1.511,-0.627 -2.313,-1.275 -3.886,-3.742 -3.886,-6.58 0,-1.922 0.72,-3.671 1.912,-4.997 0.298,-0.36 0.648,-0.689 1.028,-0.966 1.265,-0.987 2.858,-1.563 4.575,-1.563 0.822,0 1.604,0.134 2.344,0.38 3.002,0.978 5.182,3.816 5.182,7.147 z"
   id="path42"
   inkscape:connector-curvature="0" /><circle
   style="fill:#141720"
   cx="134.06599"
   cy="30.285"
   r="7.5209999"
   id="circle44" /><circle
   style="fill:#141720"
   cx="145.11099"
   cy="46.687"
   r="7.5219998"
   id="circle46" /><path
   style="fill:#141720"
   d="m 69.434,22.76 c 0,4.154 -3.372,7.526 -7.526,7.526 -0.607,0 -1.193,-0.072 -1.758,-0.216 -2.776,-0.658 -4.956,-2.868 -5.583,-5.665 -0.124,-0.524 -0.185,-1.08 -0.185,-1.645 0,-0.133 0,-0.267 0.021,-0.401 0.195,-3.968 3.485,-7.115 7.505,-7.115 0.442,0 0.884,0.041 1.306,0.123 0.884,0.144 1.717,0.453 2.457,0.884 1.943,1.121 3.331,3.074 3.671,5.377 0.062,0.372 0.092,0.742 0.092,1.132 z"
   id="path48"
   inkscape:connector-curvature="0" /><path
   style="fill:#141720"
   d="m 49.622,86.885 c 0,0.884 -0.174,1.737 -0.483,2.509 -0.997,2.457 -3.414,4.195 -6.23,4.195 h -0.092 c -0.36,-0.01 -0.699,-0.041 -1.039,-0.103 -3.167,-0.535 -5.583,-3.29 -5.583,-6.601 0,-1.347 0.391,-2.591 1.08,-3.64 0.278,-0.432 0.607,-0.832 0.987,-1.193 1.203,-1.172 2.837,-1.881 4.647,-1.881 1.429,0 2.755,0.453 3.845,1.213 1.738,1.214 2.868,3.219 2.868,5.501 z"
   id="path50"
   inkscape:connector-curvature="0" /><path
   style="fill:#141720"
   d="m 55.143,35.715 c 0,2.365 -1.224,4.441 -3.074,5.634 -1.049,0.689 -2.303,1.079 -3.64,1.079 -2.272,0 -4.277,-1.131 -5.501,-2.858 -0.761,-1.09 -1.213,-2.426 -1.213,-3.855 0,-0.072 0,-0.134 0.01,-0.206 0.083,-3.064 2.242,-5.604 5.11,-6.302 0.504,-0.134 1.039,-0.196 1.594,-0.196 0.535,0 1.059,0.062 1.553,0.186 2.899,0.688 5.068,3.249 5.151,6.323 0.01,0.061 0.01,0.133 0.01,0.195 z"
   id="path52"
   inkscape:connector-curvature="0" /><circle
   style="fill:#141720"
   cx="103.253"
   cy="12.143"
   r="6.71"
   id="circle54" /><path
   style="fill:#141720"
   d="m 47.679,59.496 c 0,1.121 -0.267,2.169 -0.75,3.095 -0.771,1.491 -2.087,2.653 -3.691,3.218 -0.709,0.257 -1.48,0.401 -2.272,0.401 -1.84,0 -3.506,-0.74 -4.719,-1.943 -0.247,-0.246 -0.473,-0.504 -0.669,-0.781 -0.833,-1.11 -1.316,-2.488 -1.316,-3.989 0,-1.881 0.771,-3.578 2.025,-4.791 0.411,-0.411 0.874,-0.761 1.377,-1.039 0.977,-0.555 2.098,-0.874 3.3,-0.874 1.039,0 2.025,0.236 2.899,0.668 0.946,0.442 1.769,1.1 2.406,1.923 0.886,1.13 1.41,2.559 1.41,4.112 z"
   id="path56"
   inkscape:connector-curvature="0" /><circle
   style="fill:#141720"
   cx="149.53"
   cy="65.179001"
   r="6.7090001"
   id="circle58" /><circle
   style="fill:#141720"
   cx="145.11099"
   cy="83.371002"
   r="6.7090001"
   id="circle60" /><path
   style="fill:#141720"
   d="m 60.243,29.011 c 0,0.36 -0.031,0.72 -0.093,1.059 -0.411,2.673 -2.416,4.812 -5.017,5.449 -0.514,0.134 -1.049,0.195 -1.604,0.195 -2.56,0 -4.791,-1.44 -5.912,-3.557 -0.483,-0.884 -0.761,-1.882 -0.782,-2.951 -0.01,-0.062 -0.01,-0.134 -0.01,-0.196 0,-3.711 3.002,-6.713 6.704,-6.713 0.298,0 0.586,0.021 0.874,0.062 0.647,0.083 1.275,0.257 1.851,0.524 2.354,1.029 3.989,3.384 3.989,6.128 z"
   id="path62"
   inkscape:connector-curvature="0" /><circle
   style="fill:#141720"
   cx="129.22301"
   cy="23.847"
   r="6.71"
   id="circle64" /><path
   style="fill:#141720"
   d="m 92.804,10.135 c 0,1.532 -0.514,2.951 -1.388,4.082 -1.224,1.604 -3.146,2.632 -5.315,2.632 -0.751,0 -1.48,-0.124 -2.149,-0.36 -2.498,-0.833 -4.328,-3.095 -4.544,-5.809 -0.011,-0.185 -0.021,-0.36 -0.021,-0.545 0,-1.141 0.288,-2.221 0.802,-3.167 1.121,-2.107 3.352,-3.537 5.912,-3.537 2.169,0 4.092,1.028 5.315,2.632 0.617,0.792 1.059,1.738 1.265,2.766 0.082,0.422 0.123,0.854 0.123,1.306 z"
   id="path66"
   inkscape:connector-curvature="0" /><path
   style="fill:#b08874"
   d="m 143.30388,174.21804 c -36.3341,0.0218 -62.132627,0.0388 -98.486155,0.0388 8.979585,-11.09768 1.760447,-6.0484 10.819275,-15.29885 0.37,-0.37 0.74,-0.73 1.121,-1.09 1.521,-1.419 3.115,-2.756 4.781,-3.999 0.514,-0.381 1.038,-0.762 1.563,-1.121 1.08,-0.74 2.19,-1.449 3.321,-2.107 0.535,-0.319 1.08,-0.628 1.625,-0.926 0.01,-0.021 0.031,-0.021 0.031,-0.021 0.442,-0.236 0.874,-0.493 1.306,-0.761 0.329,-0.185 0.647,-0.38 0.956,-0.597 0.946,-0.607 1.871,-1.265 2.745,-1.963 v -0.011 c 4.966,-3.958 8.811,-9.253 10.991,-15.35 0.812,-2.252 1.388,-4.617 1.717,-7.054 0.195,-1.501 0.298,-3.032 0.298,-4.585 l 7.989,0.041 8.132,0.041 c 0,1.522 0.103,3.013 0.288,4.482 0.318,2.427 0.884,4.791 1.676,7.032 2.169,6.107 5.994,11.423 10.949,15.412 0.37,0.288 0.74,0.576 1.121,0.854 0,0 0.01,0 0.021,0.011 0.288,0.226 0.586,0.432 0.885,0.627 0.082,0.071 0.174,0.134 0.267,0.185 0.082,0.062 0.154,0.113 0.236,0.165 0.031,0.021 0.062,0.041 0.093,0.062 0.339,0.226 0.689,0.442 1.038,0.658 0.422,0.257 0.853,0.514 1.285,0.75 0.072,0.021 0.134,0.052 0.186,0.093 0.483,0.268 0.967,0.545 1.439,0.833 0.627,0.359 1.244,0.74 1.851,1.131 1.079,0.699 2.118,1.419 3.146,2.2 h 0.021 c 2.076,1.552 4.04,3.249 5.87,5.079 9.908,9.871 1.15198,4.08225 10.71888,15.18904 z"
   id="path68"
   inkscape:connector-curvature="0"
   sodipodi:nodetypes="cccccccccccccccccccccccccccccccccccc" /><path
   style="fill:#efc7a1"
   d="m 143.30388,174.21805 c -29.35466,18.84153 -70.329188,18.1741 -98.486155,0.0388 4.439412,-8.71152 6.221757,-10.29107 10.819275,-15.29886 0.37,-0.37 0.74,-0.73 1.121,-1.09 1.521,-1.419 3.115,-2.756 4.781,-3.999 0.514,-0.381 1.038,-0.762 1.563,-1.121 1.08,-0.74 2.18,-1.449 3.31,-2.118 0.535,-0.318 1.08,-0.627 1.625,-0.925 0.021,-0.021 0.041,-0.011 0.041,-0.011 v -0.01 c 0.874,-0.483 1.737,-1.008 2.57,-1.563 0.391,-0.257 0.771,-0.524 1.151,-0.812 0.041,-0.02 0.072,-0.052 0.113,-0.072 0.277,-0.206 0.555,-0.422 0.833,-0.647 0.103,-0.083 0.206,-0.165 0.309,-0.247 h 0.01 c 0.01,0.011 0.01,0.011 0.021,0.02 0.658,0.679 1.357,1.316 2.077,1.933 0,0.011 0,0.011 0.01,0.011 1.82,1.532 3.825,2.848 5.984,3.907 3.886,1.912 8.256,2.991 12.882,3.002 h 0.083 c 8.225,0 15.659,-3.394 21.004,-8.832 l 0.011,-0.01 0.01,-0.011 c 0.381,0.318 0.771,0.617 1.173,0.915 0.267,0.206 0.545,0.401 0.833,0.597 0.082,0.062 0.174,0.123 0.267,0.185 0.082,0.062 0.154,0.113 0.236,0.165 0.031,0.021 0.062,0.041 0.093,0.062 0.339,0.226 0.689,0.442 1.038,0.658 0.422,0.257 0.853,0.503 1.285,0.74 0.072,0.021 0.124,0.062 0.186,0.092 0.483,0.268 0.977,0.545 1.449,0.833 0.628,0.37 1.244,0.751 1.841,1.142 1.079,0.688 2.118,1.419 3.146,2.189 h 0.021 c 2.076,1.553 4.04,3.26 5.87,5.09 6.29514,6.13546 8.25205,10.11833 10.71988,15.18706 z"
   id="path70"
   inkscape:connector-curvature="0"
   sodipodi:nodetypes="cccccccccccccccccccccsccccccccccccccccc" /><path
   inkscape:connector-curvature="0"
   id="path72"
   d="m 121.704,150.609 -0.01,0.011 -1.121,1.141 c -7.053,7.186 -16.46,11.135 -26.495,11.146 -0.01,0 -0.01,0 -0.021,0 -10.148,-0.021 -19.545,-3.989 -26.567,-11.166 l -1.069,-1.1 -0.01,-0.011 c 0.535,-0.318 1.08,-0.627 1.625,-0.925 0.021,-0.021 0.041,-0.011 0.041,-0.011 v -0.01 c 0.442,-0.247 0.874,-0.494 1.306,-0.751 0.318,-0.195 0.637,-0.391 0.956,-0.597 0.103,-0.071 0.206,-0.144 0.309,-0.216 0.391,-0.257 0.781,-0.524 1.151,-0.812 0.041,-0.02 0.072,-0.052 0.113,-0.072 0.277,-0.216 0.565,-0.432 0.833,-0.647 0.103,-0.083 0.206,-0.165 0.309,-0.247 0.01,0.011 0.01,0.011 0.02,0.02 h 0.01 v 0.011 c 0.658,0.678 1.347,1.315 2.077,1.922 0,0.011 0,0.011 0.01,0.011 1.82,1.532 3.825,2.858 5.984,3.907 3.886,1.912 8.256,2.991 12.882,3.002 h 0.083 c 8.225,0 15.659,-3.394 21.004,-8.832 l 0.011,-0.01 0.01,-0.011 c 0.36,0.298 0.72,0.586 1.101,0.874 0,0 0.01,0 0.021,0.011 0.011,0.01 0.031,0.02 0.052,0.03 0.267,0.206 0.545,0.401 0.833,0.597 0.082,0.062 0.174,0.123 0.267,0.185 0.082,0.062 0.154,0.113 0.236,0.165 0.031,0.021 0.062,0.041 0.093,0.062 0.339,0.226 0.689,0.442 1.038,0.658 0.422,0.257 0.853,0.503 1.285,0.74 0.072,0.021 0.124,0.062 0.186,0.092 0.482,0.268 0.975,0.545 1.447,0.833 z"
   style="fill:#543e36" /><path
   style="fill:#b08874"
   d="m 135.934,56.412 v 24.51 c 0,2.303 -0.164,4.575 -0.473,6.806 -0.751,5.552 -2.406,10.827 -4.688,15.689 -0.668,1.429 -1.388,2.828 -2.159,4.185 -0.175,0.309 -0.35,0.617 -0.525,0.915 -1.563,2.632 -3.3,5.12 -5.161,7.413 -0.473,0.597 -0.966,1.183 -1.47,1.748 -5.274,6.056 -11.402,10.672 -17.283,13.293 -3.526,1.563 -6.981,2.417 -10.096,2.417 -3.095,0 -6.508,-0.833 -10.004,-2.375 -5.912,-2.612 -12.081,-7.249 -17.396,-13.335 -0.545,-0.628 -1.08,-1.265 -1.604,-1.923 -2.395,-2.981 -4.585,-6.271 -6.446,-9.798 -0.453,-0.864 -0.884,-1.737 -1.295,-2.622 -0.247,-0.524 -0.483,-1.059 -0.709,-1.594 -0.36,-0.812 -0.689,-1.645 -1.008,-2.478 -0.987,-2.632 -1.789,-5.377 -2.365,-8.194 -0.226,-1.1 -0.421,-2.211 -0.565,-3.342 -0.309,-2.231 -0.473,-4.503 -0.473,-6.806 v -24.51 h 83.72 z"
   id="path76"
   inkscape:connector-curvature="0" /><path
   style="fill:#141720"
   d="m 51.189,87.938 v 0 c 3.072,0 5.562,-2.49 5.562,-5.562 V 55.67 h -5.562 z"
   id="path78"
   inkscape:connector-curvature="0" /><path
   style="fill:#141720"
   d="m 131.4,55.67 h 5.561 v 32.269 0 c -3.071,0 -5.561,-2.49 -5.561,-5.562 z"
   id="path80"
   inkscape:connector-curvature="0" /><circle
   style="fill:#141720"
   cx="83.661003"
   cy="57.387001"
   r="6.71"
   id="circle82" /><circle
   style="fill:#141720"
   cx="68.146004"
   cy="55.868"
   r="6.71"
   id="circle84" /><circle
   style="fill:#141720"
   cx="52.216999"
   cy="58.470001"
   r="6.71"
   id="circle86" /><circle
   style="fill:#141720"
   cx="103.253"
   cy="56.660999"
   r="6.71"
   id="circle88" /><circle
   style="fill:#141720"
   cx="123.541"
   cy="56.660999"
   r="6.71"
   id="circle90" /><circle
   style="fill:#141720"
   cx="137.46201"
   cy="63.018002"
   r="6.7090001"
   id="circle92" /><circle
   style="fill:#141720"
   cx="94.074997"
   cy="57.891998"
   r="5.1040001"
   id="circle94" /><circle
   style="fill:#141720"
   cx="59.490002"
   cy="57.387001"
   r="5.1040001"
   id="circle96" /><circle
   style="fill:#141720"
   cx="76.950996"
   cy="57.387001"
   r="5.1040001"
   id="circle98" /><circle
   style="fill:#141720"
   cx="113.786"
   cy="58.992001"
   r="5.1040001"
   id="circle100" /><circle
   style="fill:#141720"
   cx="130.25101"
   cy="58.992001"
   r="5.1040001"
   id="circle102" /><path
   style="fill:#1a1a1a"
   d="m 129.303,69.095 c 0,-0.164 -0.124,-0.308 -0.288,-0.329 -1.419,-0.216 -7.783,-1.09 -14.62,-1.09 -7.772,0 -17.797,2.436 -19.545,2.436 h -1.553 c -0.812,0 -3.423,-0.535 -6.765,-1.09 -3.835,-0.647 -8.627,-1.347 -12.77,-1.347 -5.007,0 -9.768,0.473 -12.502,0.802 -1.007,0.124 -1.737,0.226 -2.118,0.288 -0.175,0.021 -0.298,0.165 -0.298,0.329 l -0.082,4.174 c 0,0.154 0.092,0.278 0.226,0.339 l 0.473,0.165 c 0.699,0.267 0.638,12.841 4.391,15.987 2.231,1.851 4.215,2.91 12.563,2.91 4.843,0 7.886,-1.306 10.775,-5.202 2.087,-2.796 3.928,-9.418 3.928,-9.418 0.565,-2.725 2.591,-2.941 2.919,-2.961 0.021,0 0.042,0 0.042,0 0.062,0 2.354,0.041 2.951,2.961 0,0 1.851,6.621 3.928,9.418 2.889,3.896 5.932,5.202 10.774,5.202 8.349,0 10.333,-1.059 12.563,-2.91 3.753,-3.146 3.691,-15.72 4.391,-15.987 l 0.473,-0.165 c 0.134,-0.062 0.226,-0.185 0.226,-0.339 z"
   id="path104"
   inkscape:connector-curvature="0" /><circle
   id="circle108"
   clip-path="url(#SVGID_2_)"
   r="7.5209999"
   cy="92.913002"
   cx="144.23399"
   style="fill:#141720" /><circle
   id="circle110"
   clip-path="url(#SVGID_2_)"
   r="5.1040001"
   cy="55.763"
   cx="151.755"
   style="fill:#141720" /><circle
   id="circle112"
   clip-path="url(#SVGID_2_)"
   r="5.1040001"
   cy="74.980003"
   cx="150.561"
   style="fill:#141720" />
<g
   id="g116">
</g>
<g
   id="g118">
</g>
<g
   id="g120">
</g>
<g
   id="g122">
</g>
<g
   id="g124">
</g>
<g
   id="g126">
</g>
<g
   id="g128">
</g>
<g
   id="g130">
</g>
<g
   id="g132">
</g>
<g
   id="g134">
</g>
<g
   id="g136">
</g>
<g
   id="g138">
</g>
<g
   id="g140">
</g>
<g
   id="g142">
</g>
<g
   id="g144">
</g>
</svg>