<?xml version="1.0" encoding="UTF-8" standalone="no"?>
<!-- Generator: Adobe Illustrator 18.0.0, SVG Export Plug-In . SVG Version: 6.00 Build 0)  -->

<svg
   xmlns:dc="http://purl.org/dc/elements/1.1/"
   xmlns:cc="http://creativecommons.org/ns#"
   xmlns:rdf="http://www.w3.org/1999/02/22-rdf-syntax-ns#"
   xmlns:svg="http://www.w3.org/2000/svg"
   xmlns="http://www.w3.org/2000/svg"
   xmlns:xlink="http://www.w3.org/1999/xlink"
   xmlns:sodipodi="http://sodipodi.sourceforge.net/DTD/sodipodi-0.dtd"
   xmlns:inkscape="http://www.inkscape.org/namespaces/inkscape"
   version="1.1"
   id="Capa_1"
   x="0px"
   y="0px"
   viewBox="0 0 188.148 188.148"
   style="enable-background:new 0 0 188.148 188.148;"
   xml:space="preserve"
   sodipodi:docname="avatar_1.svg"
   inkscape:version="0.92.3 (2405546, 2018-03-11)"><metadata
   id="metadata85"><rdf:RDF><cc:Work
       rdf:about=""><dc:format>image/svg+xml</dc:format><dc:type
         rdf:resource="http://purl.org/dc/dcmitype/StillImage" /></cc:Work></rdf:RDF></metadata><defs
   id="defs83">
	

		<defs
   id="defs3">
			<circle
   id="SVGID_1_"
   cx="94.073997"
   cy="94.073997"
   r="94.073997" />
		</defs>
		
		<clipPath
   id="SVGID_2_">
			<use
   xlink:href="#SVGID_1_"
   style="overflow:visible"
   id="use7"
   x="0"
   y="0"
   width="100%"
   height="100%" />
		</clipPath>
		
	</defs><sodipodi:namedview
   pagecolor="#ffffff"
   bordercolor="#666666"
   borderopacity="1"
   objecttolerance="10"
   gridtolerance="10"
   guidetolerance="10"
   inkscape:pageopacity="0"
   inkscape:pageshadow="2"
   inkscape:window-width="1366"
   inkscape:window-height="706"
   id="namedview81"
   showgrid="false"
   inkscape:zoom="5.0173269"
   inkscape:cx="80.484559"
   inkscape:cy="25.308349"
   inkscape:window-x="-8"
   inkscape:window-y="-8"
   inkscape:window-maximized="1"
   inkscape:current-layer="Capa_1" />















<g
   id="g979"><path
     id="path942"
     d="M 188.14799,94.073997 A 94.073997,94.073997 0 0 1 94.073997,188.14799 94.073997,94.073997 0 0 1 0,94.073997 94.073997,94.073997 0 0 1 94.073997,0 94.073997,94.073997 0 0 1 188.14799,94.073997 Z"
     style="fill:#7e6990;fill-opacity:1;stroke:none;stroke-width:1.14326274" /><g
     id="g44"
     clip-path="url(#SVGID_2_)">
			<path
   inkscape:connector-curvature="0"
   id="path10"
   d="m 142.27919,174.9606 c -36.8115,0.6354 -63.650914,0.78002 -96.822483,-0.27393 13.065092,-8.02918 -4.74003,5.60301 6.050293,-7.99467 0.658,-0.813 1.327,-1.604 2.015,-2.365 0.339,-0.391 0.699,-0.771 1.059,-1.152 0.36,-0.37 0.72,-0.74 1.09,-1.11 1.84,-1.841 3.814,-3.527 5.891,-5.079 1.039,-0.771 2.087,-1.491 3.177,-2.19 0.391,-0.247 0.781,-0.494 1.182,-0.73 0.175,-0.103 0.36,-0.206 0.535,-0.309 0.535,-0.319 1.069,-0.627 1.614,-0.925 0.021,-0.021 0.041,-0.021 0.041,-0.021 0.442,-0.237 0.874,-0.494 1.306,-0.761 1.285,-0.771 2.519,-1.625 3.691,-2.57 3.773,-3.002 6.899,-6.786 9.14,-11.094 0.71,-1.367 1.337,-2.786 1.861,-4.246 1.306,-3.64 2.016,-7.557 2.016,-11.649 l 7.947,0.041 h 0.021 l 8.153,0.042 c 0,4.04 0.689,7.917 1.963,11.515 0.514,1.471 1.131,2.889 1.84,4.257 2.231,4.328 5.347,8.132 9.12,11.145 0.74,0.606 1.491,1.162 2.283,1.686 0.082,0.062 0.154,0.113 0.236,0.165 0.37,0.247 0.74,0.494 1.131,0.72 0.422,0.257 0.854,0.514 1.285,0.75 0.072,0.021 0.134,0.051 0.185,0.092 0.483,0.268 0.967,0.545 1.439,0.833 0.412,0.236 0.823,0.483 1.234,0.74 0.421,0.257 0.843,0.524 1.254,0.822 0.853,0.545 1.686,1.142 2.498,1.758 0,0.01 0.01,0.01 0.01,0.01 h 0.011 c 1.038,0.771 2.046,1.594 3.033,2.436 0.987,0.843 1.933,1.728 2.848,2.643 9.911,9.871 -1.69744,2.50502 9.66319,12.8146 z"
   style="fill:#ecc19c"
   sodipodi:nodetypes="ccccccccccccccccccccccccccccccccccccc" />
			<path
   inkscape:connector-curvature="0"
   id="path12"
   d="m 142.27919,174.9606 c -30.551,17.66846 -66.277466,17.69978 -96.822483,-0.27393 3.117413,-4.38139 3.796227,-5.46342 6.050293,-7.99467 0.658,-0.813 1.327,-1.604 2.015,-2.365 0.339,-0.391 0.699,-0.771 1.059,-1.152 0.36,-0.37 0.72,-0.74 1.09,-1.11 1.84,-1.841 3.814,-3.527 5.891,-5.079 1.039,-0.771 2.087,-1.491 3.177,-2.19 0.391,-0.247 0.781,-0.494 1.182,-0.73 0.175,-0.113 0.35,-0.216 0.524,-0.319 0.535,-0.319 1.08,-0.627 1.625,-0.925 0.021,-0.021 0.041,-0.01 0.041,-0.01 v -0.01 c 0.442,-0.247 0.874,-0.494 1.306,-0.75 1.285,-0.782 2.519,-1.645 3.67,-2.591 0.01,0.01 0.01,0.01 0.021,0.02 5.326,5.449 12.739,8.832 20.964,8.852 h 0.082 c 8.225,0 15.669,-3.393 21.015,-8.842 l 0.01,-0.01 c 0.73,0.607 1.491,1.172 2.272,1.696 0.082,0.062 0.154,0.113 0.236,0.165 0.37,0.247 0.75,0.483 1.131,0.72 0.422,0.257 0.854,0.504 1.285,0.74 0.072,0.021 0.123,0.062 0.185,0.092 0.483,0.268 0.977,0.545 1.45,0.833 0.411,0.247 0.823,0.494 1.224,0.751 0.421,0.257 0.843,0.524 1.254,0.822 0.853,0.545 1.686,1.142 2.498,1.758 h 0.021 c 1.038,0.781 2.056,1.594 3.033,2.447 0.987,0.843 1.933,1.728 2.848,2.643 5.13534,4.99576 5.87631,5.79163 9.66319,12.8126 z"
   style="fill:#1c5a7d"
   sodipodi:nodetypes="cccccccccccccccccsccccccccccccccc" />
			<g
   id="g16">
				<path
   inkscape:connector-curvature="0"
   id="path14"
   d="m 121.738,153.727 -0.01,0.01 -1.121,1.141 c -7.053,7.187 -16.471,11.145 -26.516,11.145 -0.01,0 -0.01,0 -0.021,0 -10.137,-0.031 -19.524,-3.989 -26.546,-11.165 l -1.069,-1.1 -0.01,-0.01 c 0.535,-0.319 1.08,-0.627 1.625,-0.925 0.021,-0.021 0.041,-0.01 0.041,-0.01 v -0.01 c 0.442,-0.247 0.874,-0.494 1.306,-0.75 1.285,-0.782 2.519,-1.645 3.67,-2.591 0.01,0.01 0.01,0.01 0.021,0.02 5.326,5.449 12.739,8.832 20.964,8.852 h 0.082 c 8.225,0 15.669,-3.393 21.015,-8.842 l 0.01,-0.01 c 0.73,0.607 1.491,1.172 2.272,1.696 0.082,0.062 0.154,0.113 0.236,0.165 0.37,0.247 0.75,0.483 1.131,0.72 0.422,0.257 0.854,0.504 1.285,0.74 0.072,0.021 0.123,0.062 0.185,0.092 0.484,0.266 0.978,0.544 1.45,0.832 z"
   style="fill:#7ca6ba" />
			</g>
			<g
   id="g42">
				<path
   inkscape:connector-curvature="0"
   id="path18"
   d="M 135.968,64.094 V 89.19 c 0,0.452 -0.01,0.905 -0.02,1.357 -0.01,0.349 -0.021,0.699 -0.041,1.048 -0.01,0.35 -0.031,0.689 -0.062,1.038 -0.01,0.236 -0.031,0.473 -0.051,0.71 -0.01,0.144 -0.02,0.277 -0.041,0.421 -0.02,0.257 -0.041,0.524 -0.082,0.781 -0.021,0.247 -0.041,0.494 -0.082,0.74 -0.021,0.237 -0.051,0.483 -0.093,0.73 -0.092,0.74 -0.216,1.48 -0.35,2.21 -0.092,0.494 -0.185,0.987 -0.288,1.471 -0.01,0.021 -0.01,0.041 -0.02,0.062 -0.01,0.072 -0.021,0.144 -0.041,0.216 -0.01,0.021 -0.01,0.041 -0.021,0.062 0,0.021 0,0.041 -0.01,0.062 -0.021,0.103 -0.041,0.206 -0.072,0.308 -0.02,0.123 -0.051,0.247 -0.082,0.37 -0.02,0.134 -0.052,0.257 -0.093,0.381 -0.031,0.185 -0.082,0.37 -0.124,0.555 -0.031,0.103 -0.051,0.216 -0.092,0.319 -0.021,0.093 -0.051,0.185 -0.072,0.268 -0.216,0.843 -0.463,1.665 -0.72,2.488 -0.123,0.391 -0.247,0.771 -0.38,1.162 -0.011,0.041 -0.031,0.082 -0.042,0.123 -0.123,0.35 -0.247,0.699 -0.37,1.049 -0.041,0.103 -0.082,0.205 -0.123,0.319 -0.124,0.329 -0.247,0.658 -0.38,0.987 -0.154,0.401 -0.319,0.792 -0.483,1.183 -0.144,0.35 -0.298,0.699 -0.453,1.048 -0.02,0.062 -0.051,0.113 -0.072,0.175 -0.175,0.37 -0.339,0.74 -0.514,1.1 -0.175,0.38 -0.36,0.761 -0.555,1.142 -0.37,0.75 -0.771,1.501 -1.172,2.231 l -0.555,0.987 c -1.584,2.725 -3.342,5.285 -5.254,7.649 -0.257,0.339 -0.524,0.668 -0.802,0.987 -0.381,0.463 -0.771,0.915 -1.162,1.357 -0.35,0.391 -0.699,0.781 -1.059,1.162 -0.987,1.059 -1.995,2.067 -3.023,3.013 -0.206,0.206 -0.421,0.391 -0.638,0.586 -0.35,0.319 -0.699,0.627 -1.059,0.925 -0.278,0.247 -0.565,0.483 -0.854,0.72 -0.74,0.606 -1.48,1.192 -2.231,1.737 -0.309,0.237 -0.627,0.463 -0.946,0.679 -0.514,0.37 -1.039,0.72 -1.563,1.059 -0.288,0.195 -0.586,0.38 -0.884,0.555 -0.956,0.596 -1.933,1.141 -2.889,1.624 -0.092,0.051 -0.174,0.092 -0.267,0.133 -0.257,0.134 -0.514,0.257 -0.771,0.381 -0.257,0.123 -0.524,0.247 -0.802,0.37 -0.339,0.154 -0.678,0.298 -1.018,0.432 -0.134,0.061 -0.268,0.113 -0.401,0.154 -0.401,0.164 -0.813,0.319 -1.213,0.452 -0.504,0.185 -1.018,0.339 -1.521,0.483 -0.35,0.103 -0.709,0.195 -1.059,0.277 -0.021,0.011 -0.041,0.021 -0.072,0.021 -0.35,0.082 -0.699,0.164 -1.049,0.226 -0.093,0.021 -0.185,0.041 -0.278,0.051 -0.288,0.051 -0.576,0.103 -0.864,0.134 -0.411,0.061 -0.822,0.113 -1.233,0.134 -0.144,0.021 -0.278,0.031 -0.421,0.031 -0.329,0.02 -0.658,0.031 -0.977,0.031 h -0.031 c -0.319,0 -0.637,-0.01 -0.956,-0.031 -0.124,0 -0.247,-0.01 -0.37,-0.031 -0.288,-0.011 -0.586,-0.041 -0.895,-0.082 -0.062,0 -0.134,-0.01 -0.195,-0.021 -0.38,-0.051 -0.761,-0.113 -1.152,-0.185 -0.329,-0.051 -0.658,-0.123 -0.997,-0.205 -1.758,-0.401 -3.567,-1.008 -5.398,-1.82 -0.617,-0.278 -1.244,-0.565 -1.861,-0.895 -0.956,-0.473 -1.912,-1.008 -2.858,-1.594 -0.792,-0.483 -1.584,-0.997 -2.365,-1.542 -0.391,-0.278 -0.781,-0.555 -1.172,-0.843 -1.223,-0.895 -2.437,-1.871 -3.629,-2.92 -0.329,-0.298 -0.658,-0.596 -0.987,-0.905 -0.329,-0.298 -0.658,-0.606 -0.977,-0.905 -0.802,-0.771 -1.583,-1.573 -2.344,-2.406 -0.298,-0.319 -0.596,-0.647 -0.895,-0.987 -0.822,-0.925 -1.625,-1.881 -2.385,-2.879 -0.298,-0.36 -0.576,-0.73 -0.853,-1.1 -1.038,-1.377 -2.025,-2.817 -2.951,-4.308 -0.247,-0.401 -0.493,-0.813 -0.73,-1.213 -0.288,-0.483 -0.565,-0.977 -0.843,-1.47 -1.028,-1.851 -1.974,-3.773 -2.797,-5.758 -0.123,-0.288 -0.247,-0.576 -0.35,-0.863 -0.164,-0.37 -0.308,-0.75 -0.442,-1.121 -0.206,-0.545 -0.401,-1.09 -0.586,-1.635 -0.185,-0.545 -0.36,-1.1 -0.535,-1.655 -0.165,-0.535 -0.319,-1.069 -0.463,-1.614 -0.164,-0.576 -0.318,-1.162 -0.452,-1.758 -0.01,-0.062 -0.031,-0.124 -0.041,-0.185 -0.195,-0.822 -0.37,-1.655 -0.524,-2.499 -0.206,-1.11 -0.37,-2.241 -0.494,-3.382 -0.051,-0.36 -0.082,-0.72 -0.113,-1.08 -0.041,-0.38 -0.072,-0.751 -0.092,-1.131 -0.051,-0.689 -0.082,-1.388 -0.103,-2.087 -0.01,-0.453 -0.021,-0.905 -0.021,-1.357 V 64.094 c 0,-5.747 1.162,-11.227 3.259,-16.214 0.051,-0.144 0.113,-0.277 0.175,-0.411 0.813,-1.881 1.758,-3.691 2.838,-5.418 0.165,-0.277 0.339,-0.545 0.514,-0.812 7.464,-11.433 20.368,-18.99 35.039,-19 h 0.041 c 3.188,0 6.292,0.36 9.274,1.028 2.725,0.617 5.346,1.501 7.834,2.622 3.393,1.521 6.549,3.475 9.387,5.809 2.385,1.953 4.555,4.153 6.446,6.58 0.74,0.946 1.439,1.922 2.098,2.93 0.185,0.277 0.37,0.555 0.535,0.843 1.069,1.717 2.025,3.517 2.837,5.398 l 0.185,0.432 c 2.056,4.884 3.208,10.23 3.249,15.844 0.012,0.122 0.012,0.245 0.012,0.369 z"
   style="fill:#ecc19c" />
				<path
   inkscape:connector-curvature="0"
   id="path20"
   d="m 135.968,89.19 c 0,0.452 -0.01,0.905 -0.02,1.357 -0.01,0.349 -0.021,0.699 -0.041,1.048 -0.01,0.35 -0.031,0.689 -0.062,1.038 -0.01,0.236 -0.031,0.473 -0.051,0.71 -0.01,0.144 -0.02,0.277 -0.041,0.421 -0.02,0.257 -0.041,0.524 -0.082,0.781 -0.021,0.247 -0.051,0.494 -0.082,0.74 -0.021,0.237 -0.051,0.483 -0.093,0.73 -0.092,0.74 -0.216,1.48 -0.35,2.21 -0.082,0.432 -0.164,0.854 -0.257,1.275 -0.01,0.093 -0.031,0.175 -0.051,0.257 -0.01,0.072 -0.021,0.144 -0.041,0.216 -0.01,0.021 -0.01,0.041 -0.021,0.062 0,0.021 0,0.041 -0.01,0.062 0,0.01 0,0.021 0,0.021 -0.021,0.113 -0.051,0.226 -0.072,0.329 -0.02,0.113 -0.051,0.226 -0.082,0.329 -0.02,0.134 -0.052,0.257 -0.093,0.381 -0.041,0.205 -0.093,0.401 -0.154,0.596 -0.01,0.092 -0.031,0.185 -0.061,0.277 -0.021,0.093 -0.051,0.185 -0.072,0.268 -0.216,0.843 -0.463,1.665 -0.72,2.488 -0.123,0.391 -0.247,0.771 -0.38,1.162 -0.011,0.041 -0.031,0.082 -0.042,0.123 -0.123,0.35 -0.247,0.699 -0.37,1.049 -0.041,0.103 -0.082,0.205 -0.123,0.319 -0.124,0.329 -0.247,0.658 -0.38,0.987 -0.154,0.401 -0.319,0.792 -0.483,1.183 -0.144,0.35 -0.298,0.699 -0.453,1.048 -0.02,0.062 -0.051,0.113 -0.072,0.175 -0.175,0.37 -0.339,0.74 -0.514,1.1 -0.175,0.38 -0.36,0.761 -0.555,1.142 -0.37,0.75 -0.771,1.501 -1.172,2.231 l -0.555,0.987 c -1.584,2.725 -3.342,5.285 -5.254,7.649 -0.257,0.339 -0.524,0.668 -0.802,0.987 -0.381,0.463 -0.771,0.915 -1.162,1.357 -0.35,0.391 -0.699,0.781 -1.059,1.162 -0.987,1.059 -1.995,2.067 -3.023,3.013 -0.206,0.206 -0.421,0.391 -0.638,0.586 -0.35,0.319 -0.699,0.627 -1.059,0.925 -0.278,0.247 -0.565,0.483 -0.854,0.72 -0.74,0.606 -1.48,1.192 -2.231,1.737 -0.309,0.237 -0.627,0.463 -0.946,0.679 -0.514,0.37 -1.039,0.72 -1.563,1.059 -0.288,0.195 -0.586,0.38 -0.884,0.555 -0.956,0.596 -1.933,1.141 -2.889,1.624 -0.092,0.051 -0.174,0.092 -0.267,0.133 -0.257,0.134 -0.514,0.257 -0.771,0.381 -0.257,0.123 -0.524,0.247 -0.802,0.37 -0.339,0.154 -0.678,0.298 -1.018,0.432 -0.134,0.061 -0.268,0.113 -0.401,0.154 -0.401,0.164 -0.813,0.319 -1.213,0.452 -0.504,0.185 -1.018,0.339 -1.521,0.483 -0.35,0.103 -0.709,0.195 -1.059,0.277 -0.021,0.011 -0.041,0.021 -0.072,0.021 -0.35,0.082 -0.699,0.164 -1.049,0.226 -0.093,0.021 -0.185,0.041 -0.278,0.051 -0.288,0.051 -0.576,0.103 -0.864,0.134 -0.411,0.061 -0.822,0.113 -1.233,0.134 -0.144,0.021 -0.278,0.031 -0.421,0.031 -0.329,0.02 -0.658,0.031 -0.977,0.031 h -0.031 c -0.319,0 -0.637,-0.01 -0.956,-0.031 -0.124,0 -0.247,-0.01 -0.37,-0.031 -0.288,-0.011 -0.586,-0.041 -0.895,-0.082 -0.062,0 -0.134,-0.01 -0.195,-0.021 -0.38,-0.051 -0.761,-0.113 -1.152,-0.185 -0.329,-0.051 -0.658,-0.123 -0.997,-0.205 -1.758,-0.401 -3.567,-1.008 -5.398,-1.82 -0.617,-0.278 -1.244,-0.565 -1.861,-0.895 -0.956,-0.473 -1.912,-1.008 -2.858,-1.594 -0.792,-0.473 -1.573,-0.987 -2.365,-1.542 -0.391,-0.278 -0.781,-0.555 -1.172,-0.843 -1.223,-0.895 -2.437,-1.871 -3.629,-2.92 -0.329,-0.298 -0.658,-0.596 -0.987,-0.905 -0.329,-0.298 -0.658,-0.606 -0.977,-0.905 -0.802,-0.771 -1.583,-1.573 -2.344,-2.406 -0.298,-0.319 -0.596,-0.647 -0.895,-0.987 -0.822,-0.925 -1.625,-1.881 -2.385,-2.879 -0.298,-0.36 -0.576,-0.73 -0.853,-1.1 -1.038,-1.377 -2.025,-2.817 -2.951,-4.308 -0.247,-0.401 -0.493,-0.813 -0.73,-1.213 -0.288,-0.483 -0.565,-0.977 -0.843,-1.47 -1.028,-1.851 -1.974,-3.773 -2.797,-5.758 -0.123,-0.288 -0.247,-0.576 -0.35,-0.863 -0.164,-0.37 -0.308,-0.75 -0.442,-1.121 -0.206,-0.545 -0.401,-1.09 -0.586,-1.635 -0.185,-0.545 -0.36,-1.1 -0.535,-1.655 -0.165,-0.535 -0.319,-1.069 -0.463,-1.614 -0.164,-0.576 -0.318,-1.162 -0.452,-1.758 -0.01,-0.062 -0.031,-0.124 -0.041,-0.185 -0.195,-0.822 -0.37,-1.655 -0.524,-2.499 -0.206,-1.11 -0.37,-2.241 -0.494,-3.382 -0.051,-0.36 -0.082,-0.72 -0.113,-1.08 -0.041,-0.38 -0.072,-0.751 -0.092,-1.131 -0.051,-0.689 -0.082,-1.388 -0.103,-2.087 -0.01,-0.453 -0.021,-0.905 -0.021,-1.357 l 6.683,13.14 11.484,5.007 13.582,1.224 h 0.01 l 10.065,0.915 h 0.062 l 9.418,0.854 c 0.01,0 0.01,0 0.01,0 l 21.005,1.892 z"
   style="fill:#d4dce6" />
				<g
   id="g26">
					<path
   inkscape:connector-curvature="0"
   id="path22"
   d="m 94.153,95.791 -0.01,10.127 v 0.011 l -0.01,3.547 v 2.786 l -0.01,9.253 v 0.01 l -0.01,-0.01 h -0.01 l -0.01,-0.01 -0.021,-0.01 -40.437,-20.583 c -0.01,-0.062 -0.031,-0.124 -0.041,-0.185 -0.195,-0.822 -0.37,-1.655 -0.524,-2.499 -0.206,-1.11 -0.37,-2.241 -0.494,-3.382 -0.051,-0.36 -0.082,-0.72 -0.113,-1.08 -0.041,-0.38 -0.072,-0.751 -0.092,-1.131 -0.051,-0.689 -0.082,-1.388 -0.103,-2.087 -0.01,-0.453 -0.021,-0.905 -0.021,-1.357 V 76.904 c 0,0.175 0.01,0.35 0.01,0.524 0,0.123 0.01,0.247 0.021,0.37 0.102,2.868 0.576,6.004 1.449,9.212 0.709,2.57 1.594,4.945 2.622,7.064 v 0.01 c 2.694,5.603 6.302,9.407 9.624,10.024 0.205,0.031 0.421,0.051 0.627,0.072 1.285,0.144 2.632,0.226 4.02,0.226 5.243,0 9.901,-4.215 12.831,-5.922 0.021,-0.01 0.041,-0.021 0.062,-0.031 0.154,-0.093 0.309,-0.185 0.442,-0.278 0.041,-0.031 0.082,-0.051 0.123,-0.072 2.468,-1.409 6.025,-2.303 9.994,-2.313 h 0.081 z"
   style="fill:#d4dce6" />
					<path
   inkscape:connector-curvature="0"
   id="path24"
   d="m 135.981,76.899 -0.01,12.286 c 0,3.084 -0.288,6.107 -0.822,9.037 -0.216,1.172 -0.463,2.334 -0.75,3.485 l -9.49,13.705 -30.783,6.097 h -0.01 l -0.01,0.01 v -0.01 L 94.075,95.781 h 0.082 c 3.968,0.01 7.536,0.905 10.003,2.313 0.041,0.021 0.072,0.041 0.113,0.072 0.144,0.092 0.298,0.185 0.452,0.277 0.01,0.011 0.031,0.021 0.052,0.031 2.94,1.707 7.587,5.925 12.831,5.925 1.388,0 2.735,-0.082 4.02,-0.226 0.216,-0.021 0.421,-0.041 0.637,-0.072 3.31,-0.617 6.93,-4.421 9.613,-10.024 v -0.01 c 1.028,-2.118 1.912,-4.493 2.622,-7.063 0.925,-3.393 1.409,-6.704 1.47,-9.716 0.011,-0.132 0.011,-0.255 0.011,-0.389 z"
   style="fill:#d4dce6" />
				</g>
				<ellipse
   id="ellipse28"
   ry="3.1700001"
   rx="10.255"
   cy="109.091"
   cx="94.107002"
   style="fill:#ecc19c" />
				<path
   inkscape:connector-curvature="0"
   id="path30"
   d="m 130.776,63.477 c 0,-0.175 -0.124,-0.329 -0.298,-0.35 -1.47,-0.226 -8.091,-1.131 -15.206,-1.131 -8.071,0 -18.486,2.529 -20.306,2.529 h -1.614 c -0.843,0 -3.557,-0.545 -7.032,-1.131 -3.989,-0.679 -8.976,-1.398 -13.273,-1.398 -5.212,0 -10.147,0.494 -12.996,0.833 -1.049,0.123 -1.81,0.236 -2.21,0.298 -0.175,0.021 -0.298,0.175 -0.298,0.35 l -0.082,4.338 c 0,0.154 0.092,0.288 0.226,0.35 l 0.494,0.165 c 0.73,0.278 0.668,13.355 4.565,16.625 2.313,1.923 4.38,3.023 13.067,3.023 5.028,0 8.194,-1.357 11.196,-5.408 2.159,-2.91 4.082,-9.788 4.082,-9.788 0.555,-2.735 2.539,-3.043 2.981,-3.084 0.01,0 0.01,0 0.021,0 h 0.031 c 0.021,0 0.031,0 0.031,0 0.072,0 2.458,0.041 3.074,3.084 0,0 1.923,6.878 4.082,9.788 3.002,4.051 6.168,5.408 11.196,5.408 8.688,0 10.754,-1.1 13.067,-3.023 3.896,-3.27 3.835,-16.347 4.565,-16.625 l 0.494,-0.165 c 0.134,-0.062 0.226,-0.195 0.226,-0.35 z M 87.008,78.95 c -1.285,3.023 -4.575,6.919 -9.222,7.156 -13.931,0.699 -14.568,-3.187 -15.474,-6.271 -0.905,-3.085 -1.141,-5.789 -0.781,-8.863 0.36,-3.084 1.141,-4.894 2.54,-5.798 0.596,-0.401 1.254,-0.761 2.93,-1.018 1.501,-0.216 3.814,-0.35 7.67,-0.35 2.241,0 4.329,0.175 6.2,0.473 4.955,0.802 8.307,2.488 8.307,4.143 -10e-4,1.141 -0.288,6.056 -2.17,10.528 z m 38.997,0.885 c -0.905,3.084 -1.542,6.971 -15.474,6.271 -4.647,-0.236 -7.947,-4.133 -9.222,-7.156 -1.882,-4.472 -2.169,-9.387 -2.169,-10.528 0,-2.282 6.343,-4.616 14.507,-4.616 8.153,0 9.459,0.607 10.6,1.368 1.398,0.905 2.18,2.714 2.54,5.798 0.359,3.074 0.123,5.778 -0.782,8.863 z"
   style="fill:#1a1a1a" />
				<g
   id="g40">
					<path
   inkscape:connector-curvature="0"
   id="path32"
   d="m 136.061,47.87 c -0.011,0 -0.011,0.01 -0.021,0.01 H 52.247 c 0,-29.6 19.946,-28.407 41.825,-25.971 0.01,0 0.01,0 0.021,0 1.553,0.175 3.115,0.35 4.678,0.524 16.368,1.82 29.692,-5.254 36.365,-11.515 9.077,6.468 10.692,30.341 0.925,36.952 z"
   style="fill:#d4dce6" />
					<path
   inkscape:connector-curvature="0"
   id="path34"
   d="m 66.846,46.132 -0.226,0.709 c -0.113,0.349 -0.226,0.699 -0.35,1.038 -0.103,0.278 -0.195,0.555 -0.309,0.823 -1.922,5.141 -4.832,9.85 -8.4,14.065 -2.508,2.971 -5.027,7.742 -5.284,15.031 -0.021,0.421 -0.031,0.843 -0.031,1.285 v -14.99 c 0,-8.492 0,-16.214 0,-16.214 l 3.434,-0.411 3.352,-0.401 3.948,-0.473 z"
   style="fill:#d4dce6" />
					<path
   inkscape:connector-curvature="0"
   id="path36"
   d="m 136.176,47.883 -14.595,-1.742 0.227,0.705 c 1.889,5.875 5.074,11.208 9.055,15.924 2.657,3.148 5.314,8.302 5.314,16.323 -0.001,-10.988 -0.001,-31.21 -0.001,-31.21 z"
   style="fill:#d4dce6" />
					<ellipse
   id="ellipse38"
   ry="5.9120002"
   rx="31.190001"
   cy="46.140999"
   cx="94.07"
   style="fill:#d4dce6" />
				</g>
			</g>
		</g><g
     id="g50">
</g><g
     id="g52">
</g><g
     id="g54">
</g><g
     id="g56">
</g><g
     id="g58">
</g><g
     id="g60">
</g><g
     id="g62">
</g><g
     id="g64">
</g><g
     id="g66">
</g><g
     id="g68">
</g><g
     id="g70">
</g><g
     id="g72">
</g><g
     id="g74">
</g><g
     id="g76">
</g><g
     id="g78">
</g></g>
</svg>