<?xml version="1.0" encoding="UTF-8" standalone="no"?>
<!-- Generator: Adobe Illustrator 18.0.0, SVG Export Plug-In . SVG Version: 6.00 Build 0)  -->

<svg
   xmlns:dc="http://purl.org/dc/elements/1.1/"
   xmlns:cc="http://creativecommons.org/ns#"
   xmlns:rdf="http://www.w3.org/1999/02/22-rdf-syntax-ns#"
   xmlns:svg="http://www.w3.org/2000/svg"
   xmlns="http://www.w3.org/2000/svg"
   xmlns:xlink="http://www.w3.org/1999/xlink"
   xmlns:sodipodi="http://sodipodi.sourceforge.net/DTD/sodipodi-0.dtd"
   xmlns:inkscape="http://www.inkscape.org/namespaces/inkscape"
   version="1.1"
   id="Capa_1"
   x="0px"
   y="0px"
   viewBox="0 0 188.148 188.148"
   style="enable-background:new 0 0 188.148 188.148;"
   xml:space="preserve"
   sodipodi:docname="avatar_2.svg"
   inkscape:version="0.92.3 (2405546, 2018-03-11)"><metadata
   id="metadata67"><rdf:RDF><cc:Work
       rdf:about=""><dc:format>image/svg+xml</dc:format><dc:type
         rdf:resource="http://purl.org/dc/dcmitype/StillImage" /><dc:title></dc:title></cc:Work></rdf:RDF></metadata><defs
   id="defs65">
	

		<defs
   id="defs3">
			<circle
   id="SVGID_1_"
   cx="94.073997"
   cy="94.073997"
   r="94.073997" />
		</defs>
		
		<clipPath
   id="SVGID_2_">
			<use
   xlink:href="#SVGID_1_"
   style="overflow:visible"
   id="use7"
   x="0"
   y="0"
   width="100%"
   height="100%" />
		</clipPath>
		
	
			
			
			
			
			
			
		
				
				
			</defs><sodipodi:namedview
   pagecolor="#ffffff"
   bordercolor="#666666"
   borderopacity="1"
   objecttolerance="10"
   gridtolerance="10"
   guidetolerance="10"
   inkscape:pageopacity="0"
   inkscape:pageshadow="2"
   inkscape:window-width="1366"
   inkscape:window-height="706"
   id="namedview63"
   showgrid="false"
   inkscape:zoom="2.5086634"
   inkscape:cx="56.042364"
   inkscape:cy="98.832823"
   inkscape:window-x="-8"
   inkscape:window-y="-8"
   inkscape:window-maximized="1"
   inkscape:current-layer="Capa_1"
   inkscape:pagecheckerboard="true" />
<path
   style="fill:#d4dce6;fill-opacity:1;stroke:none;stroke-width:1.21544564"
   d="M 188.148,94.074002 A 94.073997,94.073997 0 0 1 94.074,188.14799 94.073997,94.073997 0 0 1 0,94.074002 94.073997,94.073997 0 0 1 94.074,4.9951171e-6 94.073997,94.073997 0 0 1 188.148,94.074002 Z"
   id="path877"
   inkscape:connector-curvature="0" /><path
   style="fill:#421800;fill-opacity:1;stroke:none;stroke-width:1.15549517"
   d="m 38.8,95.87599 h 106.17689 l 3.83413,74.68773 c -12.41461,9.1135 -23.22701,10.27742 -35.20471,14.60927 H 70.455844 C 53.355794,178.8258 51.456142,179.09524 38.8,170.1105 Z"
   id="rect880"
   inkscape:connector-curvature="0"
   sodipodi:nodetypes="ccccccc" /><path
   inkscape:connector-curvature="0"
   id="path12"
   d="m 135.938,58.277 v 25.775 c 0,0.452 -0.011,0.905 -0.02,1.357 -0.011,0.37 -0.021,0.73 -0.042,1.1 -0.01,0.329 -0.03,0.658 -0.061,0.987 -0.01,0.236 -0.03,0.473 -0.051,0.71 -0.011,0.144 -0.02,0.277 -0.041,0.421 -0.02,0.257 -0.042,0.524 -0.083,0.781 -0.041,0.494 -0.103,0.977 -0.175,1.47 -0.01,0.124 -0.03,0.247 -0.051,0.37 -0.031,0.247 -0.072,0.494 -0.113,0.74 v 0.031 c -0.061,0.359 -0.123,0.709 -0.186,1.069 -0.092,0.494 -0.185,0.987 -0.287,1.47 -0.011,0.021 -0.011,0.041 -0.02,0.062 -0.011,0.072 -0.021,0.144 -0.042,0.216 -0.01,0.021 -0.01,0.041 -0.02,0.062 -0.051,0.268 -0.112,0.524 -0.175,0.781 -0.02,0.113 -0.041,0.227 -0.082,0.339 -0.03,0.185 -0.082,0.37 -0.123,0.555 -0.031,0.103 -0.052,0.216 -0.093,0.319 -0.02,0.093 -0.051,0.185 -0.072,0.268 -0.216,0.843 -0.462,1.666 -0.72,2.488 -0.123,0.391 -0.246,0.771 -0.38,1.162 -0.011,0.041 -0.031,0.082 -0.041,0.123 -0.124,0.35 -0.247,0.699 -0.37,1.049 -0.041,0.103 -0.082,0.206 -0.124,0.319 -0.123,0.329 -0.246,0.658 -0.38,0.987 -0.154,0.401 -0.319,0.792 -0.483,1.183 -0.144,0.35 -0.298,0.699 -0.452,1.048 -0.021,0.062 -0.052,0.113 -0.072,0.175 -0.175,0.37 -0.339,0.74 -0.514,1.1 -0.175,0.38 -0.36,0.761 -0.556,1.141 -0.37,0.751 -0.77,1.501 -1.172,2.231 l -0.555,0.987 c -1.584,2.724 -3.342,5.285 -5.254,7.649 -0.258,0.34 -0.524,0.669 -0.803,0.987 -0.38,0.463 -0.771,0.915 -1.161,1.357 -0.329,0.37 -0.669,0.75 -1.019,1.11 -0.01,0.021 -0.021,0.031 -0.041,0.051 -0.986,1.06 -1.994,2.067 -3.022,3.013 -0.206,0.206 -0.422,0.391 -0.638,0.586 -0.35,0.319 -0.699,0.628 -1.059,0.926 -0.277,0.247 -0.565,0.483 -0.853,0.72 -0.74,0.606 -1.48,1.192 -2.23,1.737 -0.309,0.236 -0.628,0.463 -0.946,0.679 -0.514,0.37 -1.038,0.72 -1.563,1.059 -0.288,0.195 -0.586,0.381 -0.885,0.556 -1.049,0.648 -2.107,1.244 -3.156,1.758 -0.257,0.134 -0.514,0.257 -0.771,0.381 -0.258,0.123 -0.524,0.246 -0.803,0.37 -0.339,0.154 -0.678,0.298 -1.018,0.432 -0.134,0.062 -0.268,0.113 -0.4,0.154 -0.401,0.164 -0.812,0.318 -1.214,0.452 -0.504,0.186 -1.018,0.34 -1.521,0.483 -0.35,0.103 -0.709,0.195 -1.059,0.277 -0.021,0.011 -0.042,0.021 -0.072,0.021 -0.35,0.082 -0.699,0.165 -1.049,0.227 -0.093,0.021 -0.185,0.041 -0.277,0.051 -0.288,0.052 -0.576,0.104 -0.864,0.134 -0.411,0.063 -0.822,0.113 -1.233,0.134 -0.143,0.02 -0.277,0.031 -0.422,0.031 -0.329,0.02 -0.647,0.03 -0.966,0.03 h -0.041 c -0.319,0 -0.638,-0.01 -0.957,-0.03 -0.123,0 -0.246,-0.011 -0.369,-0.031 -0.288,-0.01 -0.587,-0.041 -0.895,-0.082 -0.063,0 -0.134,-0.011 -0.195,-0.02 -0.381,-0.052 -0.762,-0.113 -1.152,-0.186 -0.329,-0.051 -0.657,-0.123 -0.997,-0.205 -1.758,-0.401 -3.567,-1.008 -5.397,-1.82 -1.563,-0.688 -3.146,-1.521 -4.719,-2.487 -0.792,-0.483 -1.584,-0.998 -2.365,-1.543 -0.391,-0.277 -0.781,-0.555 -1.172,-0.843 -1.224,-0.895 -2.437,-1.871 -3.63,-2.92 -0.328,-0.298 -0.657,-0.597 -0.986,-0.904 -0.329,-0.299 -0.658,-0.607 -0.977,-0.905 -0.761,-0.729 -1.501,-1.48 -2.211,-2.272 -0.052,-0.041 -0.093,-0.092 -0.134,-0.133 -0.298,-0.319 -0.597,-0.649 -0.894,-0.987 -0.822,-0.926 -1.624,-1.882 -2.385,-2.879 -0.299,-0.36 -0.576,-0.729 -0.854,-1.101 -1.039,-1.377 -2.025,-2.816 -2.951,-4.308 -0.246,-0.401 -0.493,-0.812 -0.729,-1.213 -0.288,-0.483 -0.565,-0.977 -0.843,-1.47 -1.028,-1.851 -1.975,-3.773 -2.797,-5.758 -0.123,-0.288 -0.247,-0.576 -0.35,-0.864 -0.165,-0.37 -0.309,-0.751 -0.442,-1.12 -0.205,-0.546 -0.4,-1.09 -0.586,-1.635 -0.185,-0.545 -0.359,-1.1 -0.534,-1.655 C 54.356,98.612 54.202,98.078 54.058,97.533 53.893,96.957 53.739,96.371 53.606,95.775 53.595,95.713 53.575,95.651 53.564,95.59 53.369,94.768 53.195,93.935 53.041,93.092 52.835,91.982 52.671,90.851 52.547,89.71 52.496,89.35 52.465,88.99 52.434,88.63 52.393,88.25 52.363,87.88 52.342,87.499 52.29,86.81 52.259,86.111 52.238,85.412 52.228,84.96 52.217,84.507 52.217,84.055 V 58.277 c 0,-22.341 17.51,-40.601 39.562,-41.794 0.042,-0.011 0.072,-0.011 0.113,-0.011 0.288,-0.01 0.576,-0.021 0.864,-0.031 0.432,-0.01 0.853,-0.021 1.285,-0.021 h 0.041 c 0.441,0 0.884,0.01 1.326,0.021 0.339,0.01 0.679,0.021 1.018,0.042 h 0.031 c 2.354,0.133 4.668,0.462 6.898,0.966 2.725,0.617 5.347,1.501 7.834,2.622 3.394,1.521 6.55,3.475 9.388,5.809 2.385,1.954 4.555,4.154 6.446,6.58 5.511,7.022 8.831,15.844 8.903,25.446 0.012,0.124 0.012,0.247 0.012,0.371 z"
   style="fill:#f0d0b4" /><path
   sodipodi:nodetypes="cccccsccccccccccccccccccccccccccccscc"
   inkscape:connector-curvature="0"
   id="path14"
   d="m 142.2371,174.88462 c -34.61955,-0.31916 -61.221275,2.30273 -96.71782,-0.14949 10.582168,-9.12879 -2.29645,2.60333 5.95672,-8.04213 0.658,-0.812 1.327,-1.604 2.016,-2.364 0.339,-0.391 0.699,-0.771 1.059,-1.151 0.36,-0.37 0.72,-0.74 1.09,-1.11 1.841,-1.841 3.814,-3.526 5.892,-5.079 1.038,-0.771 2.087,-1.491 3.177,-2.19 0.144,-0.092 0.288,-0.185 0.432,-0.267 0.401,-0.258 0.802,-0.504 1.214,-0.74 0.555,-0.329 1.12,-0.648 1.686,-0.957 0.021,-0.02 0.041,-0.02 0.041,-0.02 0.442,-0.236 0.874,-0.493 1.306,-0.761 1.285,-0.771 2.52,-1.624 3.691,-2.57 4.966,-3.947 8.811,-9.253 11.001,-15.34 0.638,-1.789 1.141,-3.649 1.48,-5.561 0.35,-1.975 0.535,-4.01 0.535,-6.087 l 7.947,0.041 h 0.133 l 8.04,0.041 c 0,2.036 0.175,4.03 0.515,5.974 0.329,1.912 0.822,3.763 1.449,5.542 2.159,6.106 5.994,11.433 10.96,15.401 0.74,0.606 1.491,1.161 2.282,1.686 0.083,0.063 0.154,0.113 0.237,0.165 0.37,0.247 0.74,0.493 1.131,0.72 0.421,0.257 0.854,0.514 1.285,0.75 0.071,0.02 0.134,0.052 0.185,0.093 0.905,0.504 1.8,1.028 2.674,1.573 0.071,0.041 0.133,0.082 0.205,0.134 0.35,0.216 0.71,0.441 1.049,0.689 0.854,0.545 1.687,1.142 2.498,1.759 0,0.01 0.011,0.01 0.011,0.01 h 0.01 c 1.039,0.771 2.046,1.594 3.033,2.437 0.987,0.843 1.933,1.728 2.848,2.643 10.37559,11.17519 1.10502,1.79142 9.6491,12.73062 z"
   style="fill:#f0d0b4" /><path
   sodipodi:nodetypes="cccccsccccccccccccccccccccccccccc"
   inkscape:connector-curvature="0"
   id="path16"
   d="m 142.2371,174.88462 c -29.30345,17.53973 -68.188714,17.48511 -96.71782,-0.14949 2.432459,-4.59626 4.283934,-5.82131 5.95672,-8.04213 0.658,-0.812 1.327,-1.604 2.016,-2.364 0.339,-0.391 0.699,-0.771 1.059,-1.151 0.36,-0.37 0.72,-0.74 1.09,-1.11 1.841,-1.841 3.814,-3.526 5.892,-5.079 1.038,-0.771 2.087,-1.491 3.177,-2.19 0.144,-0.092 0.288,-0.185 0.432,-0.267 0.401,-0.258 0.802,-0.504 1.214,-0.74 0.555,-0.34 1.12,-0.658 1.686,-0.967 0.021,-0.021 0.041,-0.011 0.041,-0.011 v -0.01 c 0.442,-0.247 0.874,-0.493 1.306,-0.751 1.285,-0.781 2.52,-1.645 3.671,-2.591 0.01,0.011 0.01,0.011 0.021,0.021 5.325,5.449 12.738,8.832 20.964,8.853 h 0.133 c 8.205,-0.011 15.628,-3.403 20.964,-8.842 l 0.011,-0.011 c 0.729,0.606 1.49,1.172 2.271,1.696 0.083,0.063 0.154,0.113 0.237,0.165 0.37,0.247 0.75,0.483 1.131,0.72 0.421,0.257 0.854,0.504 1.285,0.74 0.071,0.021 0.123,0.062 0.185,0.093 0.905,0.503 1.8,1.027 2.674,1.583 0.071,0.041 0.133,0.082 0.205,0.134 0.35,0.216 0.71,0.441 1.049,0.689 0.854,0.545 1.687,1.142 2.498,1.759 h 0.021 c 1.039,0.781 2.057,1.593 3.033,2.446 0.987,0.843 1.933,1.728 2.848,2.643 4.79709,4.9973 4.72574,4.3729 9.6471,12.73362 z"
   style="fill:#b34fc5" /><path
   sodipodi:nodetypes="cccccsccscccccccsccccccc"
   inkscape:connector-curvature="0"
   id="path18"
   d="m 149.45879,170.09682 c 1.6192,3.13153 -3.19718,-2.12855 -3.28018,-2.11955 -5.407,1.408 -23.34861,-21.61027 -23.56461,-48.54727 -0.01,-2.17 0.103,-4.35 0.381,-6.539 0.72,-5.809 3.517,-11.392 5.84,-17.016 1.83,-4.452 3.382,-8.914 3.382,-13.52 0,-24.675 -7.155,-16.635 -27.111,-29.95 -4.822,-3.208 -8.246,-5.84 -10.93,-7.979 -7.412,-5.881 -9.294,-7.988 -19.462,-7.988 -12.935,0 -18.075,22.464 -19.545,32.067 -1.583,10.333 -1.604,27.081 4.843,43.027 4.995,12.356 -10.350817,45.7961 -20.189817,59.2541 -0.47551,-0.52022 -9.318382,-5.52832 -18.922195,-17.36646 C 19.053898,145.19612 24.222,136.803 29.98,117.073 36.18,95.842 38.051,74.323 42.554,52.886 47.632,28.749 68.297,14.036 76.646,20 c 2.786,-4.997 10.076,-6.868 17.529,-6.868 5.46,0 11.022,1.018 14.97,2.55 30.484,11.834 30.999,40.087 32.623,51.838 1.337,9.706 6.117,18.774 7.793,28.356 v 0.031 c 0.36,2.015 0.576,4.071 0.587,6.148 0.071,11.217 -1.183,18.805 7.341,28.15 6.466,7.084 0.79423,35.11192 -8.03021,39.89182 z"
   style="fill:#421800" /><path
   style="fill:#e7ecf2"
   d="m 94.175,158.335 -0.03,0.052 -0.011,0.02 c -2.899,4.503 -7.7,6.847 -12.543,6.847 -3.938,0 -7.896,-1.552 -10.867,-4.739 l -5.583,-5.983 c 0.946,-0.607 1.912,-1.173 2.899,-1.707 0.021,-0.021 0.041,-0.011 0.041,-0.011 v -0.01 c 0.442,-0.247 0.874,-0.493 1.306,-0.751 1.285,-0.781 2.52,-1.645 3.671,-2.591 0.01,0.011 0.01,0.011 0.021,0.021 5.325,5.449 12.738,8.832 20.964,8.853 h 0.132 z"
   id="path20"
   inkscape:connector-curvature="0" /><path
   style="fill:#e7ecf2"
   d="m 123.138,154.613 -5.5,5.901 c -2.972,3.188 -6.93,4.739 -10.878,4.739 -4.832,0 -9.644,-2.344 -12.533,-6.847 l -0.01,-0.02 -0.042,-0.052 c 8.205,-0.011 15.628,-3.403 20.964,-8.842 l 0.011,-0.011 c 0.729,0.606 1.49,1.172 2.271,1.696 0.083,0.063 0.154,0.113 0.237,0.165 0.37,0.247 0.75,0.483 1.131,0.72 0.421,0.257 0.854,0.504 1.285,0.74 0.071,0.021 0.123,0.062 0.185,0.093 0.905,0.503 1.8,1.027 2.674,1.583 0.071,0.042 0.132,0.083 0.205,0.135 z"
   id="path22"
   inkscape:connector-curvature="0" />
<g
   id="g32">
</g>
<g
   id="g34">
</g>
<g
   id="g36">
</g>
<g
   id="g38">
</g>
<g
   id="g40">
</g>
<g
   id="g42">
</g>
<g
   id="g44">
</g>
<g
   id="g46">
</g>
<g
   id="g48">
</g>
<g
   id="g50">
</g>
<g
   id="g52">
</g>
<g
   id="g54">
</g>
<g
   id="g56">
</g>
<g
   id="g58">
</g>
<g
   id="g60">
</g>
</svg>