<?xml version="1.0" encoding="UTF-8" standalone="no"?>
<!-- Generator: Adobe Illustrator 18.0.0, SVG Export Plug-In . SVG Version: 6.00 Build 0)  -->

<svg
   xmlns:dc="http://purl.org/dc/elements/1.1/"
   xmlns:cc="http://creativecommons.org/ns#"
   xmlns:rdf="http://www.w3.org/1999/02/22-rdf-syntax-ns#"
   xmlns:svg="http://www.w3.org/2000/svg"
   xmlns="http://www.w3.org/2000/svg"
   xmlns:xlink="http://www.w3.org/1999/xlink"
   xmlns:sodipodi="http://sodipodi.sourceforge.net/DTD/sodipodi-0.dtd"
   xmlns:inkscape="http://www.inkscape.org/namespaces/inkscape"
   version="1.1"
   id="Capa_1"
   x="0px"
   y="0px"
   viewBox="0 0 188.149 188.149"
   style="enable-background:new 0 0 188.149 188.149;"
   xml:space="preserve"
   sodipodi:docname="avatar_6.svg"
   inkscape:version="0.92.3 (2405546, 2018-03-11)"><metadata
   id="metadata57"><rdf:RDF><cc:Work
       rdf:about=""><dc:format>image/svg+xml</dc:format><dc:type
         rdf:resource="http://purl.org/dc/dcmitype/StillImage" /><dc:title></dc:title></cc:Work></rdf:RDF></metadata><defs
   id="defs55">
	

		<defs
   id="defs3">
			<circle
   id="SVGID_1_"
   cx="94.073997"
   cy="94.074997"
   r="94.073997" />
		</defs>
		
		<clipPath
   id="SVGID_2_">
			<use
   xlink:href="#SVGID_1_"
   style="overflow:visible"
   id="use7"
   x="0"
   y="0"
   width="100%"
   height="100%" />
		</clipPath>
		
		
		
		
	</defs><sodipodi:namedview
   pagecolor="#ffffff"
   bordercolor="#666666"
   borderopacity="1"
   objecttolerance="10"
   gridtolerance="10"
   guidetolerance="10"
   inkscape:pageopacity="0"
   inkscape:pageshadow="2"
   inkscape:window-width="1366"
   inkscape:window-height="706"
   id="namedview53"
   showgrid="false"
   inkscape:pagecheckerboard="true"
   inkscape:zoom="1.7738834"
   inkscape:cx="55.890306"
   inkscape:cy="106.06796"
   inkscape:window-x="-8"
   inkscape:window-y="-8"
   inkscape:window-maximized="1"
   inkscape:current-layer="Capa_1" />
<use
   xlink:href="#SVGID_1_"
   style="overflow:visible;fill:#e6e7e2"
   id="use5"
   x="0"
   y="0"
   width="100%"
   height="100%" /><path
   style="fill:#ecc19c"
   d="m 126.708,153.946 h -0.02 c -2.041,-1.545 -4.178,-2.919 -6.429,-4.159 -0.058,-0.038 -0.115,-0.076 -0.191,-0.095 -10.646,-5.876 -17.857,-17.209 -17.857,-30.239 L 86.09,119.376 c 0,13.069 -7.269,24.459 -18.01,30.315 0,0 -0.019,0 -0.038,0.019 -2.271,1.24 -4.445,2.633 -6.506,4.159 -6.942516,8.2488 -9.951456,9.40818 -16.716275,20.36596 l 98.507545,0.0249 C 135.65482,160.84934 134.92359,161.59293 126.708,153.946 Z"
   clip-path="url(#SVGID_2_)"
   id="path10"
   inkscape:connector-curvature="0"
   sodipodi:nodetypes="cccccccccccc" /><path
   style="fill:#168ef7"
   d="m 143.32727,174.25986 c -30.8304,18.38949 -66.956758,18.76912 -98.507545,-0.0249 4.883105,-9.01488 7.147172,-12.6742 16.715275,-20.37196 2.061,-1.526 4.235,-2.919 6.505,-4.159 0.02,-0.019 0.039,-0.019 0.039,-0.019 1.755,-0.973 3.434,-2.08 4.979,-3.339 5.342,5.476 12.802,8.872 21.063,8.872 8.242,0 15.683,-3.396 21.024,-8.853 1.526,1.259 3.187,2.366 4.922,3.32 0.076,0.019 0.134,0.057 0.191,0.095 2.251,1.24 4.388,2.614 6.429,4.159 h 0.02 c 7.31869,5.75448 11.787,10.4471 16.62027,20.32086 z"
   clip-path="url(#SVGID_2_)"
   id="path12"
   inkscape:connector-curvature="0"
   sodipodi:nodetypes="ccccccscccccc" /><path
   style="fill:#ecc19c"
   d="m 52.217,38.091 v 42.836 c 0,28.976 25.437,52.465 41.858,52.465 16.419,0 41.858,-23.489 41.858,-52.465 V 38.091 Z"
   clip-path="url(#SVGID_2_)"
   id="path14"
   inkscape:connector-curvature="0" /><path
   style="fill:#494846"
   d="M 129.114,30.207 C 119.991,18.784 106.142,11.481 90.651,11.481 c -27.521,0 -49.81,22.972 -49.81,51.301 0,15.036 6.267,28.556 16.274,37.932 -2.578,-6.47 -4.018,-13.722 -4.018,-21.38 0,-12.307 3.74,-23.578 9.957,-32.246 6.596,2.932 17.286,3.993 29.011,2.376 11.625,-1.592 21.531,-5.433 27.116,-10.007 10.185,8.996 16.806,23.502 16.806,39.877 0,8.39 -1.719,16.275 -4.802,23.199 9.83,-4.069 17.058,-18.574 17.058,-35.835 0,-18.473 -8.289,-33.711 -19.129,-36.491 z"
   clip-path="url(#SVGID_2_)"
   id="path16"
   inkscape:connector-curvature="0" />
<g
   id="g22">
</g>
<g
   id="g24">
</g>
<g
   id="g26">
</g>
<g
   id="g28">
</g>
<g
   id="g30">
</g>
<g
   id="g32">
</g>
<g
   id="g34">
</g>
<g
   id="g36">
</g>
<g
   id="g38">
</g>
<g
   id="g40">
</g>
<g
   id="g42">
</g>
<g
   id="g44">
</g>
<g
   id="g46">
</g>
<g
   id="g48">
</g>
<g
   id="g50">
</g>
</svg>