<?xml version="1.0" encoding="UTF-8" standalone="no"?>
<!-- Generator: Adobe Illustrator 19.0.0, SVG Export Plug-In . SVG Version: 6.00 Build 0)  -->

<svg
   xmlns:dc="http://purl.org/dc/elements/1.1/"
   xmlns:cc="http://creativecommons.org/ns#"
   xmlns:rdf="http://www.w3.org/1999/02/22-rdf-syntax-ns#"
   xmlns:svg="http://www.w3.org/2000/svg"
   xmlns="http://www.w3.org/2000/svg"
   xmlns:sodipodi="http://sodipodi.sourceforge.net/DTD/sodipodi-0.dtd"
   xmlns:inkscape="http://www.inkscape.org/namespaces/inkscape"
   version="1.1"
   id="Capa_1"
   x="0px"
   y="0px"
   viewBox="0 0 256 256"
   xml:space="preserve"
   sodipodi:docname="design.svg"
   width="256"
   height="256"
   inkscape:version="0.92.3 (2405546, 2018-03-11)"><metadata
   id="metadata63"><rdf:RDF><cc:Work
       rdf:about=""><dc:format>image/svg+xml</dc:format><dc:type
         rdf:resource="http://purl.org/dc/dcmitype/StillImage" /><dc:title></dc:title></cc:Work></rdf:RDF></metadata><defs
   id="defs61" /><sodipodi:namedview
   pagecolor="#ffffff"
   bordercolor="#666666"
   borderopacity="1"
   objecttolerance="10"
   gridtolerance="10"
   guidetolerance="10"
   inkscape:pageopacity="0"
   inkscape:pageshadow="2"
   inkscape:window-width="1366"
   inkscape:window-height="706"
   id="namedview59"
   showgrid="false"
   inkscape:zoom="1.0042105"
   inkscape:cx="61.542842"
   inkscape:cy="207.83311"
   inkscape:window-x="-8"
   inkscape:window-y="-8"
   inkscape:window-maximized="1"
   inkscape:current-layer="Capa_1" />
<g
   id="g26"
   transform="matrix(0.54040285,0,0,0.54040282,0.99985239,0.99986493)">
	<path
   style="fill:#fadd60"
   d="m 229.699,137.793 -28.284,28.284 c -1.465,1.464 -3.385,2.196 -5.304,2.196 -1.919,0 -3.839,-0.732 -5.304,-2.196 -2.929,-2.93 -2.929,-7.678 0,-10.607 l 22.98,-22.98 -20.058,-20.058 -22.98,22.98 c -1.465,1.464 -3.385,2.196 -5.304,2.196 -1.919,0 -3.839,-0.732 -5.304,-2.196 -2.929,-2.93 -2.929,-7.678 0,-10.607 l 22.98,-22.98 -20.057,-20.058 -22.981,22.98 c -1.465,1.464 -3.385,2.196 -5.304,2.196 -1.919,0 -3.839,-0.732 -5.304,-2.196 -2.929,-2.93 -2.929,-7.678 0,-10.607 L 152.456,71.16 99.425,18.126 18.108,99.443 137.775,219.109 c 2.929,2.93 2.929,7.678 0,10.607 l 10.606,10.605 91.924,-91.924 z M 101.194,101.211 c -4.251,4.25 -9.901,6.59 -15.91,6.591 -6.01,-0.001 -11.66,-2.341 -15.91,-6.59 -8.772,-8.773 -8.772,-23.048 -10e-4,-31.82 4.25,-4.25 9.901,-6.59 15.91,-6.59 6.01,-10e-4 11.66,2.34 15.91,6.589 8.772,8.773 8.772,23.047 0.001,31.82 z"
   id="path2"
   inkscape:connector-curvature="0" />
	<path
   style="fill:#fadd60"
   d="m 250.912,332.246 119.666,119.667 81.317,-81.317 -53.033,-53.032 -22.981,22.98 c -1.465,1.464 -3.385,2.196 -5.304,2.196 -1.919,0 -3.839,-0.732 -5.304,-2.196 -2.929,-2.93 -2.929,-7.678 0,-10.607 l 22.981,-22.98 -20.058,-20.058 -22.98,22.98 c -1.465,1.464 -3.385,2.196 -5.304,2.196 -1.919,0 -3.839,-0.732 -5.304,-2.196 -2.929,-2.93 -2.929,-7.678 0,-10.607 l 22.98,-22.98 -20.058,-20.058 -22.98,22.98 c -1.465,1.464 -3.385,2.196 -5.304,2.196 -1.919,0 -3.839,-0.732 -5.304,-2.196 -2.929,-2.93 -2.929,-7.678 0,-10.607 l 28.284,-28.284 -10.606,-10.606 -91.924,91.925 10.606,10.605 c 2.932,-2.929 7.68,-2.929 10.61,-0.001 z m 117.897,36.582 c 4.251,-4.25 9.901,-6.59 15.911,-6.59 6.009,0 11.659,2.34 15.909,6.589 8.772,8.773 8.772,23.048 10e-4,31.82 -4.251,4.25 -9.901,6.591 -15.91,6.591 -6.01,0 -11.66,-2.341 -15.91,-6.59 -8.772,-8.773 -8.772,-23.047 -10e-4,-31.82 z"
   id="path4"
   inkscape:connector-curvature="0" />
	<path
   style="fill:#000000"
   d="m 85.284,62.802 c -6.01,0 -11.661,2.34 -15.911,6.59 -8.771,8.772 -8.771,23.047 10e-4,31.82 4.25,4.249 9.9,6.589 15.91,6.59 6.009,-0.001 11.659,-2.341 15.91,-6.591 8.771,-8.772 8.771,-23.047 -0.001,-31.82 -4.25,-4.249 -9.9,-6.59 -15.909,-6.589 z m 5.303,27.802 c -1.417,1.417 -3.301,2.197 -5.304,2.197 -2.004,0 -3.888,-0.78 -5.304,-2.196 -2.924,-2.925 -2.924,-7.684 -0.001,-10.607 1.417,-1.417 3.301,-2.196 5.305,-2.196 2.003,0 3.887,0.779 5.303,2.195 2.924,2.925 2.924,7.684 0.001,10.607 z"
   id="path6"
   inkscape:connector-curvature="0" />
	<path
   style="fill:#000000"
   d="m 384.72,407.238 c 6.009,0 11.659,-2.341 15.91,-6.591 8.771,-8.772 8.771,-23.047 -10e-4,-31.82 -4.25,-4.249 -9.9,-6.589 -15.909,-6.589 -6.01,0 -11.66,2.34 -15.911,6.59 -8.771,8.772 -8.771,23.047 10e-4,31.82 4.25,4.249 9.901,6.59 15.91,6.59 z m -5.304,-27.803 c 1.417,-1.417 3.301,-2.196 5.305,-2.196 2.003,0 3.887,0.779 5.303,2.195 2.924,2.925 2.924,7.684 10e-4,10.607 -1.417,1.417 -3.301,2.197 -5.304,2.197 -2.004,0 -3.888,-0.78 -5.304,-2.196 -2.924,-2.925 -2.924,-7.684 -10e-4,-10.607 z"
   id="path8"
   inkscape:connector-curvature="0" />
	<path
   style="fill:#000000"
   d="M 137.775,219.109 18.108,99.443 99.425,18.126 l 53.032,53.033 -22.981,22.98 c -2.929,2.93 -2.929,7.678 0,10.607 1.465,1.464 3.385,2.196 5.304,2.196 1.919,0 3.839,-0.732 5.304,-2.196 l 22.981,-22.98 20.057,20.058 -22.98,22.98 c -2.929,2.93 -2.929,7.678 0,10.607 1.465,1.464 3.385,2.196 5.304,2.196 1.919,0 3.839,-0.732 5.304,-2.196 l 22.98,-22.98 20.058,20.058 -22.98,22.98 c -2.929,2.93 -2.929,7.678 0,10.607 1.465,1.464 3.385,2.196 5.304,2.196 1.919,0 3.839,-0.732 5.304,-2.196 L 229.7,137.792 c 2.928,-2.93 2.928,-7.678 0,-10.607 L 104.729,2.216 c -2.93,-2.928 -7.678,-2.928 -10.607,0 L 2.198,94.14 c -2.929,2.93 -2.929,7.678 0,10.607 l 124.97,124.97 c 1.465,1.464 3.385,2.196 5.304,2.196 1.919,0 3.839,-0.732 5.304,-2.196 2.928,-2.93 2.928,-7.678 -0.001,-10.608 z"
   id="path10"
   inkscape:connector-curvature="0" />
	<path
   style="fill:#000000"
   d="m 342.836,240.322 c -2.93,-2.928 -7.677,-2.928 -10.607,0 l -28.284,28.284 c -2.929,2.93 -2.929,7.678 0,10.607 1.465,1.464 3.385,2.196 5.304,2.196 1.919,0 3.839,-0.732 5.304,-2.196 l 22.98,-22.98 20.058,20.058 -22.98,22.98 c -2.929,2.93 -2.929,7.678 0,10.607 1.465,1.464 3.385,2.196 5.304,2.196 1.919,0 3.839,-0.732 5.304,-2.196 l 22.98,-22.98 20.058,20.058 -22.981,22.98 c -2.929,2.93 -2.929,7.678 0,10.607 1.465,1.464 3.385,2.196 5.304,2.196 1.919,0 3.839,-0.732 5.304,-2.196 l 22.981,-22.98 53.033,53.032 -81.317,81.317 -119.669,-119.666 c -2.93,-2.928 -7.677,-2.928 -10.607,0 -2.929,2.93 -2.929,7.678 0,10.607 l 124.97,124.97 c 1.465,1.464 3.385,2.196 5.304,2.196 1.919,0 3.839,-0.732 5.304,-2.196 l 91.924,-91.924 c 2.929,-2.93 2.929,-7.678 0,-10.607 z"
   id="path12"
   inkscape:connector-curvature="0" />
	<path
   style="fill:#aed581"
   d="m 356.689,123.939 -30.052,30.052 c -1.465,1.464 -3.385,2.196 -5.304,2.196 -1.919,0 -3.839,-0.732 -5.304,-2.196 -2.929,-2.93 -2.929,-7.678 0,-10.607 L 346.081,113.332 321.333,88.584 70.192,339.726 c 3.443,2.019 6.652,4.489 9.528,7.364 5.88,5.88 9.975,13.012 12.035,20.57 L 287.747,171.668 c 2.93,-2.928 7.678,-2.928 10.607,0 2.929,2.93 2.929,7.678 0,10.607 L 102.361,378.268 c 7.558,2.06 14.69,6.154 20.57,12.034 2.875,2.876 5.346,6.084 7.364,9.527 L 381.437,148.687 Z"
   id="path14"
   inkscape:connector-curvature="0" />
	
		<rect
   x="358.73199"
   y="57.655998"
   transform="matrix(0.7071,-0.7071,0.7071,0.7071,37.5098,290.8692)"
   style="fill:#ff7043"
   width="22.266001"
   height="85"
   id="rect16" />
	<polygon
   style="fill:#263238"
   points="44.328,439.245 30.776,425.692 21.29,448.731 "
   id="polygon18" />
	<path
   style="fill:#ffab91"
   d="m 112.324,400.909 c -7.087,-7.087 -16.71,-10.372 -25.742,-8.784 -2.408,0.424 -4.873,-0.354 -6.603,-2.083 -1.729,-1.729 -2.507,-4.193 -2.083,-6.603 1.588,-9.031 -1.696,-18.655 -8.784,-25.742 -2.366,-2.367 -5.054,-4.32 -7.942,-5.816 l -24.206,58.785 22.392,22.391 58.784,-24.205 c -1.496,-2.889 -3.45,-5.577 -5.816,-7.943 z"
   id="path20"
   inkscape:connector-curvature="0" />
	<path
   style="fill:#ef5350"
   d="m 418.396,111.729 30.052,-30.053 c 8.772,-8.772 8.772,-23.047 0,-31.819 L 420.164,21.573 c -8.773,-8.772 -23.047,-8.772 -31.82,0 l -14.143,14.144 c -2.93,2.928 -7.678,2.928 -10.607,0 l -10.605,10.605 z"
   id="path22"
   inkscape:connector-curvature="0" />
	<path
   style="fill:#000000"
   d="m 397.34,153.999 c 0.016,-0.016 61.715,-61.716 61.715,-61.716 14.62,-14.621 14.62,-38.412 0,-53.033 L 430.771,10.966 c -14.621,-14.619 -38.411,-14.623 -53.034,0 L 363.593,25.11 c -2.929,2.93 -2.929,7.678 0,10.607 2.93,2.928 7.678,2.928 10.607,0 l 14.143,-14.144 c 8.773,-8.772 23.047,-8.772 31.82,0 l 28.284,28.284 c 8.772,8.772 8.772,23.047 0,31.819 l -30.052,30.053 -65.408,-65.407 c -2.93,-2.928 -7.677,-2.928 -10.607,0 l -26.342,26.342 c -0.018,0.018 -75.734,75.734 -75.734,75.734 l -91.924,91.924 -96.686,96.686 c -0.015,0.015 -0.027,0.031 -0.042,0.047 -0.063,0.064 -0.121,0.133 -0.181,0.2 -0.592,0.647 -1.073,1.388 -1.408,2.201 l -28.872,70.116 c -0.01,0.024 -0.02,0.048 -0.029,0.071 L 0.565,459.665 c -1.152,2.8 -0.509,6.018 1.632,8.159 1.436,1.435 3.354,2.196 5.306,2.196 0.961,0 1.93,-0.185 2.854,-0.564 l 50.027,-20.6 c 0.019,-0.008 0.038,-0.016 0.058,-0.023 l 70.124,-28.875 c 0.817,-0.337 1.561,-0.821 2.211,-1.417 0.063,-0.057 0.127,-0.111 0.188,-0.17 0.016,-0.016 0.034,-0.029 0.05,-0.045 l 96.686,-96.686 91.924,-91.925 z M 59.356,433.057 36.964,410.666 61.17,351.881 c 2.888,1.496 5.576,3.449 7.942,5.816 7.088,7.087 10.372,16.711 8.784,25.742 -0.424,2.409 0.354,4.873 2.083,6.603 1.729,1.729 4.194,2.507 6.603,2.083 9.032,-1.588 18.655,1.697 25.742,8.784 2.367,2.366 4.32,5.054 5.816,7.942 z m 63.575,-42.755 c -5.88,-5.88 -13.012,-9.975 -20.57,-12.034 L 298.353,182.276 c 2.929,-2.93 2.929,-7.678 0,-10.607 -2.93,-2.928 -7.678,-2.928 -10.607,0 L 91.754,367.66 c -2.06,-7.559 -6.155,-14.69 -12.035,-20.57 -2.876,-2.875 -6.084,-5.346 -9.528,-7.364 l 251.143,-251.142 24.748,24.748 -30.052,30.052 c -2.929,2.93 -2.929,7.678 0,10.607 1.465,1.464 3.385,2.196 5.304,2.196 1.919,0 3.839,-0.732 5.304,-2.196 l 30.052,-30.052 24.749,24.748 -251.144,251.142 c -2.018,-3.443 -4.488,-6.651 -7.364,-9.527 z M 392.045,138.08 331.941,77.976 l 15.744,-15.744 60.104,60.104 z m -361.269,287.612 13.552,13.553 -23.039,9.486 z"
   id="path24"
   inkscape:connector-curvature="0" />
</g>
<g
   id="g28"
   transform="translate(0,-214.021)">
</g>
<g
   id="g30"
   transform="translate(0,-214.021)">
</g>
<g
   id="g32"
   transform="translate(0,-214.021)">
</g>
<g
   id="g34"
   transform="translate(0,-214.021)">
</g>
<g
   id="g36"
   transform="translate(0,-214.021)">
</g>
<g
   id="g38"
   transform="translate(0,-214.021)">
</g>
<g
   id="g40"
   transform="translate(0,-214.021)">
</g>
<g
   id="g42"
   transform="translate(0,-214.021)">
</g>
<g
   id="g44"
   transform="translate(0,-214.021)">
</g>
<g
   id="g46"
   transform="translate(0,-214.021)">
</g>
<g
   id="g48"
   transform="translate(0,-214.021)">
</g>
<g
   id="g50"
   transform="translate(0,-214.021)">
</g>
<g
   id="g52"
   transform="translate(0,-214.021)">
</g>
<g
   id="g54"
   transform="translate(0,-214.021)">
</g>
<g
   id="g56"
   transform="translate(0,-214.021)">
</g>
</svg>