<?xml version="1.0" encoding="UTF-8" standalone="no"?>
<!-- Generator: Adobe Illustrator 19.1.0, SVG Export Plug-In . SVG Version: 6.00 Build 0)  -->

<svg
   xmlns:dc="http://purl.org/dc/elements/1.1/"
   xmlns:cc="http://creativecommons.org/ns#"
   xmlns:rdf="http://www.w3.org/1999/02/22-rdf-syntax-ns#"
   xmlns:svg="http://www.w3.org/2000/svg"
   xmlns="http://www.w3.org/2000/svg"
   xmlns:sodipodi="http://sodipodi.sourceforge.net/DTD/sodipodi-0.dtd"
   xmlns:inkscape="http://www.inkscape.org/namespaces/inkscape"
   version="1.1"
   id="Capa_1"
   x="0px"
   y="0px"
   viewBox="0 0 256 256"
   xml:space="preserve"
   sodipodi:docname="idea.svg"
   width="256"
   height="256"
   inkscape:version="0.92.3 (2405546, 2018-03-11)"><metadata
   id="metadata73"><rdf:RDF><cc:Work
       rdf:about=""><dc:format>image/svg+xml</dc:format><dc:type
         rdf:resource="http://purl.org/dc/dcmitype/StillImage" /><dc:title></dc:title></cc:Work></rdf:RDF></metadata><defs
   id="defs71" /><sodipodi:namedview
   pagecolor="#ffffff"
   bordercolor="#666666"
   borderopacity="1"
   objecttolerance="10"
   gridtolerance="10"
   guidetolerance="10"
   inkscape:pageopacity="0"
   inkscape:pageshadow="2"
   inkscape:window-width="1366"
   inkscape:window-height="706"
   id="namedview69"
   showgrid="false"
   inkscape:zoom="0.7321102"
   inkscape:cx="80.159159"
   inkscape:cy="170.04561"
   inkscape:window-x="-8"
   inkscape:window-y="-8"
   inkscape:window-maximized="1"
   inkscape:current-layer="Capa_1"
   showguides="true"
   inkscape:guide-bbox="true" />















<g
   id="g115"><path
     sodipodi:nodetypes="cczzzzsc"
     inkscape:connector-curvature="0"
     id="path75"
     d="m 100.05324,211.94925 54.63659,-0.34147 c 0.60494,-19.16813 1.9975,-31.54903 9.98716,-46.88037 7.98966,-15.33134 28.08746,-31.44383 28.25105,-58.19231 0.16358,-26.748482 -24.2559,-61.903266 -65.35331,-62.19714 -41.09742,-0.293875 -64.305749,36.175299 -64.853233,62.19714 -0.547484,26.02184 18.618861,41.80805 28.321761,58.63158 8.945775,15.51078 9.725532,32.67593 9.009982,46.78257 z"
     style="fill:#fdefba;stroke:none;stroke-width:1px;stroke-linecap:butt;stroke-linejoin:miter;stroke-opacity:1" /><g
     transform="matrix(0.58967276,0,0,0.55716417,-6.4100089,0.99999909)"
     id="g36">
	<path
   inkscape:connector-curvature="0"
   id="path2"
   d="m 408.68,180.74 c 4.14,0 7.5,3.36 7.5,7.5 0,4.14 -3.36,7.5 -7.5,7.5 h -42 c -4.15,0 -7.5,-3.36 -7.5,-7.5 0,-4.14 3.35,-7.5 7.5,-7.5 z" />
	<path
   inkscape:connector-curvature="0"
   id="path4"
   d="m 390.96,94.12 c 2.07,3.59 0.84,8.17 -2.74,10.25 l -36.36,20.99 c -1.18,0.68 -2.47,1 -3.75,1 -2.59,0 -5.11,-1.34 -6.5,-3.75 -2.07,-3.59 -0.84,-8.17 2.75,-10.24 l 36.36,-20.99 c 3.58,-2.08 8.17,-0.85 10.24,2.74 z" />
	<path
   inkscape:connector-curvature="0"
   id="path6"
   d="m 388.22,272.12 c 3.58,2.07 4.81,6.65 2.74,10.24 -1.39,2.41 -3.91,3.75 -6.5,3.75 -1.27,0 -2.56,-0.32 -3.74,-1 l -36.36,-20.99 c -3.59,-2.08 -4.82,-6.66 -2.75,-10.25 2.07,-3.59 6.66,-4.82 10.25,-2.74 z" />
	<path
   inkscape:connector-curvature="0"
   id="path8"
   d="m 344.93,186.93 c 0,25.74 -8.2,50.17 -23.72,70.63 -26.18,34.53 -39.87,74.88 -39.87,116.68 v 45.24 c 0,20.07 -16.33,36.4 -36.4,36.4 h -33.85 c -20.07,0 -36.4,-16.33 -36.4,-36.4 v -45.24 c 0,-41.35 -14.17,-82.72 -39.89,-116.5 -15.84,-20.8 -24.09,-45.66 -23.85,-71.89 0.27,-30.6 12.4,-59.48 34.14,-81.34 21.74,-21.85 50.57,-34.13 81.16,-34.56 31.56,-0.46 61.35,11.51 83.82,33.67 22.48,22.16 34.86,51.75 34.86,83.31 z m -35.67,61.56 c 13.52,-17.83 20.67,-39.12 20.67,-61.56 0,-27.51 -10.79,-53.31 -30.39,-72.63 -19.59,-19.32 -45.53,-29.72 -73.08,-29.35 -54.93,0.77 -100.02,46.1 -100.51,101.03 -0.21,22.87 6.98,44.54 20.79,62.68 27.11,35.6 42.3,79.09 42.93,122.76 h 76.53 c 0.61,-44.09 15.47,-86.54 43.06,-122.93 z m -42.92,170.99 v -2.37 l -76.65,-8.78 v 6.07 l 76.31,8.74 c 0.21,-1.19 0.34,-2.41 0.34,-3.66 z m 0,-17.47 v -15.59 h -76.65 v 6.81 z m -9.42,35.19 -64.57,-7.4 c 3.65,6.6 10.68,11.08 18.74,11.08 h 33.85 c 4.44,0 8.56,-1.36 11.98,-3.68 z" />
	<path
   inkscape:connector-curvature="0"
   id="path10"
   d="m 322.06,25.22 c 3.58,2.07 4.81,6.65 2.74,10.24 l -20.99,36.36 c -1.39,2.41 -3.91,3.75 -6.5,3.75 -1.27,0 -2.56,-0.32 -3.74,-1 -3.59,-2.07 -4.82,-6.66 -2.75,-10.25 l 20.99,-36.36 c 2.07,-3.59 6.66,-4.82 10.25,-2.74 z" />
	<path
   inkscape:connector-curvature="0"
   id="path12"
   d="m 317.93,186.93 c 0,2.81 -0.13,5.64 -0.38,8.41 -0.36,3.9 -3.63,6.82 -7.46,6.82 -0.23,0 -0.46,-0.01 -0.7,-0.03 -4.12,-0.38 -7.16,-4.03 -6.78,-8.16 0.21,-2.32 0.32,-4.69 0.32,-7.04 0,-41.35 -33.64,-74.99 -74.99,-74.99 -4.14,0 -7.5,-3.36 -7.5,-7.5 0,-4.14 3.36,-7.5 7.5,-7.5 49.62,0 89.99,40.37 89.99,89.99 z" />
	<path
   inkscape:connector-curvature="0"
   id="path14"
   d="m 306.74,212.61 c 3.81,1.64 5.56,6.05 3.92,9.86 -2.85,6.63 -6.54,12.94 -10.96,18.77 -1.47,1.95 -3.71,2.97 -5.98,2.97 -1.58,0 -3.17,-0.5 -4.53,-1.52 -3.3,-2.51 -3.94,-7.21 -1.44,-10.51 3.69,-4.87 6.76,-10.13 9.14,-15.65 1.64,-3.8 6.05,-5.56 9.85,-3.92 z" />
	<path
   inkscape:connector-curvature="0"
   id="path16"
   d="m 266.34,417.11 v 2.37 c 0,1.25 -0.13,2.47 -0.34,3.66 l -76.31,-8.74 v -6.07 z"
   style="fill:#ff9800" />
	<polygon
   id="polygon18"
   points="189.69,393.23 189.69,386.42 266.34,386.42 266.34,402.01 "
   style="fill:#ff9800" />
	<path
   inkscape:connector-curvature="0"
   id="path20"
   d="m 192.35,429.8 64.57,7.4 c -3.42,2.32 -7.54,3.68 -11.98,3.68 h -33.85 c -8.06,0 -15.09,-4.48 -18.74,-11.08 z"
   style="fill:#ff9800" />
	<path
   inkscape:connector-curvature="0"
   id="path22"
   d="m 235.44,7.5 v 42 c 0,4.14 -3.36,7.5 -7.5,7.5 -4.15,0 -7.5,-3.36 -7.5,-7.5 v -42 c 0,-4.14 3.35,-7.5 7.5,-7.5 4.14,0 7.5,3.36 7.5,7.5 z" />
	<path
   inkscape:connector-curvature="0"
   id="path24"
   d="m 205.04,302.29 c 1.29,3.94 -0.85,8.17 -4.79,9.47 -0.77,0.25 -1.56,0.38 -2.34,0.38 -3.15,0 -6.09,-2.01 -7.12,-5.16 -7.79,-23.69 -19.4,-45.76 -34.51,-65.59 -3.19,-4.19 -6.02,-8.66 -8.41,-13.28 -1.9,-3.68 -0.46,-8.21 3.22,-10.11 3.68,-1.9 8.21,-0.46 10.11,3.22 1.99,3.85 4.35,7.58 7.02,11.08 16.12,21.16 28.5,44.71 36.82,69.99 z" />
	<path
   inkscape:connector-curvature="0"
   id="path26"
   d="m 165.05,64.32 c 2.07,3.59 0.84,8.18 -2.74,10.25 -1.18,0.68 -2.47,1 -3.75,1 -2.59,0 -5.11,-1.34 -6.5,-3.75 L 131.07,35.46 c -2.07,-3.59 -0.84,-8.17 2.75,-10.24 3.58,-2.08 8.17,-0.85 10.24,2.74 z" />
	<path
   inkscape:connector-curvature="0"
   id="path28"
   d="m 153.77,198.21 c 0.61,4.1 -2.21,7.92 -6.31,8.53 -0.37,0.05 -0.75,0.08 -1.11,0.08 -3.66,0 -6.86,-2.67 -7.41,-6.39 -0.7,-4.7 -1.04,-9.53 -0.99,-14.34 0.03,-4.14 3.45,-7.46 7.56,-7.43 4.15,0.04 7.47,3.43 7.44,7.57 -0.04,4.03 0.24,8.06 0.82,11.98 z" />
	<path
   inkscape:connector-curvature="0"
   id="path30"
   d="m 111.52,112.37 c 3.58,2.07 4.81,6.65 2.74,10.24 -1.39,2.41 -3.91,3.75 -6.5,3.75 -1.27,0 -2.56,-0.32 -3.74,-1 L 67.66,104.37 c -3.59,-2.08 -4.82,-6.66 -2.75,-10.25 2.07,-3.59 6.66,-4.82 10.25,-2.74 z" />
	<path
   inkscape:connector-curvature="0"
   id="path32"
   d="m 114.26,253.87 c 2.07,3.59 0.84,8.17 -2.74,10.25 l -36.36,20.99 c -1.18,0.68 -2.47,1 -3.75,1 -2.59,0 -5.11,-1.34 -6.5,-3.75 -2.07,-3.59 -0.84,-8.17 2.75,-10.24 l 36.36,-20.99 c 3.58,-2.08 8.17,-0.85 10.24,2.74 z" />
	<path
   inkscape:connector-curvature="0"
   id="path34"
   d="m 89.2,180.74 c 4.14,0 7.5,3.36 7.5,7.5 0,4.14 -3.36,7.5 -7.5,7.5 h -42 c -4.15,0 -7.5,-3.36 -7.5,-7.5 0,-4.14 3.35,-7.5 7.5,-7.5 z" />
</g><g
     transform="translate(0,-199.88)"
     id="g38">
</g><g
     transform="translate(0,-199.88)"
     id="g40">
</g><g
     transform="translate(0,-199.88)"
     id="g42">
</g><g
     transform="translate(0,-199.88)"
     id="g44">
</g><g
     transform="translate(0,-199.88)"
     id="g46">
</g><g
     transform="translate(0,-199.88)"
     id="g48">
</g><g
     transform="translate(0,-199.88)"
     id="g50">
</g><g
     transform="translate(0,-199.88)"
     id="g52">
</g><g
     transform="translate(0,-199.88)"
     id="g54">
</g><g
     transform="translate(0,-199.88)"
     id="g56">
</g><g
     transform="translate(0,-199.88)"
     id="g58">
</g><g
     transform="translate(0,-199.88)"
     id="g60">
</g><g
     transform="translate(0,-199.88)"
     id="g62">
</g><g
     transform="translate(0,-199.88)"
     id="g64">
</g><g
     transform="translate(0,-199.88)"
     id="g66">
</g></g>
</svg>