<?xml version="1.0" encoding="UTF-8" standalone="no"?>
<!-- Generator: Adobe Illustrator 19.0.0, SVG Export Plug-In . SVG Version: 6.00 Build 0)  -->

<svg
   xmlns:dc="http://purl.org/dc/elements/1.1/"
   xmlns:cc="http://creativecommons.org/ns#"
   xmlns:rdf="http://www.w3.org/1999/02/22-rdf-syntax-ns#"
   xmlns:svg="http://www.w3.org/2000/svg"
   xmlns="http://www.w3.org/2000/svg"
   xmlns:sodipodi="http://sodipodi.sourceforge.net/DTD/sodipodi-0.dtd"
   xmlns:inkscape="http://www.inkscape.org/namespaces/inkscape"
   version="1.1"
   id="Layer_1"
   x="0px"
   y="0px"
   viewBox="0 0 256 256"
   xml:space="preserve"
   sodipodi:docname="rocket.svg"
   inkscape:version="0.92.3 (2405546, 2018-03-11)"
   width="256"
   height="256"><metadata
   id="metadata67"><rdf:RDF><cc:Work
       rdf:about=""><dc:format>image/svg+xml</dc:format><dc:type
         rdf:resource="http://purl.org/dc/dcmitype/StillImage" /><dc:title /></cc:Work></rdf:RDF></metadata><defs
   id="defs65" /><sodipodi:namedview
   pagecolor="#ffffff"
   bordercolor="#666666"
   borderopacity="1"
   objecttolerance="10"
   gridtolerance="10"
   guidetolerance="10"
   inkscape:pageopacity="0"
   inkscape:pageshadow="2"
   inkscape:window-width="1366"
   inkscape:window-height="706"
   id="namedview63"
   showgrid="false"
   inkscape:zoom="1.84375"
   inkscape:cx="54.549541"
   inkscape:cy="190.42457"
   inkscape:window-x="-8"
   inkscape:window-y="-8"
   inkscape:window-maximized="1"
   inkscape:current-layer="Layer_1" />








<g
   id="g84"
   transform="matrix(0.49611564,0,0,0.49609477,0.99392259,128.00023)"><g
     transform="translate(0,-256)"
     id="g6">
	<path
   inkscape:connector-curvature="0"
   id="path2"
   d="m 282.413,441.697 -54.165,54.165 c -10.386,10.386 -27.214,10.387 -37.599,0 -2.488,-2.488 -4.444,-5.426 -5.762,-8.626 -1.326,-3.192 -2.013,-6.646 -2.021,-10.173 v -55.49 -42.658 l 49.525,-49.525 50.024,50.024 c 2.905,2.905 5.311,6.114 7.244,9.519 9.458,16.793 7.044,38.473 -7.246,52.764 z"
   style="fill:#f44336" />
	<path
   inkscape:connector-curvature="0"
   id="path4"
   d="m 182.603,279.603 -49.525,49.525 H 90.404 34.929 c -3.519,0 -6.981,-0.696 -10.173,-2.021 -3.2,-1.318 -6.131,-3.266 -8.626,-5.762 -10.386,-10.386 -10.386,-27.214 0,-37.599 l 54.165,-54.165 c 14.29,-14.29 35.971,-16.704 52.766,-7.244 3.405,1.931 6.614,4.338 9.519,7.244 z"
   style="fill:#f44336" />
</g><g
     transform="translate(0,-256)"
     id="g12">
	<path
   inkscape:connector-curvature="0"
   id="path8"
   d="m 132.579,229.578 50.024,50.023 -49.525,49.525 H 90.405 c 4.174,-30.823 13.038,-62.277 26.297,-92.886 2.021,-4.657 4.142,-9.297 6.36,-13.905 3.403,1.932 6.611,4.338 9.517,7.243 z"
   style="fill:#d32f2f" />
	<path
   inkscape:connector-curvature="0"
   id="path10"
   d="m 289.657,388.932 c -4.616,2.226 -9.248,4.338 -13.905,6.359 -30.602,13.251 -62.055,22.115 -92.886,26.281 v -42.658 l 49.525,-49.525 50.024,50.024 c 2.904,2.905 5.31,6.114 7.242,9.519 z"
   style="fill:#d32f2f" />
</g><path
     inkscape:connector-curvature="0"
     id="path14"
     d="m 390.8,29.577 c -76.313,76.64 -172.104,115.877 -256.143,113.176 -11.647,-0.368 -21.051,-9.772 -21.427,-21.427 -2.701,-84.039 36.544,-179.822 113.176,-256.143 47.633,-47.438 102.822,-80.495 158.034,-98.075 6.473,-2.055 12.948,-3.912 19.406,-5.541 3.879,-0.982 7.751,-1.874 11.63,-2.692 22.483,-4.804 44.745,-6.981 66.262,-6.45 11.95,0.295 21.525,9.87 21.82,21.82 0.532,21.517 -1.637,43.787 -6.441,66.27 -0.818,3.879 -1.719,7.742 -2.7,11.622 -1.628,6.458 -3.487,12.931 -5.541,19.406 -17.58,55.212 -50.637,110.4 -98.076,158.034 z"
     style="fill:#ececec" /><g
     transform="translate(0,-256)"
     id="g20">
	<path
   inkscape:connector-curvature="0"
   id="path16"
   d="M 488.877,127.542 384.442,23.107 c 6.473,-2.055 12.948,-3.912 19.406,-5.541 3.879,-0.982 7.751,-1.874 11.63,-2.692 l 81.641,81.641 c -0.818,3.879 -1.719,7.742 -2.7,11.622 -1.631,6.457 -3.489,12.931 -5.542,19.405 z"
   style="fill:#e6e6e6" />
	<path
   inkscape:connector-curvature="0"
   id="path18"
   d="m 390.8,285.577 c -76.313,76.64 -172.104,115.877 -256.143,113.176 -11.647,-0.368 -21.051,-9.772 -21.427,-21.427 -2.701,-84.039 36.544,-179.822 113.176,-256.143 5.802,-5.77 11.712,-11.335 17.727,-16.68 -64.756,72.826 -97.658,159.925 -95.178,237.098 0.376,11.655 9.78,21.059 21.427,21.427 77.188,2.48 164.28,-30.414 237.09,-95.153 -5.344,5.999 -10.902,11.899 -16.672,17.702 z"
   style="fill:#cccccc" />
</g><path
     inkscape:connector-curvature="0"
     id="path22"
     d="m 497.117,-159.486 -81.641,-81.641 c 22.483,-4.804 44.745,-6.981 66.262,-6.45 11.95,0.295 21.525,9.87 21.82,21.82 0.533,21.518 -1.636,43.787 -6.441,66.271 z"
     style="fill:#f44336" /><circle
     id="circle24"
     r="45.757"
     cy="-110.67101"
     cx="366.65601"
     style="fill:#2196f3" /><path
     inkscape:connector-curvature="0"
     id="path26"
     d="m 399.018,-78.311 c -17.875,17.875 -46.849,17.875 -64.723,0 -17.866,-17.866 -17.866,-46.84 0.008,-64.715 3.421,-3.421 7.259,-6.195 11.344,-8.299 -8.921,17.22 -6.155,38.926 8.291,53.371 14.454,14.454 36.159,17.22 53.379,8.299 -2.103,4.084 -4.878,7.922 -8.299,11.344 z"
     style="fill:#1976d2" /><path
     inkscape:connector-curvature="0"
     id="path28"
     d="m 511.909,-225.958 c -0.24,-9.736 -4.978,-18.331 -12.22,-23.791 -4.955,-3.739 -11.082,-6.008 -17.744,-6.173 -22.107,-0.535 -45.06,1.685 -68.212,6.631 -0.025,0.006 -0.048,0.016 -0.072,0.021 -4.026,0.85 -8.015,1.774 -11.855,2.746 -65.813,16.637 -128.5,53.22 -181.287,105.795 -32.928,32.796 -60.338,70.658 -80.037,110.402 l -1.997,-1.996 c -3.357,-3.357 -7.16,-6.251 -11.326,-8.614 -20.393,-11.489 -46.203,-7.949 -62.766,8.613 L 10.227,21.84 c -13.62,13.621 -13.62,35.784 0.002,49.408 3.277,3.276 7.097,5.826 11.325,7.566 4.248,1.765 8.748,2.661 13.376,2.661 h 71.685 c -1.557,13.582 -2.146,27.004 -1.724,40.124 0.518,16.036 13.478,28.995 29.502,29.501 2.766,0.089 5.542,0.134 8.332,0.134 10.45,0 21.071,-0.631 31.792,-1.86 v 71.707 c 0.01,4.638 0.905,9.132 2.65,13.333 1.752,4.254 4.302,8.074 7.579,11.35 6.6,6.601 15.373,10.235 24.703,10.235 9.329,-0.001 18.102,-3.635 24.703,-10.234 L 288.317,191.6 c 16.561,-16.561 20.103,-42.371 8.602,-62.789 -2.35,-4.143 -5.245,-7.945 -8.602,-11.302 l -1.997,-1.997 C 326.067,95.811 363.929,68.401 396.719,35.471 410.334,21.8 423.084,7.198 434.609,-7.927 c 2.794,-3.667 2.087,-8.905 -1.581,-11.7 -3.667,-2.793 -8.904,-2.085 -11.7,1.581 -11.08,14.542 -23.341,28.585 -36.44,41.737 -71.747,72.056 -165.216,113.448 -249.963,110.723 -7.251,-0.229 -13.113,-6.095 -13.348,-13.352 -2.724,-84.753 38.667,-178.197 110.724,-249.96 50.662,-50.458 110.69,-85.536 173.598,-101.439 2.253,-0.57 4.572,-1.114 6.915,-1.646 l 75.167,75.167 c -0.52,2.283 -1.064,4.586 -1.653,6.911 -0.436,1.726 -0.888,3.454 -1.357,5.18 -10e-4,0.003 -10e-4,0.007 -0.002,0.01 -7.614,28.119 -19.247,55.994 -34.576,82.85 -2.286,4.004 -0.893,9.102 3.112,11.387 1.306,0.746 2.727,1.099 4.13,1.099 2.898,0 5.718,-1.512 7.258,-4.211 16.031,-28.083 28.207,-57.271 36.19,-86.754 10e-4,-0.004 0.003,-0.009 0.004,-0.013 0.492,-1.819 0.968,-3.64 1.427,-5.454 1.023,-4.04 1.957,-8.058 2.771,-11.925 4.942,-23.127 7.17,-46.08 6.624,-68.222 z m -235.4,355.273 c 2.296,2.296 4.277,4.897 5.874,7.712 7.827,13.895 5.412,31.481 -5.874,42.766 l -54.164,54.165 c -7.112,7.112 -18.685,7.112 -25.795,0 -1.711,-1.71 -3.037,-3.694 -3.957,-5.925 -0.912,-2.197 -1.377,-4.549 -1.382,-6.972 v -74.087 c 25.856,-4.433 52.082,-12.285 77.734,-23.394 0.422,-0.183 0.84,-0.382 1.262,-0.567 z M 109.005,64.779 H 34.929 c -2.416,0 -4.762,-0.465 -6.994,-1.394 -2.206,-0.907 -4.193,-2.236 -5.902,-3.946 -7.112,-7.111 -7.112,-18.682 0,-25.794 l 54.166,-54.166 c 6.86,-6.86 16.044,-10.441 25.31,-10.441 5.978,0 11.992,1.491 17.432,4.557 2.838,1.609 5.441,3.591 7.734,5.886 l 6.302,6.302 c -0.185,0.421 -0.383,0.839 -0.565,1.261 -11.111,25.655 -18.972,51.881 -23.407,77.735 z m 324.357,-300.725 c 10.53,-1.656 21.167,-2.728 31.818,-3.144 8.992,-0.352 21.702,-2.658 27.598,5.971 4.747,6.95 2.569,19.097 2.15,27.055 -0.519,9.868 -1.556,19.71 -3.116,29.469 -17.249,-17.249 -34.497,-34.497 -51.746,-51.746 -2.491,-2.491 -4.982,-4.982 -7.474,-7.474 0.258,-0.044 0.514,-0.088 0.77,-0.131 0.294,-0.047 -0.256,0.039 0,0 z" /><path
     inkscape:connector-curvature="0"
     id="path30"
     d="m 216.862,39.128 c 1.631,1.629 3.768,2.444 5.904,2.444 2.136,0 4.273,-0.815 5.904,-2.444 L 334.757,-66.96 c 9.463,6.915 20.681,10.376 31.9,10.376 13.855,0 27.711,-5.274 38.26,-15.822 h 0.001 c 21.096,-21.098 21.096,-55.424 0,-76.521 -21.096,-21.095 -55.423,-21.096 -76.521,0.001 -19.089,19.089 -20.902,49.008 -5.446,70.159 L 216.862,27.321 c -3.26,3.261 -3.26,8.546 0,11.807 z m 123.34,-176.248 c 7.294,-7.295 16.874,-10.941 26.455,-10.941 9.581,0 19.161,3.646 26.455,10.941 14.587,14.586 14.587,38.322 10e-4,52.908 -14.585,14.585 -38.316,14.585 -52.903,0.008 -0.002,-0.002 -0.004,-0.006 -0.007,-0.008 -0.002,-0.002 -0.004,-0.004 -0.008,-0.007 -14.58,-14.588 -14.577,-38.317 0.007,-52.901 z" /></g>
<g
   id="g32"
   transform="translate(0,-256)">
</g>
<g
   id="g34"
   transform="translate(0,-256)">
</g>
<g
   id="g36"
   transform="translate(0,-256)">
</g>
<g
   id="g38"
   transform="translate(0,-256)">
</g>
<g
   id="g40"
   transform="translate(0,-256)">
</g>
<g
   id="g42"
   transform="translate(0,-256)">
</g>
<g
   id="g44"
   transform="translate(0,-256)">
</g>
<g
   id="g46"
   transform="translate(0,-256)">
</g>
<g
   id="g48"
   transform="translate(0,-256)">
</g>
<g
   id="g50"
   transform="translate(0,-256)">
</g>
<g
   id="g52"
   transform="translate(0,-256)">
</g>
<g
   id="g54"
   transform="translate(0,-256)">
</g>
<g
   id="g56"
   transform="translate(0,-256)">
</g>
<g
   id="g58"
   transform="translate(0,-256)">
</g>
<g
   id="g60"
   transform="translate(0,-256)">
</g>
</svg>