<?xml version="1.0" encoding="UTF-8" standalone="no"?>
<svg
   xmlns:dc="http://purl.org/dc/elements/1.1/"
   xmlns:cc="http://creativecommons.org/ns#"
   xmlns:rdf="http://www.w3.org/1999/02/22-rdf-syntax-ns#"
   xmlns:svg="http://www.w3.org/2000/svg"
   xmlns="http://www.w3.org/2000/svg"
   xmlns:sodipodi="http://sodipodi.sourceforge.net/DTD/sodipodi-0.dtd"
   xmlns:inkscape="http://www.inkscape.org/namespaces/inkscape"
   version="1.1"
   viewBox="0 0 38 37.999999"
   enable-background="new 0 0 560.875 102.036"
   id="svg2"
   inkscape:version="0.91 r13725"
   sodipodi:docname="flaticon_logo.svg"
   width="38"
   height="38">
  <metadata
     id="metadata36">
    <rdf:RDF>
      <cc:Work
         rdf:about="">
        <dc:format>image/svg+xml</dc:format>
        <dc:type
           rdf:resource="http://purl.org/dc/dcmitype/StillImage" />
        <dc:title />
      </cc:Work>
    </rdf:RDF>
  </metadata>
  <defs
     id="defs34" />
  <sodipodi:namedview
     pagecolor="#ffffff"
     bordercolor="#666666"
     borderopacity="1"
     objecttolerance="10"
     gridtolerance="10"
     guidetolerance="10"
     inkscape:pageopacity="0"
     inkscape:pageshadow="2"
     inkscape:window-width="1366"
     inkscape:window-height="706"
     id="namedview32"
     showgrid="false"
     inkscape:zoom="11.53312"
     inkscape:cx="14.728164"
     inkscape:cy="21.6328"
     inkscape:window-x="1358"
     inkscape:window-y="-8"
     inkscape:window-maximized="1"
     inkscape:current-layer="svg2" />
  <g
     id="g3338">
    <rect
       ry="4.9999995"
       rx="5.0000005"
       y="-5.7731597e-015"
       x="0"
       height="38"
       width="38"
       id="rect3337"
       style="opacity:1;fill:#222222;fill-opacity:1;stroke:none;stroke-width:2.78048778;stroke-linecap:round;stroke-miterlimit:4;stroke-dasharray:none;stroke-dashoffset:0;stroke-opacity:1" />
    <g
       class="insignia"
       id="g3366"
       transform="matrix(0.25147739,0,0,0.25481203,4.0000193,6.4999997)">
      <path
         d="m 48.372,56.137 12.517,0 11.156,-18.537 -34.859,0 -11.498,-19.061 57.825,0 L 94.668,0 9.271,0 C 5.925,0 2.842,1.801 1.198,4.716 c -1.644,2.907 -1.593,6.482 0.134,9.343 l 50.38,83.501 c 1.678,2.781 4.689,4.476 7.938,4.476 3.246,0 6.257,-1.695 7.935,-4.476 L 70.483,92.756 48.372,56.137 Z"
         id="path3368"
         inkscape:connector-curvature="0"
         style="fill:#ffffff" />
      <g
         class="i"
         id="g3370"
         style="fill:#a9fd00">
        <path
           d="m 93.575,18.539 0.031,0 0,0.004 21.652,0.004 2.705,-4.488 c 1.727,-2.861 1.778,-6.436 0.133,-9.343 C 116.454,1.801 113.371,0 110.026,0 l -5.294,0 -11.157,18.539 z"
           id="path3372"
           inkscape:connector-curvature="0" />
        <polygon
           points="75.519,84.404 109.942,27.356 88.291,27.356 64.725,66.486 "
           id="polygon3374" />
      </g>
    </g>
  </g>
</svg>
